<?xml version="1.0" standalone="no"?>
<!DOCTYPE svg PUBLIC "-//W3C//DTD SVG 20010904//EN"
 "http://www.w3.org/TR/2001/REC-SVG-20010904/DTD/svg10.dtd">
<svg version="1.0" xmlns="http://www.w3.org/2000/svg"
 width="2000.000000pt" height="2000.000000pt" viewBox="0 0 2000.000000 2000.000000"
 preserveAspectRatio="xMidYMid meet">
<metadata>
Created by potrace 1.14, written by Peter Selinger 2001-2017
</metadata>
<g transform="translate(0.000000,2000.000000) scale(0.100000,-0.100000)"
fill="#000000" stroke="none">
<path d="M7997 17374 c-3 -4 -24 -6 -47 -6 l-40 1 0 -630 c0 -412 -3 -629 -10
-630 -54 -5 -102 0 -117 12 -16 12 -17 12 -6 -1 10 -13 -1 -15 -92 -14 -57 1
-109 6 -116 10 -7 4 -10 3 -6 -2 6 -11 -216 -9 -234 2 -7 4 -10 3 -6 -2 6 -11
-216 -9 -234 2 -7 4 -10 3 -6 -2 6 -11 -216 -9 -234 2 -7 4 -10 3 -6 -2 6 -11
-216 -9 -234 2 -7 4 -10 3 -6 -2 6 -11 -216 -9 -234 2 -7 4 -10 3 -6 -2 7 -13
-226 -12 -235 1 -5 7 -8 7 -8 0 0 -5 -14 -10 -30 -10 -22 0 -29 4 -25 15 3 10
0 9 -9 -3 -17 -22 -26 -23 -37 -5 -5 7 -9 8 -9 3 0 -15 -80 -12 -89 4 -7 11
-9 11 -13 0 -7 -20 -90 -21 -107 -1 -12 15 -13 15 -8 1 5 -15 -8 -17 -106 -18
-62 0 -127 -2 -145 -4 -18 -2 -35 0 -38 5 -3 5 -11 5 -17 1 -22 -14 -49 -14
-41 -1 6 10 5 10 -7 1 -9 -7 -58 -14 -117 -17 -56 -2 -107 -8 -113 -12 -8 -4
-9 -3 -5 4 9 15 1 15 -25 2 -14 -8 -19 -7 -19 2 0 9 -3 9 -10 -2 -9 -13 -10
-13 -10 0 0 11 -3 11 -8 3 -4 -7 -42 -13 -93 -16 -48 -2 -90 -6 -95 -9 -5 -2
-30 -4 -56 -4 -27 1 -48 -3 -48 -7 0 -5 -4 -6 -9 -3 -5 4 -21 2 -36 -4 -17 -6
-24 -7 -20 0 4 6 -2 7 -17 2 -13 -5 -44 -8 -70 -8 -25 1 -44 -3 -41 -7 3 -5
-1 -7 -8 -6 -8 2 -36 0 -64 -4 -27 -4 -67 -9 -89 -12 -21 -2 -46 -7 -55 -9 -9
-3 -35 -8 -57 -11 -23 -3 -59 -9 -80 -12 -22 -4 -55 -7 -76 -7 -20 -1 -34 -4
-31 -8 2 -5 -6 -9 -19 -10 -22 -1 -35 -3 -50 -8 -5 -1 -16 -3 -25 -4 -10 -1
-22 -4 -28 -7 -5 -4 -20 -5 -32 -4 -13 1 -23 -2 -23 -6 0 -4 -19 -10 -42 -14
-65 -11 -70 -12 -116 -24 -23 -7 -48 -9 -54 -5 -7 4 -8 3 -4 -4 4 -8 0 -12
-12 -12 -19 0 -76 -16 -272 -77 -63 -20 -122 -36 -130 -37 -8 -1 -17 -3 -20
-7 -3 -3 -45 -20 -95 -39 -49 -18 -106 -40 -125 -49 -19 -8 -37 -15 -40 -16
-3 0 -27 -11 -54 -23 -27 -12 -51 -22 -54 -22 -3 0 -36 -16 -74 -35 -38 -20
-74 -33 -81 -29 -7 4 -9 4 -5 -1 4 -4 -16 -20 -45 -35 -167 -87 -423 -242
-447 -270 -3 -3 -18 -14 -35 -24 -130 -82 -473 -396 -617 -566 -271 -319 -501
-720 -678 -1180 -57 -149 -157 -455 -167 -512 -1 -10 -12 -53 -24 -95 -11 -43
-22 -85 -24 -93 -2 -8 -13 -58 -25 -110 -12 -52 -26 -117 -31 -145 -5 -27 -11
-61 -14 -75 -3 -14 -7 -38 -10 -55 -3 -16 -10 -52 -15 -80 -5 -27 -12 -68 -15
-90 -3 -22 -10 -65 -15 -95 -15 -86 -18 -111 -25 -170 -3 -30 -7 -66 -9 -80
-6 -36 -14 -104 -21 -185 -4 -38 -8 -81 -11 -95 -2 -14 -7 -63 -9 -110 -3 -47
-8 -98 -10 -115 -2 -16 -7 -75 -10 -130 -4 -55 -8 -125 -10 -155 -31 -471 -26
-1519 10 -2020 4 -47 8 -112 11 -145 2 -33 7 -89 10 -125 4 -36 8 -78 9 -95 3
-41 14 -142 20 -185 3 -19 7 -55 9 -80 8 -74 36 -271 46 -325 5 -27 11 -63 14
-80 50 -340 175 -828 291 -1145 91 -247 221 -532 314 -688 17 -29 31 -55 31
-57 0 -3 21 -37 47 -77 27 -40 50 -77 53 -83 28 -56 212 -296 321 -420 96
-109 213 -225 319 -318 140 -123 444 -339 558 -396 23 -12 40 -26 37 -31 -3
-5 0 -8 7 -5 7 2 36 -9 63 -25 28 -16 71 -39 97 -51 26 -12 46 -25 43 -29 -3
-5 4 -6 15 -3 12 3 20 0 20 -8 0 -7 3 -10 6 -6 3 3 36 -9 72 -28 55 -27 182
-79 265 -108 9 -4 17 -11 17 -17 0 -6 4 -9 9 -6 5 3 40 -6 77 -20 38 -14 77
-27 88 -29 10 -3 46 -14 80 -26 33 -11 68 -23 76 -25 28 -6 135 -35 145 -38 6
-2 15 -5 20 -6 6 -1 30 -9 55 -16 25 -7 56 -15 70 -18 14 -3 88 -19 165 -36
77 -18 160 -34 185 -37 25 -3 52 -8 60 -13 8 -4 23 -6 33 -5 9 2 17 0 17 -4 0
-4 12 -6 28 -5 15 1 31 -1 37 -4 10 -6 37 -10 102 -15 18 -1 33 -4 33 -7 0 -3
8 -6 18 -7 47 -3 200 -19 272 -29 19 -3 62 -7 95 -10 33 -2 83 -7 110 -9 86
-8 207 -16 275 -20 36 -2 73 -4 83 -4 11 -1 15 -6 11 -13 -5 -8 -3 -8 7 -2 16
10 121 15 115 5 -2 -3 7 -6 20 -6 13 0 24 4 24 8 0 5 4 6 9 3 5 -4 98 -7 206
-8 108 -1 199 -6 201 -10 3 -5 14 -4 24 2 25 13 33 13 24 -2 -5 -7 -3 -8 7 -3
19 13 130 15 123 3 -4 -6 3 -5 15 1 15 8 21 9 21 1 0 -7 5 -8 13 -3 18 12 67
11 67 -1 0 -7 3 -8 8 -1 9 13 124 16 116 3 -4 -6 3 -5 15 1 15 8 21 9 21 1 0
-7 5 -8 13 -3 17 11 117 12 110 0 -3 -5 4 -4 16 2 15 8 21 9 21 1 0 -7 5 -8
13 -3 17 11 117 12 110 0 -3 -5 4 -4 16 2 15 8 21 9 21 1 0 -7 5 -8 13 -3 17
11 117 12 110 0 -3 -5 4 -4 16 2 15 8 21 9 21 1 0 -7 5 -8 13 -3 17 11 197 11
190 0 -3 -5 4 -4 16 2 15 8 21 9 21 1 0 -7 5 -8 13 -3 18 12 67 11 67 -1 0 -7
3 -8 8 -1 9 12 112 15 112 3 0 -5 6 -6 13 -1 17 11 67 11 67 1 0 -5 6 -6 13
-1 17 11 157 12 150 0 -3 -5 4 -4 16 2 15 8 21 9 21 1 0 -7 5 -8 13 -3 18 12
67 11 67 -1 0 -7 3 -8 8 -1 9 12 112 15 112 3 0 -5 6 -6 12 -2 23 14 49 11 47
-5 -1 -9 -1 -341 0 -738 l1 -721 178 -2 c216 -2 485 -1 492 1 3 1 8 1 11 1 11
-2 294 -3 304 -2 13 1 301 -1 378 -3 33 -1 61 1 64 6 2 4 8 5 13 2 8 -5 441
-9 465 -4 6 1 14 1 18 0 12 -2 770 -2 782 0 6 1 13 1 18 0 12 -2 451 -2 462 0
6 1 14 1 18 0 12 -2 650 -2 662 0 6 1 13 1 17 0 10 -1 277 0 301 1 12 1 14 5
7 12 -13 13 -13 39 0 31 6 -3 10 -1 10 5 0 6 5 8 11 4 8 -4 7 -9 -2 -15 -7 -4
-10 -11 -6 -16 11 -10 26 17 20 34 -3 8 -13 11 -24 8 -16 -5 -18 -2 -15 17 2
16 9 22 23 20 12 -2 23 4 27 14 5 14 4 15 -8 5 -31 -26 -42 -4 -42 87 1 87 8
106 37 97 9 -3 16 1 16 8 0 9 -7 12 -19 9 -10 -2 -18 1 -18 7 0 6 6 11 14 11
8 0 17 7 20 16 5 14 4 15 -8 5 -31 -26 -42 -4 -42 87 1 87 8 106 37 97 9 -3
16 1 16 8 0 9 -7 12 -19 9 -10 -2 -18 1 -18 7 0 6 6 11 14 11 8 0 17 7 20 16
5 14 4 15 -8 5 -7 -6 -20 -9 -28 -6 -11 4 -14 33 -14 133 l0 127 31 18 c22 13
24 16 8 12 -14 -4 -23 -2 -23 4 0 6 6 11 14 11 8 0 17 7 20 16 5 14 4 15 -8 5
-31 -26 -42 -4 -42 87 1 87 8 106 37 97 9 -3 16 1 16 8 0 9 -7 12 -19 9 -10
-2 -18 1 -18 7 0 6 6 11 14 11 8 0 17 7 20 16 5 14 4 15 -8 5 -31 -26 -42 -4
-42 87 1 87 8 106 37 97 9 -3 16 1 16 8 0 9 -7 12 -19 9 -10 -2 -18 1 -18 7 0
6 6 11 14 11 8 0 17 7 20 16 5 14 4 15 -8 5 -23 -19 -43 -3 -42 34 0 18 4 31
9 28 4 -2 7 -1 7 4 0 4 20 8 44 8 24 0 42 -4 38 -9 -3 -5 1 -5 9 0 23 14 62
17 54 3 -6 -8 -2 -8 14 0 15 8 21 9 21 1 0 -7 5 -8 13 -3 18 12 67 11 67 -1 0
-7 3 -8 8 -1 9 12 112 15 112 3 0 -5 6 -6 13 -1 17 11 67 11 67 1 0 -5 6 -6
13 -1 17 11 157 12 150 0 -3 -5 4 -4 16 2 15 8 21 9 21 1 0 -7 5 -8 13 -3 18
12 67 11 67 -1 0 -7 3 -8 8 -1 9 12 112 15 112 3 0 -5 6 -6 13 -1 17 11 67 11
67 1 0 -5 6 -6 13 -1 17 11 157 12 150 0 -3 -5 4 -4 16 2 15 8 21 9 21 1 0 -7
5 -8 13 -3 18 12 67 11 67 -1 0 -7 3 -8 8 -1 9 13 124 16 116 3 -4 -6 3 -5 15
1 15 8 21 9 21 1 0 -7 5 -8 13 -3 17 11 117 12 110 0 -3 -5 4 -4 16 2 15 8 21
9 21 1 0 -7 5 -8 13 -3 17 11 117 12 110 0 -3 -5 4 -4 16 2 15 8 21 9 21 1 0
-7 5 -8 13 -3 17 11 117 12 110 0 -3 -5 4 -4 16 2 16 9 21 9 21 0 0 -8 4 -9
13 0 10 8 17 7 27 -2 7 -6 10 -7 7 -2 -3 7 14 11 48 11 36 0 52 -3 48 -10 -4
-7 -2 -7 8 0 18 15 380 24 371 9 -3 -5 2 -4 12 4 15 13 19 13 27 0 7 -11 9
-11 9 -1 0 9 10 12 28 11 15 -2 33 0 40 4 6 5 12 4 12 -1 0 -5 7 -9 15 -9 8 0
15 3 15 6 0 3 18 7 40 7 23 1 40 -4 40 -10 0 -8 2 -8 8 0 4 6 22 13 40 16 24
3 32 1 32 -11 0 -14 2 -14 10 -1 5 8 19 15 32 16 13 1 58 4 102 7 43 4 81 9
84 12 3 2 11 0 19 -6 9 -9 13 -8 13 0 0 6 5 11 11 11 5 0 7 -6 3 -12 -6 -10
-5 -10 7 -1 8 6 24 10 34 9 11 -2 28 1 39 6 14 8 17 7 11 -4 -6 -10 -5 -11 6
0 7 6 21 12 30 12 10 0 20 -6 22 -12 4 -9 6 -8 6 2 1 9 10 16 21 17 13 1 18
-2 13 -10 -5 -9 -3 -9 8 0 8 6 27 10 41 9 15 -2 25 1 22 5 -3 5 12 10 33 10
21 1 53 3 71 5 23 3 31 0 26 -8 -4 -7 -3 -8 5 -4 6 4 9 12 6 17 -4 5 1 9 9 9
9 0 16 -4 16 -10 0 -5 5 -10 11 -10 5 0 8 4 5 9 -3 5 7 11 22 13 15 3 36 9 46
13 15 7 17 5 11 -6 -7 -11 -6 -12 6 -2 8 6 33 14 56 16 23 3 47 8 52 12 6 3
11 0 11 -7 0 -10 2 -10 9 1 5 8 19 12 35 9 14 -3 23 -2 21 2 -6 9 54 22 66 14
5 -3 9 -1 9 4 0 12 34 11 42 -2 5 -7 8 -4 8 7 0 9 7 17 15 17 8 0 15 -5 15
-12 0 -7 5 -6 13 4 18 23 40 27 57 9 8 -9 12 -12 8 -7 -13 16 -9 26 7 20 8 -4
15 -1 15 5 0 6 4 11 10 11 5 0 7 -8 4 -17 -5 -15 -4 -16 5 -3 6 8 14 15 18 16
4 0 15 4 24 8 8 4 29 8 45 9 16 1 31 5 34 9 3 3 19 8 35 10 17 2 33 7 36 11 3
5 20 9 37 9 20 1 29 5 25 12 -3 6 -3 8 1 5 4 -4 34 1 67 11 56 17 63 17 60 -3
-1 -5 3 -6 8 -2 6 3 7 13 4 23 -3 9 -3 14 1 10 4 -3 23 0 43 8 27 12 33 12 28
2 -3 -7 -1 -6 7 3 13 15 62 34 53 20 -2 -4 2 -8 9 -8 9 0 12 7 8 16 -5 14 -3
14 10 3 14 -11 18 -11 25 2 5 9 17 17 28 19 11 1 26 6 33 10 6 5 12 5 12 2 0
-4 7 1 16 9 8 9 20 14 25 11 5 -4 9 -1 9 6 0 9 3 9 14 -1 12 -9 17 -8 27 8 7
11 19 18 26 15 7 -3 13 0 13 7 0 7 8 9 21 5 12 -4 19 -3 16 2 -3 5 8 14 24 20
26 10 30 10 25 -3 -3 -9 -1 -12 4 -9 6 3 10 13 10 21 0 8 5 14 11 14 5 0 7 -6
4 -12 -4 -7 2 -4 12 8 21 24 58 41 47 21 -4 -6 2 -4 14 6 11 11 25 16 31 13 5
-4 13 -1 17 5 4 8 3 9 -4 5 -7 -4 -12 -3 -12 2 0 5 9 12 20 15 11 3 17 1 14
-4 -3 -5 11 2 32 16 20 14 43 25 50 25 8 0 14 4 14 9 0 16 29 20 44 6 12 -13
15 -12 20 1 3 8 2 12 -3 9 -5 -3 -12 -1 -15 4 -3 5 1 11 9 15 8 3 19 -3 25
-12 8 -13 10 -14 9 -2 -3 29 1 41 11 35 6 -4 8 -11 5 -16 -3 -5 1 -6 10 -2 13
5 14 7 3 14 -11 7 -10 11 2 19 20 13 30 13 30 -1 0 -5 -5 -7 -12 -3 -6 4 -8 3
-4 -4 7 -11 44 -8 55 4 3 4 -2 4 -11 1 -23 -8 -24 15 -3 33 12 10 21 10 42 1
14 -6 28 -10 30 -7 2 2 -5 7 -16 11 -12 3 -19 11 -15 16 4 6 11 6 20 -2 12
-10 13 -9 9 4 -4 8 -1 18 6 23 7 4 10 3 5 -4 -3 -6 -1 -14 5 -18 7 -4 9 -3 6
2 -3 6 -1 16 4 24 8 13 10 13 20 0 9 -13 10 -12 5 3 -4 11 1 20 12 24 9 4 22
14 29 22 7 9 13 12 13 6 0 -5 4 -4 9 3 4 7 15 14 24 16 8 1 24 12 34 24 10 12
29 24 42 27 14 2 29 9 35 15 8 8 5 9 -9 4 -20 -7 -20 -7 0 9 13 10 24 12 32 6
7 -7 13 -6 17 0 4 5 16 8 28 6 11 -3 18 -1 14 2 -12 12 -46 13 -46 1 0 -6 -3
-8 -6 -5 -13 13 17 34 45 32 17 -1 28 2 25 7 -4 5 -13 7 -21 4 -8 -4 -11 -2
-7 5 3 6 17 9 30 6 14 -2 27 0 31 6 3 5 1 7 -5 3 -6 -3 -12 -3 -15 1 -2 5 13
23 34 41 26 23 40 29 45 21 5 -8 3 -9 -6 -4 -9 5 -11 4 -6 -4 4 -6 12 -9 17
-5 5 3 7 10 3 15 -3 6 2 19 12 30 18 21 40 26 28 7 -4 -6 -3 -8 4 -4 5 3 12 1
14 -6 3 -7 7 -5 11 6 4 9 3 15 -2 12 -5 -3 -11 1 -14 8 -8 20 18 39 43 31 12
-4 20 -2 20 5 0 6 6 8 13 4 10 -6 10 -4 0 7 -17 18 -16 29 3 29 8 0 13 -4 10
-8 -3 -5 1 -9 9 -9 12 0 12 4 -2 20 -10 11 -13 17 -7 14 7 -4 14 2 17 13 3 11
16 24 29 29 12 6 20 10 16 10 -4 1 12 21 35 44 23 24 45 42 49 40 4 -2 -7 -16
-24 -32 -27 -24 -29 -30 -19 -47 11 -17 12 -17 7 -1 -6 19 38 72 52 63 5 -3 9
1 9 9 0 8 -4 12 -9 9 -21 -13 -5 22 22 47 16 16 27 29 23 29 -3 0 2 9 12 20
10 11 22 17 26 14 5 -3 9 2 9 10 0 9 5 16 10 16 7 0 7 -6 0 -19 -13 -24 3 -36
20 -16 10 13 10 19 -4 34 -16 18 -16 20 7 37 13 11 25 24 27 29 3 6 17 22 32
37 14 14 24 28 21 31 -7 8 36 29 47 22 5 -3 7 -13 4 -23 -5 -14 -4 -14 4 -2 8
10 7 19 -1 29 -10 12 -9 14 4 9 9 -4 16 -1 16 7 0 11 -5 11 -20 4 -10 -6 -21
-8 -25 -5 -3 3 0 6 7 6 7 0 9 5 5 13 -4 6 -4 9 1 5 4 -4 15 1 24 10 9 10 12
12 7 5 -5 -8 -4 -13 2 -13 13 0 22 25 12 36 -4 5 4 20 17 34 14 14 23 20 19
13 -6 -12 9 -26 31 -29 7 -1 9 5 6 14 -5 11 -3 13 8 7 11 -7 12 -6 2 6 -10 12
-10 18 0 29 9 10 9 11 -1 6 -20 -12 -28 25 -8 40 10 6 17 16 16 21 -1 4 7 10
17 12 25 4 44 21 37 32 -3 5 3 9 13 10 14 0 12 2 -6 10 -22 9 -23 11 -7 27 9
10 16 24 16 30 0 6 9 17 20 25 11 8 17 17 13 21 -4 4 -1 11 7 16 8 5 15 15 15
21 0 7 7 14 15 16 13 4 13 3 0 -6 -8 -6 -10 -11 -4 -11 5 0 18 6 28 13 17 13
18 14 2 20 -10 4 -15 3 -11 -3 4 -6 -1 -7 -11 -3 -15 6 -15 7 2 20 10 8 18 19
16 24 -1 6 3 7 9 3 9 -5 10 -2 6 9 -3 9 3 27 14 41 11 14 17 26 14 26 -4 0 -3
6 3 13 6 6 11 17 11 22 1 6 5 10 10 10 5 0 13 3 17 7 4 5 2 8 -5 8 -8 0 -7 7
3 23 8 12 15 27 15 32 1 6 8 18 16 27 8 10 12 18 10 18 -3 0 0 10 7 22 7 13
11 26 10 31 -1 4 3 7 9 7 5 0 7 5 3 12 -4 7 -3 8 5 4 9 -6 8 -14 -4 -32 -8
-13 -11 -24 -5 -24 5 0 9 -6 7 -12 -1 -7 4 -13 12 -13 8 0 15 6 17 13 1 7 0 8
-3 2 -8 -17 -19 -11 -20 10 -1 13 2 18 9 14 7 -4 8 -2 4 4 -11 18 4 37 16 21
8 -11 9 -11 6 -1 -2 8 -8 13 -13 12 -12 -2 -24 31 -18 48 7 17 20 15 20 -3 0
-8 -5 -11 -10 -8 -6 3 -7 1 -3 -6 4 -6 11 -9 16 -6 4 3 10 2 13 -2 2 -5 2 -2
0 6 -2 8 2 11 12 7 8 -3 15 -1 15 4 0 6 -6 10 -14 10 -7 0 -19 7 -26 15 -8 10
-9 15 -2 15 6 0 9 7 6 15 -4 8 -1 15 6 15 6 0 9 4 5 9 -3 5 2 16 11 25 8 9 12
21 8 27 -5 8 -3 9 5 5 8 -5 11 -3 9 5 -2 12 10 53 39 129 4 8 5 19 4 24 -1 5
5 6 14 3 8 -4 15 -2 15 3 0 5 6 7 14 4 8 -3 17 -1 21 5 4 7 0 8 -11 4 -10 -4
-15 -2 -11 3 3 6 2 16 -2 23 -6 10 -10 9 -14 -4 -5 -11 -3 -14 6 -9 9 5 9 4 0
-6 -18 -19 -27 -6 -13 20 8 16 15 19 24 11 9 -8 18 -6 32 4 10 8 14 15 9 15
-6 0 -16 -5 -23 -12 -19 -19 -14 2 8 29 23 29 25 43 8 43 -6 0 -8 -3 -5 -7 4
-3 -2 -13 -13 -20 -11 -8 -18 -19 -15 -24 4 -5 1 -9 -4 -9 -15 0 -14 16 4 33
8 8 11 17 8 21 -4 3 -1 6 7 6 10 0 10 4 -1 17 -12 14 -12 15 0 9 10 -6 12 -4
7 11 -4 12 -1 25 9 33 8 7 12 17 9 22 -10 16 18 28 34 16 9 -8 16 -8 25 2 10
10 9 12 -5 7 -10 -3 -20 -2 -23 4 -4 5 -11 7 -16 4 -5 -4 -9 -1 -9 4 0 6 4 11
8 11 4 0 9 10 9 23 1 19 8 53 13 67 1 3 2 8 2 11 -1 3 6 6 13 6 12 0 12 -4 3
-16 -7 -9 -8 -13 -4 -9 5 4 16 2 24 -5 13 -9 14 -9 8 1 -5 8 -1 12 11 12 12 0
7 6 -14 16 -20 10 -30 21 -26 28 4 6 8 26 10 45 1 18 7 39 13 46 5 6 7 15 3
18 -3 4 -1 7 5 7 14 0 25 -17 15 -23 -5 -2 -2 -2 5 -1 6 2 12 -2 12 -8 0 -6 3
-9 6 -5 9 9 -32 57 -42 49 -5 -4 -2 1 5 11 7 9 10 17 5 17 -4 0 -3 5 3 11 6 6
9 18 6 25 -3 8 0 14 5 14 6 0 9 9 7 20 -2 11 0 20 4 20 5 0 8 8 7 18 0 9 4 18
9 20 15 3 13 -20 -5 -48 -13 -21 -13 -23 0 -16 31 18 40 29 33 40 -15 23 -12
41 10 59 18 14 19 16 3 10 -13 -4 -17 -3 -13 4 4 6 0 19 -9 27 -8 9 -11 16 -6
16 5 0 8 11 7 25 -2 14 1 27 6 31 5 3 7 10 4 15 -9 14 5 50 17 43 6 -4 6 -10
-1 -17 -16 -16 -14 -30 3 -24 16 6 29 -19 20 -36 -5 -9 -3 -8 6 0 11 10 10 16
-3 36 -19 29 -10 45 10 19 10 -12 10 -8 -2 15 -19 40 -19 44 3 37 15 -5 15 -4
-1 6 -18 11 -18 13 4 28 21 14 21 16 4 28 -10 8 -16 17 -12 20 4 4 13 1 21 -5
12 -10 14 -9 12 6 -2 10 -10 17 -19 15 -11 -2 -15 2 -11 13 3 8 11 12 18 8 6
-4 6 0 -2 9 -10 13 -10 17 0 21 11 4 11 7 0 18 -7 8 -13 10 -12 4 2 -5 1 -12
0 -15 -6 -15 -12 -48 -13 -72 -1 -14 -4 -24 -7 -21 -8 7 -7 63 1 63 3 0 5 13
4 30 -1 16 1 28 5 25 4 -3 11 2 14 11 8 22 8 26 -4 19 -5 -3 -10 -1 -10 5 0
10 53 6 72 -6 4 -3 8 -3 8 0 0 2 -14 11 -30 20 -19 9 -28 10 -24 3 4 -7 3 -8
-1 -4 -16 14 -14 40 3 55 16 13 16 13 0 8 -11 -3 -15 -1 -12 9 4 10 13 11 35
5 38 -11 38 -2 -1 11 -23 8 -29 16 -26 32 3 12 5 22 6 22 2 0 10 71 11 98 0 9
5 17 11 17 6 0 5 7 -3 17 -10 12 -11 15 -1 9 9 -6 11 -1 8 20 -7 39 1 46 32
28 20 -12 22 -12 9 -1 -9 8 -15 21 -11 30 3 8 1 18 -5 22 -7 4 -8 -1 -4 -12 3
-10 3 -15 -1 -12 -4 4 -8 16 -11 27 -3 16 0 19 13 15 9 -4 23 -14 30 -22 11
-14 12 -13 3 6 -6 12 -19 24 -29 27 -12 4 -18 14 -16 29 1 12 3 22 4 22 1 0 3
14 5 30 1 17 3 36 4 43 2 19 17 14 18 -5 1 -10 4 -29 9 -42 5 -17 4 -22 -5
-17 -6 4 -9 12 -6 17 4 5 2 9 -3 9 -4 0 -8 -18 -8 -40 0 -26 5 -40 13 -40 7 0
13 1 14 3 7 31 7 87 -1 92 -5 3 -10 11 -10 17 0 6 10 3 22 -8 16 -13 19 -14
10 -2 -10 13 -10 17 0 21 9 3 6 11 -11 26 -13 11 -21 22 -18 22 4 1 11 2 16 3
5 0 13 5 18 10 4 5 3 6 -4 2 -6 -3 -14 -2 -18 4 -3 5 -1 11 4 11 6 1 15 2 20
3 5 0 13 5 18 10 4 5 3 6 -4 3 -6 -4 -13 -2 -15 4 -6 18 -37 -1 -33 -21 3 -13
-1 -17 -12 -13 -8 3 -11 9 -6 12 4 3 8 23 8 44 -1 20 3 37 7 37 5 0 6 -12 4
-26 -4 -21 -2 -24 9 -14 8 6 20 9 27 5 7 -4 5 0 -4 8 -10 8 -18 20 -18 27 0 9
6 8 19 -4 14 -13 21 -14 27 -5 4 8 3 10 -5 5 -6 -4 -14 0 -17 8 -4 11 -15 14
-30 12 -17 -3 -22 -1 -17 7 4 7 8 26 8 42 0 17 3 35 7 40 3 6 5 47 3 93 -2 70
0 82 14 82 14 0 14 -2 1 -10 -13 -9 -13 -10 0 -10 13 0 13 -1 0 -10 -12 -8
-12 -10 5 -10 19 -1 19 -1 2 -14 -16 -12 -15 -13 9 -13 14 0 22 2 17 6 -11 7
-10 22 1 39 4 7 5 16 2 19 -3 4 -6 1 -6 -5 0 -7 -4 -12 -10 -12 -10 0 -10 20
0 30 17 16 29 63 20 78 -6 11 -10 12 -10 4 0 -7 -4 -11 -10 -7 -14 9 0 36 24
45 18 8 19 9 3 9 -19 1 -19 26 1 26 5 0 14 4 19 9 5 5 3 6 -4 2 -12 -7 -18 12
-14 37 1 5 -3 6 -9 2 -5 -3 -10 -2 -10 4 0 5 4 12 9 16 6 3 8 14 6 24 -2 11 3
22 12 25 9 4 13 9 10 13 -4 3 -13 0 -22 -7 -9 -7 -15 -8 -15 -2 0 6 12 20 28
32 l27 22 -27 -16 c-31 -18 -34 -15 -15 14 8 14 9 23 2 28 -16 11 -16 32 0 32
8 0 15 4 15 10 0 5 -6 7 -13 4 -8 -3 -14 2 -14 11 0 9 6 14 14 11 21 -8 15 2
-8 15 -15 8 -19 8 -15 0 4 -6 3 -11 -2 -11 -10 0 -9 120 1 137 4 6 3 14 -2 17
-10 7 -9 31 2 42 3 4 2 15 -4 25 -7 15 -6 17 6 13 8 -3 12 -11 8 -17 -4 -6 -1
-7 6 -2 9 5 7 13 -9 30 -12 13 -17 25 -12 29 10 6 10 36 -1 53 -4 6 -3 14 1
17 10 6 10 46 -1 63 -4 6 -4 14 1 17 5 3 8 41 7 85 -1 45 2 81 6 81 5 0 9 5 9
11 0 5 -3 8 -7 6 -5 -3 -8 52 -7 121 0 70 -3 134 -8 143 -4 9 -4 20 0 24 11
11 9 95 -3 95 -7 0 -7 3 0 8 14 9 15 62 2 62 -6 0 -3 6 8 13 14 11 15 16 5 22
-9 6 -11 4 -5 -5 5 -9 4 -11 -4 -6 -6 4 -8 13 -4 19 10 17 13 37 4 37 -4 0 -7
9 -8 20 -2 22 12 27 23 8 5 -7 3 -8 -5 -3 -10 6 -11 3 -3 -11 5 -11 8 -27 6
-37 -2 -18 -2 -18 17 -1 18 16 18 19 4 41 -9 12 -11 23 -5 23 13 0 7 37 -8 52
-7 7 -12 20 -12 31 0 10 -4 16 -9 13 -5 -4 -4 5 2 18 7 13 15 22 19 20 5 -3 8
-2 9 3 0 4 2 16 4 25 4 22 -20 44 -31 27 -5 -8 -3 -9 6 -4 9 6 11 4 5 -5 -4
-7 -3 -15 2 -19 5 -3 0 -15 -11 -25 -19 -19 -19 -19 -13 13 5 24 4 30 -6 25
-9 -6 -9 -4 -1 7 6 8 10 23 7 34 -8 42 -9 174 -1 169 5 -3 5 -11 1 -17 -4 -7
0 -6 10 2 16 13 25 2 10 -13 -4 -4 -8 -40 -8 -79 -1 -69 0 -72 24 -74 17 -1
20 1 10 8 -12 7 -12 9 1 10 8 1 18 1 21 1 3 -1 6 5 6 13 0 12 -4 11 -21 -1
-26 -18 -42 -18 -27 0 7 8 10 26 7 40 -3 16 0 26 7 26 7 0 6 4 -3 10 -18 11
-20 30 -7 48 6 7 7 15 3 19 -3 3 2 15 11 25 10 11 13 19 8 18 -24 -5 -34 1
-29 18 4 10 2 13 -3 7 -13 -16 -40 -17 -40 -1 0 9 6 12 16 8 13 -4 13 -2 -2
15 -14 16 -14 20 -2 20 8 0 12 -4 10 -8 -3 -4 2 -10 10 -13 13 -4 14 -2 5 14
-6 11 -17 20 -24 20 -7 0 -13 7 -13 15 0 11 4 12 14 4 7 -6 13 -8 13 -3 0 5 9
-4 20 -21 11 -16 20 -25 20 -20 0 6 -6 17 -12 24 -11 11 -10 13 5 8 11 -4 16
-3 12 3 -3 6 -13 10 -21 10 -8 0 -14 5 -14 11 0 5 5 7 11 3 8 -5 8 -1 0 13 -6
11 -7 24 -3 28 4 5 2 5 -5 1 -6 -3 -15 -1 -18 5 -4 5 -13 8 -21 5 -8 -3 -14
-1 -14 4 0 6 7 10 16 10 8 0 12 5 9 10 -4 6 -10 8 -14 6 -4 -3 -7 12 -6 32 1
20 -2 42 -7 49 -5 7 -5 14 2 18 5 3 10 11 10 16 0 6 -3 8 -7 6 -5 -3 -9 10
-10 29 -1 19 2 32 7 29 5 -3 7 -14 5 -25 -2 -11 1 -19 8 -17 7 1 10 -5 8 -13
-9 -37 -8 -70 3 -70 7 0 8 -3 1 -8 -12 -8 -13 -28 -3 -36 5 -3 6 -3 3 1 -3 3
2 17 11 31 10 15 11 21 3 17 -9 -6 -11 -4 -6 7 3 9 0 21 -6 27 -8 8 -8 11 2
11 7 0 9 5 6 10 -3 6 -2 10 2 10 5 0 9 9 10 20 1 11 -3 20 -8 20 -6 0 -7 -4
-4 -10 3 -5 2 -10 -4 -10 -17 0 -21 17 -7 29 7 6 15 9 17 6 3 -2 5 4 5 15 0
10 -3 17 -7 14 -4 -2 -13 4 -20 13 -12 14 -11 15 11 9 24 -6 24 -6 3 5 -14 8
-21 19 -19 35 3 25 16 46 16 26 0 -7 5 -12 11 -12 8 0 9 4 0 13 -6 8 -7 18 -3
23 4 4 -1 2 -10 -5 -20 -15 -24 -1 -6 17 10 10 10 15 -2 22 -12 8 -13 10 -1
10 8 0 12 3 8 6 -3 3 -13 2 -22 -4 -16 -8 -16 -9 0 -16 13 -5 15 -10 6 -19 -5
-7 -8 -25 -6 -39 3 -15 -1 -30 -9 -37 -11 -10 -13 -5 -11 26 1 21 -3 42 -9 46
-7 6 -4 7 7 3 20 -6 23 7 4 22 -16 13 -21 62 -6 62 5 0 7 -4 4 -10 -11 -17 5
-32 20 -20 8 7 19 9 25 5 5 -3 10 -4 10 0 0 3 -11 10 -25 15 -24 9 -26 22 -10
63 4 10 3 17 -5 17 -6 0 -8 6 -4 13 4 6 3 8 -1 4 -13 -11 -15 -38 -3 -31 6 4
6 -1 -1 -13 -6 -11 -7 -23 -4 -27 3 -3 1 -6 -5 -6 -6 0 -14 5 -17 10 -3 6 -1
10 4 10 6 0 11 5 11 11 0 5 -4 8 -8 5 -5 -3 -8 10 -7 29 2 19 0 35 -4 35 -4 0
-7 15 -7 34 0 19 4 32 8 30 4 -3 8 0 8 6 0 6 5 8 11 4 8 -5 7 -9 -4 -16 -10
-5 -14 -17 -11 -31 3 -12 6 -27 6 -34 1 -8 6 -8 18 -1 18 11 25 48 9 48 -6 0
-7 -4 -4 -10 3 -5 0 -10 -8 -10 -7 0 -14 7 -14 15 0 14 10 19 29 16 4 0 5 6 2
14 -4 8 -9 15 -13 15 -4 0 -7 9 -8 20 -1 13 2 18 9 14 7 -4 8 -2 4 4 -4 7 -2
12 5 12 7 0 9 3 6 6 -4 4 -14 1 -24 -7 -15 -12 -16 -12 -10 4 4 10 7 21 7 23
0 3 6 2 13 -2 9 -5 9 -4 0 6 -6 7 -9 20 -6 29 4 9 -3 5 -15 -9 -12 -14 -21
-19 -22 -12 0 7 -4 11 -8 8 -4 -2 -9 4 -9 15 -1 10 2 19 6 19 4 0 8 7 8 15 0
18 -13 20 -20 3 -3 -7 -4 3 -2 22 1 19 -2 43 -6 52 -7 13 -5 16 11 15 21 -1
29 -17 9 -17 -8 0 -8 -4 0 -14 9 -11 9 -16 0 -21 -8 -6 -8 -10 2 -16 7 -4 14
-19 15 -33 0 -15 -3 -23 -9 -19 -6 3 -7 1 -3 -6 4 -6 12 -9 17 -5 5 3 7 10 4
15 -4 5 4 9 17 10 22 1 22 1 2 7 -13 4 -20 14 -18 25 1 9 -2 15 -7 11 -5 -3
-7 10 -5 30 3 20 1 38 -5 41 -5 4 -5 14 2 26 6 12 8 23 5 27 -3 3 -6 0 -6 -7
0 -7 -5 -9 -10 -6 -8 5 -7 12 2 23 9 10 9 13 1 9 -8 -5 -11 0 -10 13 2 25 6
25 24 3 13 -16 13 -16 4 4 -7 12 -19 21 -31 20 -15 -1 -17 -4 -7 -16 9 -12 9
-13 0 -7 -16 9 -17 -6 -2 -21 7 -7 6 -12 -4 -16 -10 -4 -13 3 -12 24 1 17 -2
32 -6 34 -12 8 -3 40 11 37 6 -1 9 2 5 8 -3 5 -1 10 4 10 14 0 14 37 1 45 -8
5 -8 11 0 20 13 15 -11 28 -35 19 -11 -4 -13 -2 -9 9 3 8 0 18 -5 22 -6 3 -9
11 -5 16 3 5 1 16 -6 24 -8 10 -8 15 0 20 7 4 9 18 6 31 -8 29 -1 31 14 5 7
-15 6 -23 -5 -35 -9 -9 -11 -17 -5 -21 5 -3 10 -1 10 5 0 6 3 9 8 7 4 -3 7 10
7 28 0 18 -4 33 -9 32 -5 -1 -11 4 -14 12 -2 8 0 11 5 8 5 -3 10 0 10 8 0 8
-4 12 -9 9 -5 -3 -7 6 -4 20 3 16 -1 29 -9 33 -18 10 -20 24 -5 33 8 5 7 9 -5
13 -9 4 -13 3 -10 -3 3 -6 1 -10 -4 -10 -6 0 -11 -5 -11 -11 0 -5 4 -8 8 -5 5
3 9 -1 9 -9 0 -21 -10 -19 -25 5 -7 11 -8 20 -3 20 5 0 11 10 14 22 5 17 9 19
21 9 11 -9 16 -9 22 0 4 7 3 9 -4 5 -6 -3 -14 -1 -18 5 -3 6 -1 15 6 19 9 5 9
9 1 14 -6 4 -11 2 -11 -4 0 -6 -5 -8 -10 -5 -7 5 -8 11 -1 19 7 8 5 15 -8 23
-14 9 -18 8 -18 -3 0 -7 4 -11 9 -8 4 3 8 1 8 -5 0 -5 -6 -12 -12 -14 -10 -4
-10 -6 0 -6 7 -1 10 -6 6 -13 -4 -7 -3 -8 4 -4 16 10 15 -9 -1 -23 -10 -8 -14
-7 -14 2 -1 22 -14 80 -20 90 -3 6 -1 7 5 3 7 -4 12 -2 12 5 0 7 8 5 20 -6 18
-17 20 -17 14 -2 -6 16 -17 21 -37 18 -5 -1 -7 4 -4 11 2 7 11 12 20 10 21 -3
28 10 15 28 -8 12 -9 11 -4 -3 4 -12 2 -17 -6 -14 -7 2 -12 12 -11 21 0 10 -2
15 -5 12 -3 -3 -15 2 -26 11 -20 17 -20 17 -7 1 9 -12 10 -18 2 -18 -6 0 -12
5 -12 10 -2 13 -6 29 -9 35 -1 3 -3 13 -4 23 -1 9 -5 23 -10 31 -6 10 -5 12 2
7 18 -11 14 10 -3 24 -9 7 -14 19 -11 26 3 7 1 16 -4 19 -4 3 -7 13 -6 23 2 9
-1 20 -6 23 -5 3 -10 12 -11 20 -2 8 -6 20 -10 27 -5 7 -3 12 3 12 6 0 8 5 5
10 -4 6 -11 7 -17 4 -7 -4 -8 -2 -4 4 4 6 2 21 -5 33 -8 15 -8 19 0 15 6 -4
11 -2 11 4 0 6 4 9 8 6 4 -2 9 4 9 15 1 10 -3 19 -8 19 -6 0 -7 4 -4 10 3 6
-1 7 -9 4 -9 -3 -16 -10 -16 -16 0 -5 5 -6 12 -2 7 5 8 3 3 -6 -6 -9 -4 -11 5
-5 9 5 11 4 6 -3 -11 -18 -24 -14 -32 11 -17 49 -12 79 11 71 8 -3 11 -12 8
-21 -5 -12 -7 -12 -14 -1 -6 9 -9 9 -9 1 0 -22 19 -24 30 -3 8 16 8 22 -3 26
-13 5 -17 16 -18 56 0 18 -47 54 -57 44 -3 -3 0 -6 6 -6 7 0 11 -6 10 -12 -2
-7 5 -12 15 -12 19 2 23 -11 5 -22 -8 -5 -6 -11 6 -19 14 -11 15 -14 1 -25
-10 -9 -15 -9 -16 -1 -3 21 -4 26 -14 41 -9 15 -11 19 -18 50 -1 8 -9 26 -17
40 -7 14 -13 26 -12 28 1 1 2 3 1 5 0 1 -2 9 -4 17 -8 38 -11 45 -18 51 -5 3
-9 12 -10 20 -2 8 -7 20 -11 28 -5 8 -5 12 0 9 5 -3 14 0 21 7 10 10 9 14 -3
19 -24 9 -31 7 -14 -4 8 -5 10 -10 4 -10 -6 0 -17 7 -24 15 -12 14 -7 19 13
16 5 -1 6 3 2 9 -3 5 2 10 12 11 10 0 13 3 6 5 -7 3 -22 0 -34 -6 -17 -10 -20
-10 -13 2 5 7 9 18 10 23 1 6 6 19 10 30 7 17 6 18 -8 5 -9 -8 -14 -23 -12
-32 1 -10 -2 -18 -7 -18 -5 0 -9 6 -8 13 4 30 -2 48 -13 41 -7 -4 -8 -3 -4 5
4 6 3 18 -4 26 -8 10 -8 15 1 21 8 4 9 3 5 -5 -5 -7 -2 -10 6 -9 7 2 12 -3 10
-9 -1 -7 2 -13 8 -13 18 0 11 25 -11 38 -16 10 -18 16 -9 27 9 10 9 19 0 32
-10 16 -10 15 -5 -4 5 -18 3 -22 -9 -17 -9 3 -13 10 -10 15 3 5 -1 6 -9 3 -8
-3 -20 2 -27 11 -7 8 -9 15 -5 15 4 0 2 6 -4 14 -9 11 -9 16 0 22 8 5 9 3 4
-6 -5 -8 -4 -11 3 -6 7 4 10 -1 7 -14 -2 -11 1 -22 6 -26 5 -3 8 0 7 7 -2 6 3
14 11 17 9 3 11 0 6 -8 -5 -9 -4 -11 3 -6 17 10 15 26 -4 26 -9 0 -12 5 -8 13
4 6 4 9 -1 5 -10 -9 -35 10 -35 25 0 7 4 7 12 -1 15 -15 28 -15 28 -1 0 5 -4
8 -9 4 -6 -3 -14 3 -20 12 -6 11 -11 13 -11 5 0 -7 -5 -10 -12 -6 -7 5 -5 12
8 22 14 11 15 13 3 9 -9 -3 -23 0 -30 6 -11 10 -11 9 0 -5 8 -10 9 -18 3 -18
-12 0 -21 21 -15 38 4 10 8 10 21 0 15 -11 15 -11 5 3 -7 9 -9 20 -5 25 4 5
-2 1 -14 -8 -26 -22 -49 -6 -33 24 6 12 6 18 -1 18 -5 0 -10 -5 -10 -12 0 -6
-3 -8 -6 -5 -4 4 -1 13 6 22 11 13 10 14 -6 8 -17 -6 -18 -5 -4 12 14 17 13
18 -2 12 -24 -9 -59 48 -48 78 5 12 5 27 1 34 -6 10 -10 9 -14 -4 -5 -10 -3
-14 5 -9 7 4 8 3 4 -4 -12 -20 -28 -13 -21 9 5 14 4 19 -4 15 -7 -5 -9 -1 -5
8 3 9 10 14 14 11 5 -3 6 4 3 15 -4 15 -12 19 -30 15 -19 -3 -26 1 -30 15 -3
11 -9 18 -13 15 -15 -9 -19 25 -5 39 22 22 18 32 -4 12 -12 -11 -21 -14 -26
-7 -3 6 -3 11 2 11 4 0 3 4 -2 8 -14 9 -58 72 -51 72 2 0 -17 23 -44 52 -27
29 -46 56 -44 60 3 5 10 6 15 2 5 -3 6 -10 3 -16 -4 -7 -2 -8 5 -4 6 4 9 12 6
17 -4 5 0 9 7 9 10 0 10 2 -1 9 -8 5 -20 7 -27 4 -15 -6 -54 26 -54 45 0 7 5
10 10 7 6 -4 8 -10 6 -14 -3 -4 3 -12 13 -18 14 -9 18 -8 18 3 0 7 -4 11 -9 8
-4 -3 -8 0 -8 6 0 13 -40 49 -54 50 -6 0 -2 -6 9 -13 14 -11 15 -16 5 -22 -8
-5 -11 -4 -7 2 4 6 0 14 -9 17 -13 5 -14 9 -4 21 7 8 17 12 24 8 6 -3 7 -2 3
3 -5 5 -14 9 -20 9 -7 1 -10 7 -9 15 2 8 1 12 -3 8 -4 -4 -14 -1 -22 7 -8 8
-20 15 -26 15 -7 0 -1 -9 13 -20 14 -11 20 -20 14 -20 -10 0 -79 70 -79 80 0
3 -12 17 -28 33 -21 20 -27 33 -22 50 7 22 7 22 -10 2 -14 -17 -16 -18 -11 -2
4 12 1 17 -8 15 -19 -4 -78 62 -71 79 15 36 14 45 -1 19 -16 -29 -17 -29 -31
-10 -8 10 -19 18 -24 16 -5 -1 -8 1 -7 5 3 8 -43 58 -53 58 -6 0 -28 19 -98
85 -20 19 -41 37 -46 40 -6 2 -9 10 -7 17 2 7 -2 13 -8 13 -6 0 -8 5 -4 12 4
7 3 8 -4 4 -6 -4 -9 -14 -6 -24 2 -9 -1 -7 -7 6 -7 12 -16 22 -21 22 -5 0 -6
-6 -3 -12 4 -7 -7 1 -23 19 -17 17 -33 29 -36 26 -3 -3 -8 2 -12 11 -3 9 -12
16 -20 16 -8 0 -14 5 -14 11 0 5 5 7 12 3 7 -4 8 -3 4 4 -4 6 -13 9 -21 6 -14
-6 -135 70 -135 85 0 5 -8 8 -17 7 -10 0 -18 6 -18 14 -1 17 -24 60 -25 45 0
-6 5 -16 12 -23 9 -9 9 -12 -3 -12 -9 0 -21 10 -28 23 -6 12 -9 14 -7 5 3 -12
1 -15 -9 -11 -8 3 -12 9 -9 14 3 5 0 9 -6 9 -6 0 -9 4 -6 8 3 5 -1 9 -9 9 -8
0 -12 -4 -9 -9 3 -4 1 -8 -4 -8 -6 0 -12 7 -16 15 -3 8 0 15 6 15 6 0 8 3 5 6
-4 4 -14 1 -24 -7 -15 -12 -16 -12 -11 2 5 12 1 15 -17 11 -17 -3 -25 2 -30
17 -3 12 -11 21 -16 21 -6 0 -8 -4 -5 -9 3 -4 -12 1 -34 11 -22 11 -40 24 -40
29 0 5 -9 9 -20 9 -11 0 -20 5 -20 11 0 5 -4 8 -8 5 -15 -9 -134 54 -129 69 6
14 -9 15 -30 2 -8 -5 -13 -3 -13 7 0 9 -5 16 -11 16 -5 0 -7 -4 -4 -10 3 -6
-1 -7 -9 -4 -9 3 -16 11 -16 16 0 6 -7 7 -16 4 -12 -4 -15 -2 -10 9 3 8 1 15
-4 15 -6 0 -10 -4 -10 -9 0 -5 -9 -7 -20 -4 -11 3 -20 10 -20 15 0 6 7 7 16 4
8 -3 12 -2 9 3 -3 6 -14 9 -25 8 -10 -1 -16 -5 -13 -11 4 -5 1 -6 -8 0 -14 9
-19 10 -40 13 -6 0 -9 7 -6 15 3 8 0 17 -8 20 -9 3 -12 0 -9 -9 4 -10 0 -12
-15 -8 -12 3 -21 8 -21 12 0 4 -10 8 -22 8 -13 1 -24 7 -26 12 -2 5 -10 7 -18
4 -13 -5 -19 8 -15 30 1 5 -3 6 -9 2 -6 -3 -8 -11 -5 -16 4 -5 -1 -9 -9 -9 -9
0 -16 5 -16 10 0 6 -12 10 -26 10 -19 0 -25 4 -21 15 4 8 1 17 -5 21 -6 4 -8
3 -5 -3 4 -6 0 -13 -8 -17 -8 -3 -15 -1 -15 4 0 5 -6 7 -14 4 -8 -3 -28 2 -45
11 -17 8 -31 13 -31 10 0 -3 -10 0 -22 7 -13 7 -31 13 -40 14 -10 1 -21 3 -25
4 -5 1 -11 2 -15 1 -5 0 -8 3 -8 8 0 5 -9 7 -20 4 -12 -3 -20 0 -20 6 0 7 -4
9 -10 6 -6 -3 -10 -2 -10 3 0 5 -13 8 -30 6 -23 -3 -30 0 -30 14 0 10 -3 13
-8 6 -5 -8 -24 -6 -65 5 -32 9 -56 19 -53 22 3 3 -1 6 -9 6 -8 0 -12 -4 -9 -9
3 -4 0 -8 -5 -8 -6 0 -11 5 -11 11 0 5 -4 8 -9 4 -5 -3 -12 3 -14 12 -4 16 -5
16 -6 -1 -1 -20 -1 -20 -17 0 -8 10 -13 13 -9 7 3 -7 1 -13 -4 -13 -6 0 -11 6
-11 13 0 9 -2 9 -9 -1 -6 -11 -11 -10 -25 3 -9 9 -16 11 -16 5 0 -6 -5 -8 -10
-5 -6 4 -7 11 -4 17 5 7 2 8 -7 2 -22 -14 -39 -13 -39 1 0 8 -4 17 -10 20 -6
3 -7 -1 -4 -10 5 -13 2 -15 -22 -9 -16 4 -35 7 -42 7 -8 0 -10 7 -7 16 5 13 4
14 -6 4 -18 -18 -46 -16 -58 5 -6 9 -11 11 -11 5 0 -7 -9 -13 -21 -13 -13 0
-18 4 -13 12 5 7 3 8 -5 4 -15 -10 -103 2 -97 13 3 4 -1 8 -9 8 -8 0 -12 -4
-9 -9 6 -10 -10 -11 -20 -1 -7 8 -13 8 -79 11 -21 1 -36 6 -33 10 3 5 -1 9 -9
9 -8 0 -12 -4 -9 -9 6 -10 -26 1 -44 15 -9 7 -16 7 -23 0 -15 -15 -58 -3 -74
20 -8 12 -15 17 -15 11 0 -5 5 -15 12 -22 9 -9 8 -12 -4 -12 -9 0 -20 5 -23
10 -3 6 -18 7 -32 4 -21 -6 -24 -4 -18 7 7 12 6 12 -7 1 -10 -8 -19 -9 -22 -3
-3 5 -16 7 -28 3 -16 -4 -19 -2 -13 9 7 11 6 12 -6 3 -11 -8 -84 -12 -84 -4 0
1 -34 4 -75 7 -41 3 -78 10 -82 16 -6 9 -8 9 -8 0 0 -7 -5 -13 -11 -13 -5 0
-7 6 -3 13 5 7 0 6 -11 -3 -17 -14 -18 -13 -12 2 3 10 2 20 -4 23 -5 4 -9 3
-8 -2 5 -30 -2 -35 -23 -17 -12 10 -18 14 -15 7 6 -9 -11 -11 -65 -7 -40 3
-96 5 -125 4 -28 -1 -54 4 -58 10 -3 6 -11 7 -18 3 -14 -8 -67 -12 -67 -4 0 3
-55 6 -122 5 -80 -1 -126 3 -130 10 -5 8 -8 7 -8 -1 0 -7 -7 -13 -16 -13 -9 0
-12 5 -8 12 5 7 3 8 -7 2 -18 -11 -109 -12 -115 -2 -3 5 -13 5 -22 0 -19 -9
-193 -8 -217 2 -9 3 -14 2 -11 -2 5 -9 -219 -6 -235 4 -7 4 -10 3 -6 -2 6 -11
-216 -9 -234 2 -7 4 -10 3 -6 -2 6 -11 -216 -9 -234 2 -7 4 -10 3 -6 -2 3 -5
-177 -9 -439 -9 -289 0 -444 3 -444 10 0 6 -5 3 -10 -5 -8 -12 -11 -13 -19 -1
-6 9 -11 10 -15 2 -4 -7 -15 -7 -30 -1 -13 5 -27 6 -30 3 -3 -4 -6 -1 -6 5 0
13 27 12 48 -1 6 -5 12 -4 12 1 0 6 -7 13 -16 16 -9 3 -12 11 -8 18 6 10 4 10
-8 0 -11 -9 -18 -10 -23 -2 -10 16 3 29 24 23 11 -3 21 2 25 13 5 13 4 15 -8
5 -31 -26 -42 -4 -42 87 1 87 8 106 37 97 9 -3 16 1 16 8 0 9 -7 12 -19 9 -10
-2 -18 1 -18 7 0 6 6 11 14 11 8 0 17 7 20 16 5 14 4 15 -8 5 -31 -26 -42 -4
-42 87 1 87 8 106 37 97 9 -3 16 1 16 8 0 9 -7 12 -19 9 -10 -2 -18 1 -18 7 0
6 6 11 14 11 8 0 17 7 20 16 5 14 4 15 -8 5 -30 -25 -42 -4 -41 73 0 41 3 78
8 82 12 12 8 26 -5 18 -10 -6 -10 -4 0 8 10 13 10 17 0 22 -10 5 -10 7 0 12 6
3 9 11 5 17 -10 15 -11 57 -2 51 4 -2 9 -1 12 3 2 5 3 3 1 -3 -1 -6 4 -11 12
-11 7 0 11 4 8 9 -3 4 -2 14 3 21 4 6 8 21 10 32 1 11 -1 14 -3 8 -3 -7 -12
-13 -19 -13 -8 0 -16 -4 -19 -9 -4 -5 4 -7 16 -4 13 3 20 2 15 -2 -4 -5 -16
-10 -26 -12 -15 -2 -18 5 -17 41 1 25 4 48 9 52 12 12 8 26 -5 18 -10 -6 -10
-4 0 8 10 13 10 17 0 20 -8 3 -7 6 4 11 13 4 16 1 13 -14 -2 -10 1 -19 6 -19
6 0 7 -4 4 -10 -3 -5 -1 -10 6 -10 13 0 3 -14 -12 -16 -5 -1 -12 -2 -15 -3 -4
0 0 -9 7 -18 10 -11 10 -14 2 -9 -7 4 -13 2 -13 -3 0 -6 7 -11 16 -11 10 0 14
6 11 15 -4 8 -2 17 3 20 4 3 10 -1 13 -7 2 -7 4 3 3 24 -1 20 -4 34 -7 32 -12
-7 -18 23 -6 35 6 6 12 21 13 33 2 13 0 17 -2 11 -3 -7 -12 -13 -19 -13 -8 0
-16 -4 -19 -9 -4 -5 4 -7 16 -4 13 3 20 2 15 -2 -4 -5 -16 -10 -26 -12 -15 -2
-18 5 -17 41 1 25 4 48 9 52 12 12 8 26 -5 18 -9 -5 -9 -2 1 9 7 9 10 17 5 17
-5 0 -10 16 -11 35 -1 21 2 33 8 30 5 -4 7 -9 5 -13 -2 -4 6 -7 19 -7 13 0 21
3 18 8 -2 4 -9 7 -14 7 -12 0 -39 25 -39 37 0 4 -897 7 -1993 5 -2165 -4
-2076 -4 -2087 3 -4 2 -10 2 -13 -1z m4109 -734 c0 -12 -4 -16 -9 -11 -5 5 -6
14 -3 20 10 15 12 14 12 -9z m0 -240 c0 -12 -4 -16 -9 -11 -5 5 -6 14 -3 20
10 15 12 14 12 -9z m6239 -1780 c3 -5 -1 -10 -10 -10 -9 0 -13 5 -10 10 3 6 8
10 10 10 2 0 7 -4 10 -10z m312 -424 c-5 -16 -27 -19 -27 -3 0 7 7 14 15 14 9
0 14 -5 12 -11z m163 -316 c7 -14 7 -20 0 -20 -5 0 -10 6 -10 14 0 8 -6 17
-12 19 -10 4 -10 6 -1 6 7 1 17 -8 23 -19z m55 -108 c14 -10 17 -32 5 -32 -5
0 -10 6 -10 14 0 8 -6 17 -12 19 -7 3 -8 6 -3 6 6 0 15 -3 20 -7z m-11423
-587 c5 -6 8 -6 8 0 0 6 23 11 50 12 37 1 49 -1 43 -10 -5 -9 -3 -9 8 -1 17
13 58 13 78 0 10 -6 12 -6 7 2 -10 16 36 16 53 0 8 -7 11 -8 8 -2 -4 8 36 11
133 11 120 -1 140 -3 141 -16 1 -9 2 -1403 3 -3098 1 -3201 2 -3093 -35 -3093
-6 0 -7 6 -3 13 6 9 5 9 -8 0 -19 -16 -100 -15 -91 1 3 6 0 5 -8 -1 -7 -7 -34
-13 -59 -13 -25 0 -52 6 -59 13 -9 7 -11 8 -7 0 4 -8 -11 -11 -54 -11 -33 1
-58 4 -55 8 2 4 -2 7 -10 7 -8 0 -12 -4 -8 -9 8 -13 -110 -7 -119 6 -5 8 -8 7
-8 -1 0 -7 -7 -13 -15 -13 -8 0 -15 6 -15 13 0 8 -3 8 -8 2 -8 -12 -27 -13
-38 -3 -4 4 -12 4 -18 1 -19 -12 -36 -12 -36 0 0 8 -3 8 -8 2 -10 -14 -32 -17
-32 -4 0 8 -4 8 -14 0 -8 -7 -16 -8 -19 -4 -3 4 -42 8 -86 8 -45 0 -81 2 -81
5 0 3 -25 4 -56 2 -32 -1 -53 1 -50 7 4 5 -7 6 -27 1 -18 -4 -43 -3 -55 1 -12
5 -22 5 -23 1 0 -4 -4 2 -9 13 -7 15 -9 16 -9 4 -1 -12 -8 -15 -26 -11 -15 2
-22 9 -18 16 4 6 -1 5 -10 -3 -14 -11 -17 -11 -18 0 0 8 -3 9 -5 4 -2 -6 -22
-9 -44 -7 -22 2 -38 7 -36 11 3 3 -13 6 -35 5 -21 0 -39 2 -39 6 0 4 -14 6
-30 5 -17 -1 -33 1 -35 6 -3 4 -13 5 -23 2 -15 -6 -16 -5 -2 13 14 18 14 18
-6 1 -11 -9 -23 -14 -26 -11 -4 3 -21 8 -40 11 -18 2 -35 9 -37 15 -2 6 -7 5
-12 -3 -6 -10 -9 -10 -9 -2 0 7 -7 10 -16 6 -11 -4 -22 1 -30 12 -8 10 -14 13
-14 7 0 -7 -5 -12 -11 -12 -5 0 -7 4 -4 10 3 5 0 7 -8 4 -8 -3 -17 2 -21 12
-4 12 -10 13 -19 6 -16 -14 -97 7 -97 24 0 7 -4 16 -10 19 -5 3 -7 0 -4 -8 3
-8 -2 -14 -11 -14 -8 0 -15 7 -15 16 0 12 -2 13 -8 3 -7 -10 -15 -10 -38 -1
-16 7 -32 12 -36 11 -5 -1 -8 3 -8 9 0 6 -6 9 -12 6 -22 -7 -48 12 -41 31 5
16 5 16 -8 0 -13 -16 -16 -16 -49 -1 -19 10 -36 21 -38 25 -2 4 -10 8 -18 8
-16 0 -56 20 -65 33 -3 5 -10 9 -15 10 -5 1 -8 8 -6 17 3 11 0 11 -10 -3 -13
-17 -14 -17 -36 3 -12 11 -22 18 -22 15 0 -3 -9 -1 -20 5 -11 6 -18 16 -14 21
3 6 11 3 18 -7 10 -13 15 -14 21 -4 5 8 4 11 -2 7 -6 -4 -14 0 -17 8 -4 13
-10 14 -26 5 -16 -9 -21 -8 -25 5 -3 8 -7 22 -10 31 -3 8 -9 12 -15 9 -5 -3
-10 2 -11 12 0 15 -2 14 -9 -4 -6 -15 -15 -21 -25 -17 -18 7 -20 31 -3 36 8 3
6 7 -5 11 -9 3 -19 1 -23 -5 -5 -7 -2 -8 6 -3 9 5 11 4 6 -4 -4 -6 -12 -9 -17
-5 -5 3 -6 10 -3 16 5 7 2 9 -8 5 -10 -3 -30 8 -53 29 -21 19 -43 34 -49 34
-6 0 -4 5 4 10 13 8 12 10 -3 10 -9 0 -31 14 -49 30 -31 30 -31 30 -12 52 l19
21 -25 -16 c-29 -18 -54 -9 -44 16 3 9 9 15 13 12 4 -2 8 2 8 10 0 13 -3 13
-17 0 -9 -8 -23 -15 -31 -14 -10 0 -10 2 -1 6 6 2 12 9 12 14 0 6 -6 9 -12 7
-7 -1 -25 10 -40 25 -25 25 -26 32 -5 28 5 -1 6 3 2 9 -3 6 -11 8 -16 5 -5 -4
-9 -1 -9 4 0 6 -6 11 -12 11 -11 0 -47 51 -47 66 0 3 -10 14 -23 25 -13 11
-17 18 -10 14 6 -3 12 -2 12 4 0 5 -9 13 -20 16 -18 6 -22 11 -19 31 0 3 -7
11 -17 18 -9 7 -14 18 -10 24 4 7 3 12 -3 12 -6 0 -15 10 -22 21 -8 15 -8 19
0 15 21 -14 11 6 -14 26 -14 11 -23 23 -20 28 3 5 -1 11 -7 14 -8 3 -7 5 2 3
9 -1 23 5 31 13 15 13 14 16 -13 33 -26 15 -28 20 -16 34 9 12 9 15 1 9 -7 -4
-13 -2 -13 3 0 6 -4 11 -8 11 -5 0 -9 -7 -9 -15 0 -8 5 -11 10 -8 6 3 7 1 3
-5 -3 -6 1 -17 9 -25 11 -12 12 -17 2 -21 -6 -3 -2 -3 10 0 18 4 22 2 17 -10
-5 -12 -10 -13 -25 -5 -11 5 -17 14 -14 18 3 5 -2 12 -10 15 -8 3 -14 9 -13
13 1 4 -4 19 -11 31 -7 13 -10 26 -7 29 3 4 0 13 -7 21 -8 10 -8 13 -1 9 7 -4
15 1 20 11 9 20 14 55 6 47 -3 -3 -16 5 -28 16 -23 22 -24 39 -2 39 6 0 8 -3
5 -7 -9 -8 12 -33 27 -33 6 0 3 5 -6 10 -10 6 -15 19 -13 30 4 23 -5 26 -23 8
-16 -16 -16 4 1 22 6 8 8 11 3 7 -5 -4 -17 0 -26 8 -14 13 -17 13 -17 0 0 -8
5 -11 10 -8 6 4 7 1 2 -7 -5 -8 -4 -11 2 -7 6 4 9 -4 7 -19 -1 -15 6 -32 18
-44 l21 -19 -21 2 c-11 0 -20 4 -20 7 2 8 -14 64 -21 75 -10 14 -8 36 2 33 10
-3 31 31 24 38 -9 10 -47 13 -42 3 4 -5 10 -7 15 -4 5 3 11 1 15 -5 3 -5 -1
-10 -9 -10 -9 0 -19 -1 -23 -2 -4 -2 -8 11 -10 27 -6 52 -6 55 -13 55 -4 0 -7
7 -7 15 0 8 4 12 8 9 4 -2 10 2 12 8 3 7 4 -2 2 -20 -2 -18 1 -30 6 -27 5 4 6
-2 2 -11 -5 -13 -2 -16 9 -12 9 4 20 2 25 -3 6 -6 10 -4 10 6 0 8 -2 13 -5 11
-5 -6 -42 26 -42 37 0 5 6 4 13 -2 10 -8 14 -7 14 4 0 8 -3 13 -5 10 -3 -3
-11 3 -17 12 -10 14 -10 22 2 43 10 16 10 20 2 9 -8 -9 -20 -14 -26 -12 -7 3
-13 0 -13 -7 0 -6 4 -9 8 -6 5 3 9 -1 9 -9 0 -8 -4 -15 -8 -15 -8 0 -15 20
-24 66 -2 10 -4 20 -4 22 -1 1 -1 5 -2 10 0 4 -5 13 -11 20 -10 11 -4 16 15
13 5 -1 6 3 2 9 -3 5 0 13 9 16 8 3 17 13 20 21 5 13 4 14 -8 4 -12 -10 -17
-8 -25 8 -7 12 -7 22 -2 26 5 3 12 -3 14 -12 4 -14 5 -14 6 3 0 12 -6 25 -15
28 -14 5 -14 9 -3 22 18 22 19 41 3 55 -8 6 -11 15 -8 20 3 5 0 9 -6 9 -6 0
-8 6 -4 13 4 6 3 9 -1 4 -13 -12 -12 -55 1 -50 7 2 15 -1 19 -7 4 -7 -2 -9
-19 -6 -14 2 -27 -1 -29 -7 -3 -7 -4 4 -2 25 1 20 5 41 9 46 3 6 1 14 -5 18
-7 4 -9 3 -5 -4 3 -6 3 -13 -2 -16 -4 -2 -9 12 -10 32 -1 32 -8 92 -11 100 -1
1 -2 5 -3 9 -6 13 33 11 47 -4 8 -8 15 -10 15 -4 0 5 -8 15 -17 20 -14 8 -15
11 -3 11 12 0 12 3 -2 11 -14 8 -15 15 -7 36 6 17 6 30 -1 38 -6 7 -7 15 -3
17 4 3 2 3 -6 1 -8 -2 -11 2 -8 11 3 8 0 19 -7 25 -9 8 -13 7 -13 -4 0 -8 3
-12 7 -10 4 2 6 -16 5 -42 -2 -28 1 -40 6 -32 13 20 11 1 -2 -23 -6 -11 -7
-18 -2 -15 5 4 10 0 10 -7 0 -8 -6 -12 -12 -10 -11 5 -14 19 -17 104 -1 19 -6
38 -12 42 -8 5 -7 8 1 8 6 0 10 8 8 18 -2 9 -4 17 -5 17 -1 0 -3 18 -5 40 -1
22 -4 40 -5 40 -1 0 -3 41 -5 90 -3 91 1 129 13 121 4 -2 18 2 32 11 17 9 18
12 5 8 -11 -4 -24 -8 -30 -9 -5 -1 -15 -5 -21 -8 -7 -5 -10 10 -9 43 1 27 -2
52 -7 55 -5 3 -3 13 4 21 16 19 16 17 1 34 -10 12 -8 15 7 15 15 0 19 -6 15
-23 -2 -13 1 -23 8 -23 9 0 9 -2 1 -8 -6 -4 -10 -15 -8 -25 1 -9 -1 -15 -5
-13 -4 3 -7 -10 -7 -28 0 -27 4 -32 18 -28 10 2 18 7 19 11 0 3 2 14 4 23 2 9
-3 19 -11 22 -11 4 -12 11 -5 24 5 10 6 24 1 32 -12 20 9 60 29 53 9 -4 13 -3
9 1 -5 6 -22 11 -48 15 -3 1 -6 10 -7 20 -1 15 3 18 15 14 13 -4 12 -2 -3 10
l-20 16 20 1 c18 1 19 1 3 11 -10 5 -18 18 -18 27 1 15 2 15 15 -2 8 -11 15
-15 15 -9 0 7 -8 19 -17 29 -16 16 -16 18 5 34 24 20 28 31 10 27 -7 -1 -13 8
-14 21 -1 12 -3 24 -4 27 -8 15 -5 32 8 48 9 9 12 20 9 24 -4 3 -7 1 -7 -6 0
-7 -4 -9 -10 -6 -6 4 -3 17 7 33 9 15 13 24 8 20 -4 -4 -14 -3 -22 3 -15 13
-15 13 -18 -18 -1 -12 1 -21 4 -19 3 3 6 -34 6 -80 0 -46 -4 -84 -9 -84 -4 0
-3 -6 3 -14 9 -10 9 -16 1 -21 -7 -5 -8 -11 -1 -19 11 -14 9 -42 -5 -56 -5 -5
-9 75 -9 215 0 123 3 221 7 218 5 -2 5 -10 1 -16 -5 -8 -2 -8 9 0 8 7 18 10
21 6 4 -3 7 -1 7 6 0 7 -6 11 -14 8 -8 -3 -18 2 -22 11 -12 28 -12 61 1 66 6
2 12 -2 12 -10 0 -8 -5 -14 -10 -14 -5 0 -4 -6 2 -13 6 -8 7 -17 3 -22 -4 -4
6 0 21 10 15 10 25 20 23 23 -3 3 -12 -1 -21 -8 -9 -7 -15 -8 -15 -2 0 6 12
20 28 32 18 14 20 18 6 11 -24 -11 -34 -6 -34 18 0 14 2 14 10 1 8 -13 10 -12
10 3 0 9 -6 17 -12 18 -9 0 -9 2 1 6 11 5 11 7 0 14 -11 7 -9 9 6 9 18 1 19 1
3 11 -10 5 -18 15 -18 21 0 7 4 7 14 -1 10 -9 15 -8 19 2 4 11 -2 13 -23 11
-16 -2 -32 1 -35 6 -3 6 -2 10 2 10 5 0 9 9 10 20 1 11 -2 18 -6 16 -9 -6 -7
31 2 40 12 12 8 26 -5 18 -7 -4 -8 -3 -4 5 4 6 12 9 17 6 5 -4 9 -2 9 4 0 5
-5 11 -12 13 -8 3 -7 6 4 10 12 5 15 -1 13 -33 -1 -21 2 -39 7 -39 5 0 6 -5 2
-11 -4 -8 -9 -7 -15 2 -5 8 -9 9 -9 3 0 -6 8 -18 17 -25 14 -12 16 -12 8 0 -6
10 -4 13 6 9 10 -4 15 1 15 12 0 10 -4 16 -8 14 -4 -3 -8 -3 -8 0 0 2 -3 13
-7 23 -6 15 -4 16 8 6 13 -10 16 -10 16 2 0 8 -4 12 -8 10 -4 -3 -10 2 -13 11
-5 12 -2 15 11 10 16 -5 16 -5 0 8 -11 8 -25 12 -31 10 -8 -3 -13 6 -13 26 0
20 3 26 9 18 5 -9 8 -6 8 10 0 13 -4 21 -8 18 -7 -4 -9 44 -2 52 7 7 4 28 -5
34 -7 5 -7 8 0 8 6 0 10 25 10 58 0 37 4 59 11 59 11 0 11 -23 -1 -82 -4 -22
-3 -26 5 -15 7 11 10 11 10 2 0 -7 5 -10 11 -6 8 5 6 10 -5 16 -13 8 -14 13
-4 31 7 12 11 26 10 31 -2 5 4 6 12 3 9 -4 18 -1 22 5 4 6 3 8 -3 5 -14 -9
-57 25 -61 47 -3 13 1 17 12 13 20 -8 32 11 17 26 -9 9 -11 8 -8 -3 2 -8 2
-12 0 -7 -3 4 -8 5 -12 2 -9 -5 -9 34 0 50 3 6 5 26 4 47 0 20 3 34 8 31 4 -2
5 9 2 26 -3 16 -1 32 4 35 4 3 7 -5 6 -17 -2 -16 2 -23 16 -23 11 0 19 4 19 8
0 4 -7 8 -15 8 -19 0 -19 14 -1 29 10 8 16 9 21 1 3 -5 10 -10 16 -10 5 0 -1
10 -14 23 -12 12 -25 21 -29 19 -5 -1 -8 3 -8 9 0 5 -5 7 -12 3 -7 -5 -8 -3
-2 7 5 8 9 25 9 38 0 13 7 26 15 28 13 4 13 3 0 -7 -12 -9 -13 -12 -1 -17 11
-5 11 -7 0 -14 -12 -7 -11 -9 1 -9 13 0 13 -1 0 -10 -13 -8 -13 -10 2 -10 9 0
20 5 23 10 3 6 2 10 -3 10 -11 0 -12 32 0 47 11 13 0 22 -25 18 -11 -2 -14 1
-10 8 4 7 8 15 9 20 1 4 2 8 4 10 8 10 6 37 -2 37 -6 0 -4 8 5 18 10 10 14 21
11 24 -3 4 -1 15 5 27 8 13 8 22 1 26 -6 4 -7 12 -3 18 4 7 8 16 8 21 0 5 7
11 15 13 13 4 13 3 0 -7 -13 -10 -12 -11 3 -6 12 4 17 2 14 -6 -2 -7 -9 -12
-14 -11 -5 1 -10 -5 -10 -13 0 -22 11 -17 29 14 18 31 8 55 -18 45 -8 -3 -14
0 -14 7 0 6 5 8 11 5 7 -5 9 3 6 24 -3 17 -2 33 3 36 4 3 6 14 3 25 -3 11 -1
20 5 20 6 0 9 8 7 18 -1 9 0 22 4 27 3 6 6 13 7 18 1 4 2 8 4 10 2 3 11 40 12
54 1 6 10 11 20 10 11 -1 16 -7 13 -15 -2 -7 0 -10 5 -7 6 4 8 18 5 32 -4 25
16 68 28 57 8 -8 3 18 -6 34 -12 18 3 15 27 -5 19 -16 19 -16 7 -1 -7 9 -9 23
-5 29 4 7 3 10 -2 7 -5 -3 -17 -8 -28 -12 -14 -5 -16 -9 -7 -20 10 -11 9 -16
-4 -24 -9 -5 -16 -13 -15 -18 1 -5 -3 -10 -9 -12 -14 -5 -15 15 -1 23 5 3 7
12 4 19 -3 8 0 17 5 21 6 3 8 11 5 17 -5 7 -2 8 5 4 8 -5 12 -3 10 5 -3 26 1
49 9 49 4 0 8 -9 8 -19 0 -11 -5 -17 -10 -14 -5 4 -6 1 -1 -6 5 -9 10 -10 18
-2 7 7 15 7 22 1 8 -7 12 -5 12 4 0 9 -8 13 -19 11 -12 -3 -18 1 -15 8 2 7 10
12 18 12 8 0 14 10 15 21 1 12 4 26 7 31 4 6 0 19 -8 29 -11 13 -15 15 -13 4
2 -8 8 -18 13 -22 6 -5 5 -8 -3 -8 -7 0 -10 -4 -7 -10 3 -6 -1 -7 -9 -4 -19 7
-20 16 -4 32 7 7 9 12 4 12 -4 0 2 13 13 29 11 15 17 32 13 36 -4 5 -1 4 7 0
11 -6 13 -4 8 9 -4 10 -3 15 3 11 6 -3 20 1 32 9 12 9 18 16 12 16 -5 0 -15
-5 -21 -11 -8 -8 -13 -8 -18 0 -3 6 -1 10 6 9 6 -2 14 3 17 11 3 8 0 11 -7 7
-7 -5 -9 -1 -5 8 3 9 10 14 14 11 4 -3 11 10 14 29 4 19 13 37 22 40 8 3 13
10 10 14 -3 5 3 18 14 29 10 12 16 24 12 28 -4 4 0 5 8 3 9 -2 14 3 12 14 -1
9 7 23 18 31 11 7 17 16 14 19 -3 3 -1 9 5 12 5 4 13 1 17 -5 4 -7 3 -9 -3 -6
-5 3 -10 0 -10 -8 0 -22 9 -18 32 13 13 18 14 23 3 14 -13 -10 -17 -10 -22 3
-3 9 -2 13 4 10 6 -3 10 1 10 11 0 9 18 34 40 56 22 22 40 44 40 49 0 5 4 9 8
9 5 0 9 -7 9 -15 0 -8 -5 -11 -10 -8 -6 4 -7 1 -2 -7 5 -9 4 -11 -3 -6 -7 4
-12 2 -12 -3 0 -16 16 -13 30 4 7 8 9 15 5 15 -4 0 -2 7 5 15 7 9 19 14 27 11
8 -3 11 -2 8 3 -3 6 3 14 12 20 15 8 16 12 4 23 -8 7 -11 8 -8 2 4 -7 0 -17
-8 -24 -8 -7 -15 -9 -15 -4 0 4 -7 -1 -15 -12 -8 -10 -15 -14 -15 -9 0 14 90
100 113 108 10 4 15 12 12 17 -4 6 -1 9 7 8 7 -2 12 3 10 10 -2 10 2 10 19 2
17 -10 18 -14 8 -28 -11 -14 -11 -15 1 -5 7 7 15 23 17 35 2 16 0 19 -6 9 -5
-8 -11 -9 -15 -3 -3 6 2 13 13 17 11 3 22 12 25 20 3 8 16 15 29 15 14 0 31 7
38 17 13 15 12 15 -11 4 -23 -11 -24 -11 -6 3 10 9 23 13 27 10 5 -3 9 -1 9 5
0 5 24 24 52 41 29 18 48 26 43 18 -6 -7 -2 -5 8 5 9 11 17 15 17 11 0 -5 6
-2 13 8 7 9 22 18 32 20 11 1 26 9 34 16 7 7 19 11 26 8 8 -3 16 2 19 9 3 9
12 12 22 8 12 -4 15 -3 10 5 -5 8 0 12 13 12 12 0 21 4 21 9 0 14 44 21 52 8
5 -8 8 -7 8 5 0 23 22 28 37 9 10 -14 11 -14 10 2 -1 13 9 22 35 31 21 8 35
10 33 5 -3 -4 0 -11 6 -15 7 -4 9 -3 5 4 -10 16 21 41 44 35 11 -3 20 0 20 6
0 12 27 10 47 -2 9 -5 11 -3 7 6 -4 10 7 17 37 25 24 6 46 9 51 6 4 -3 8 0 8
7 0 7 10 9 25 7 14 -3 25 -2 25 3 0 8 9 9 67 11 18 1 30 5 27 9 -3 5 7 9 23
10 15 0 38 2 51 5 13 2 21 0 17 -5 -3 -5 -1 -13 5 -16 6 -4 10 -3 9 2 -5 27 3
35 26 31 14 -3 28 -1 31 3 10 16 26 9 20 -8 -5 -16 -5 -16 6 -2 20 24 41 28
63 10 18 -15 19 -15 7 0 -11 15 -8 17 23 21 19 2 40 -1 46 -7 9 -7 10 -7 6 1
-8 14 61 25 69 12 3 -5 12 -4 20 3 12 10 18 8 30 -7 9 -10 13 -13 9 -6 -12 24
6 34 28 15 11 -10 17 -13 14 -7 -9 16 10 22 61 20 23 -1 42 0 42 4 0 3 41 6
90 7 50 0 92 2 95 4 8 9 191 4 197 -6z m4727 1 c9 -6 12 -5 8 1 -4 7 56 10
178 9 119 0 185 -4 185 -11 0 -7 3 -7 8 0 8 12 103 15 96 3 -3 -4 0 -8 5 -8 6
0 11 5 11 11 0 5 5 7 12 3 6 -4 40 -6 76 -5 48 2 62 -1 56 -10 -5 -9 -3 -9 7
-3 15 9 89 13 89 4 0 -3 46 -6 103 -8 56 -1 111 -4 122 -7 11 -2 26 -4 33 -4
8 -1 10 -6 6 -13 -6 -10 -5 -10 7 -1 9 7 30 10 50 7 19 -3 45 -7 59 -8 14 -2
50 -7 80 -11 30 -5 61 -8 68 -6 6 1 12 -2 12 -6 0 -4 15 -9 33 -11 32 -2 72
-9 72 -12 0 -1 14 -3 30 -6 55 -8 64 -10 71 -17 4 -4 16 -7 27 -7 18 0 141
-33 177 -47 8 -3 24 -8 34 -10 11 -2 25 -8 33 -14 7 -6 13 -9 13 -5 0 11 83
-23 252 -104 465 -221 767 -605 928 -1176 17 -60 32 -118 35 -129 5 -25 32
-161 39 -200 8 -41 33 -227 41 -300 3 -33 8 -73 10 -90 10 -74 19 -222 30
-475 16 -367 0 -1043 -30 -1300 -3 -19 -7 -64 -10 -100 -17 -210 -86 -549
-148 -740 -150 -457 -400 -787 -757 -1002 -88 -52 -240 -130 -240 -123 0 3
-10 -1 -22 -9 -13 -8 -32 -16 -43 -18 -11 -2 -22 -5 -25 -8 -7 -7 -95 -39
-155 -56 -27 -8 -57 -16 -65 -19 -81 -24 -135 -35 -147 -31 -8 3 -11 1 -8 -4
3 -6 0 -10 -7 -11 -7 0 -22 -2 -33 -4 -11 -3 -33 -6 -50 -8 -16 -3 -37 -7 -45
-10 -30 -10 -161 -27 -171 -22 -5 4 -9 2 -9 -2 0 -5 -10 -9 -22 -10 -13 0 -39
-3 -58 -7 -53 -9 -165 -18 -257 -20 -44 0 -79 -4 -77 -8 2 -3 -13 -5 -33 -4
-21 1 -50 -1 -65 -5 -15 -4 -28 -3 -30 2 -2 5 -16 5 -36 0 -23 -7 -32 -6 -32
2 0 8 -3 8 -8 2 -8 -12 -52 -13 -69 -2 -6 4 -15 3 -18 -3 -5 -8 -12 -7 -23 2
-10 9 -13 9 -9 1 9 -15 -32 -14 -52 1 -11 8 -13 8 -8 0 4 -8 -9 -11 -43 -11
-34 0 -47 3 -43 11 4 6 0 6 -9 -1 -19 -16 -100 -15 -91 1 3 6 0 5 -8 -1 -17
-17 -101 -17 -118 0 -10 8 -12 8 -7 0 4 -8 -3 -11 -23 -11 -19 1 -28 5 -24 12
3 6 0 5 -8 -1 -7 -7 -19 -13 -27 -13 -8 0 -10 5 -6 13 5 7 1 7 -10 -2 -15 -13
-19 -13 -26 0 -6 8 -5 18 0 23 6 6 10 14 10 20 0 5 -6 1 -14 -9 -13 -18 -13
-17 -13 8 0 17 4 24 11 20 6 -4 5 0 -2 9 -9 12 -10 18 -2 23 6 4 9 12 7 18 -2
7 3 21 12 32 9 12 10 15 1 8 -19 -17 -35 -16 -21 1 9 11 8 15 -4 20 -18 7 -16
26 5 43 13 10 12 12 -5 10 -16 -1 -21 -8 -21 -33 0 -18 4 -30 8 -28 4 3 8 0 8
-5 0 -6 -5 -11 -11 -11 -6 0 -3 -7 5 -16 17 -17 22 -39 7 -29 -5 3 -13 0 -17
-6 -4 -7 -3 -9 3 -6 5 3 10 0 10 -8 0 -8 -5 -15 -10 -15 -5 0 -4 -6 2 -14 8
-10 9 -16 1 -21 -14 -8 -13 -26 1 -22 6 1 13 -4 15 -11 1 -7 0 -8 -3 -2 -3 7
-10 7 -21 -2 -10 -7 -14 -9 -10 -4 4 5 3 16 -2 26 -5 10 -6 21 -2 25 11 11 9
59 -2 68 -7 5 -4 7 7 3 18 -6 24 8 8 18 -5 3 -8 32 -7 63 1 32 -2 64 -8 72 -8
11 -8 13 2 7 9 -5 11 1 7 26 -4 25 -1 36 12 44 16 10 18 7 20 -18 1 -17 -2
-26 -8 -23 -5 4 -7 11 -4 16 4 5 2 9 -4 9 -5 0 -9 -9 -8 -19 0 -11 5 -17 10
-14 5 3 4 -5 -3 -18 -11 -24 -11 -24 9 1 26 32 26 89 0 87 -10 -1 -15 -5 -13
-9 3 -4 1 -8 -5 -8 -5 0 -8 12 -7 28 2 15 -1 35 -6 45 -6 12 -5 16 3 15 6 -2
14 3 16 10 3 7 1 12 -4 11 -17 -3 -24 1 -17 12 10 17 12 99 2 105 -4 3 -5 11
-1 17 10 16 11 29 2 48 -5 10 -3 16 4 17 7 1 23 3 36 4 14 2 25 10 27 21 1 9
-2 15 -7 11 -5 -3 -7 -9 -4 -14 3 -5 -7 -8 -22 -7 -24 2 -28 7 -28 32 0 17 -4
36 -9 44 -6 10 -5 12 2 7 9 -5 11 3 7 27 -4 25 -2 36 9 40 8 3 17 -1 20 -9 9
-24 7 -36 -4 -29 -6 4 -8 11 -5 16 4 5 2 9 -4 9 -5 0 -9 -9 -8 -19 0 -11 5
-17 10 -14 5 3 4 -5 -3 -18 -11 -24 -11 -24 9 1 22 26 24 64 6 89 -8 12 -6 13
10 8 19 -7 19 -6 2 7 -21 16 -19 33 8 60 12 12 14 15 4 8 -9 -7 -24 -10 -33
-6 -18 7 -22 -11 -6 -21 8 -5 7 -11 -1 -21 -9 -11 -8 -14 2 -14 11 0 11 -2 -1
-10 -11 -7 -11 -10 -2 -10 7 0 10 -4 7 -10 -10 -16 -23 -11 -20 8 1 9 -2 22
-7 29 -5 7 -5 14 2 18 7 4 7 12 0 25 -7 13 -7 21 0 25 5 3 10 15 10 26 0 13
-4 18 -12 13 -7 -4 -8 -3 -4 4 5 9 13 9 27 2 17 -10 24 -8 17 4 -2 2 6 14 17
27 l20 24 -26 -23 c-22 -19 -28 -21 -38 -8 -7 8 -9 28 -6 46 4 24 2 30 -7 24
-10 -6 -10 -5 -1 7 12 15 12 86 0 106 -4 6 -3 14 3 18 7 4 7 12 0 25 -7 13 -7
21 0 25 5 3 10 15 10 26 0 13 -4 18 -12 13 -7 -4 -8 -3 -4 4 5 9 13 9 27 2 17
-10 24 -8 17 4 -2 2 6 14 17 27 l20 24 -26 -23 c-22 -19 -28 -21 -38 -8 -7 8
-9 28 -6 46 4 24 2 30 -7 24 -11 -6 -11 -5 0 8 7 9 10 29 7 47 -3 19 -1 31 5
31 6 0 8 -4 5 -10 -3 -5 0 -10 7 -11 10 0 10 -2 -1 -6 -11 -4 -11 -7 0 -13 10
-7 10 -12 0 -23 -9 -11 -9 -17 0 -22 8 -6 8 -9 -1 -15 -6 -4 4 -7 22 -8 28 0
30 1 12 8 -30 12 -39 29 -19 36 13 5 13 9 3 22 -11 14 -10 15 7 9 19 -7 19 -6
3 7 -20 15 -25 41 -5 30 7 -5 6 0 -3 12 -27 35 -38 43 -45 36 -4 -4 -3 3 3 14
11 21 9 54 -4 76 -4 7 -3 8 4 4 7 -4 10 5 8 29 -2 19 0 35 5 35 5 0 9 8 9 18
0 13 -2 14 -9 3 -5 -8 -8 16 -7 60 1 41 -3 80 -8 88 -8 11 -8 13 2 7 9 -5 11
1 7 26 -4 25 -1 36 12 44 16 10 18 7 20 -18 1 -17 -2 -26 -8 -23 -5 4 -7 11
-4 16 4 5 2 9 -4 9 -5 0 -9 -9 -8 -19 0 -11 5 -17 10 -14 5 3 4 -5 -3 -18 -11
-24 -11 -24 9 1 26 32 26 89 0 87 -10 -1 -15 -5 -13 -9 3 -4 1 -8 -5 -8 -5 0
-8 12 -7 28 2 15 -1 35 -6 45 -6 12 -5 16 3 15 6 -2 14 3 16 10 3 7 1 12 -4
11 -18 -3 -24 1 -17 13 11 17 12 90 2 111 -6 12 -5 16 3 15 6 -2 14 3 16 10 3
7 1 12 -4 11 -17 -3 -24 1 -17 12 10 17 12 99 2 105 -5 3 -5 11 1 17 15 19 15
21 3 43 -8 16 -8 21 1 22 7 1 23 3 36 4 14 2 25 10 27 21 1 9 -2 15 -7 11 -5
-3 -7 -9 -4 -14 3 -5 -7 -8 -22 -7 -24 2 -28 7 -28 32 0 17 -4 36 -9 44 -6 10
-5 12 2 7 9 -5 11 2 7 26 -4 25 -1 36 12 44 16 10 18 7 20 -18 1 -17 -2 -26
-8 -23 -5 4 -7 11 -4 16 4 5 2 9 -4 9 -5 0 -9 -9 -8 -19 0 -11 5 -17 10 -14 5
3 4 -5 -3 -18 -11 -24 -11 -24 9 1 26 32 26 89 0 87 -10 -1 -15 -5 -13 -9 3
-4 1 -8 -5 -8 -5 0 -8 12 -7 28 2 15 -1 35 -6 45 -6 12 -5 16 3 15 6 -2 14 3
16 10 3 7 1 12 -4 11 -18 -3 -24 2 -17 13 11 17 12 71 1 85 -4 6 -3 14 3 18 7
4 7 12 0 25 -7 13 -7 21 0 25 5 3 10 15 10 26 0 13 -4 18 -12 13 -7 -4 -8 -3
-4 4 5 9 13 9 27 2 10 -6 19 -8 19 -5 0 15 3 22 18 40 13 15 10 14 -9 -3 -22
-19 -28 -21 -38 -8 -7 8 -9 28 -6 46 4 24 2 30 -7 24 -10 -6 -10 -5 -1 7 12
15 12 86 0 106 -4 6 -3 14 3 18 7 4 7 12 0 25 -7 13 -7 21 0 25 5 3 10 15 10
26 0 13 -4 18 -12 13 -7 -4 -8 -3 -4 4 5 9 13 9 27 2 10 -6 19 -8 19 -5 0 15
3 22 18 40 13 15 10 14 -9 -3 -22 -19 -28 -21 -38 -8 -7 8 -9 28 -6 46 4 24 2
30 -7 24 -10 -6 -10 -5 -1 7 7 8 10 36 8 67 -3 41 1 58 14 71 16 16 17 15 18
-16 1 -18 -3 -30 -8 -27 -5 3 -7 10 -4 15 4 5 2 9 -4 9 -5 0 -9 -9 -8 -19 0
-11 6 -17 12 -13 5 3 4 -2 -4 -11 -11 -14 -11 -17 0 -18 12 0 12 -1 0 -6 -11
-4 -11 -7 0 -13 10 -7 10 -12 0 -23 -9 -11 -9 -17 0 -22 8 -6 8 -9 -1 -15 -6
-4 4 -7 22 -8 28 0 30 1 12 8 -30 12 -39 29 -19 36 13 5 13 9 3 22 -11 14 -10
15 7 9 19 -7 19 -7 1 8 -16 12 -17 17 -6 30 7 8 10 24 7 35 -3 11 -1 23 5 26
10 6 -20 33 -37 34 -5 0 -3 -5 5 -10 11 -7 11 -10 2 -10 -7 0 -10 -4 -7 -10 3
-5 2 -10 -3 -10 -5 0 -9 33 -8 73 1 39 -3 78 -8 86 -8 11 -8 13 2 7 9 -5 11 1
7 26 -4 25 -1 36 12 44 16 10 18 7 20 -18 1 -17 -2 -26 -8 -23 -5 4 -7 11 -4
16 4 5 2 9 -4 9 -5 0 -9 -9 -8 -19 0 -11 5 -17 10 -14 5 3 4 -5 -3 -18 -11
-24 -11 -24 9 1 26 32 26 89 0 87 -10 -1 -15 -5 -13 -9 3 -4 1 -8 -5 -8 -5 0
-8 12 -7 28 2 15 -1 35 -6 45 -6 12 -5 16 3 15 6 -2 14 3 16 10 3 7 1 12 -4
11 -17 -3 -24 1 -17 12 10 17 12 99 2 105 -5 3 -5 11 1 17 15 19 15 21 3 43
-8 16 -8 21 1 22 7 1 23 3 36 4 14 2 25 10 27 21 1 9 -2 15 -7 11 -5 -3 -7 -9
-4 -14 3 -5 -7 -8 -22 -7 -24 2 -28 7 -28 32 0 17 -4 36 -9 44 -6 10 -5 12 2
7 9 -5 11 2 7 26 -4 25 -1 36 12 44 16 10 18 7 20 -18 1 -17 -2 -26 -8 -23 -5
4 -7 11 -4 16 4 5 2 9 -4 9 -5 0 -9 -9 -8 -19 0 -11 5 -17 10 -14 5 3 4 -5 -3
-18 -11 -24 -11 -24 9 1 26 32 26 89 0 87 -10 -1 -15 -5 -13 -9 3 -4 1 -8 -5
-8 -5 0 -8 12 -7 28 2 15 -1 35 -6 45 -6 12 -5 16 3 15 6 -2 14 3 16 10 3 7 1
12 -4 11 -17 -3 -24 1 -17 12 10 17 12 99 2 105 -4 3 -5 11 -1 17 10 16 11 29
2 48 -5 10 -3 16 4 17 7 1 23 3 36 4 14 2 25 10 27 21 1 9 -2 15 -7 11 -5 -3
-7 -9 -4 -14 3 -5 -7 -8 -22 -7 -24 2 -28 7 -28 32 0 17 -4 36 -9 44 -6 10 -5
12 2 7 9 -5 11 3 7 27 -4 25 -2 36 9 40 8 3 17 -1 20 -9 9 -24 7 -36 -4 -29
-6 4 -8 11 -5 16 4 5 2 9 -4 9 -5 0 -9 -9 -8 -19 0 -11 5 -17 10 -14 5 3 4 -5
-3 -18 -11 -24 -11 -24 9 1 22 26 24 64 6 89 -8 12 -6 13 10 8 19 -7 19 -6 2
7 -21 16 -19 33 8 60 12 12 14 15 4 8 -9 -7 -24 -10 -33 -6 -18 7 -22 -11 -6
-21 8 -5 7 -11 -1 -21 -9 -11 -8 -14 2 -14 11 0 11 -2 -1 -10 -11 -7 -11 -10
-2 -10 7 0 10 -4 7 -10 -10 -16 -23 -11 -20 8 1 9 -2 22 -7 29 -5 7 -5 14 2
18 7 4 7 12 0 25 -7 13 -7 21 0 25 5 3 10 15 10 26 0 13 -4 18 -12 13 -7 -4
-8 -3 -4 4 5 9 13 9 27 2 10 -6 19 -8 19 -5 0 15 3 22 18 40 13 15 10 14 -9
-3 -22 -19 -28 -21 -38 -8 -7 8 -9 28 -6 46 4 24 2 30 -7 24 -10 -6 -10 -5 -1
7 12 15 12 86 0 106 -4 6 -3 14 3 18 7 4 7 12 0 25 -7 13 -7 21 0 25 5 3 10
15 10 26 0 13 -4 18 -12 13 -7 -4 -8 -3 -4 4 5 9 13 9 27 2 17 -10 24 -8 17 4
-2 2 6 14 17 27 l20 24 -26 -23 c-22 -19 -28 -21 -38 -8 -7 8 -9 28 -6 46 4
24 2 30 -7 24 -10 -6 -10 -5 -1 7 12 15 12 86 0 106 -4 6 -3 14 3 18 7 4 7 12
0 25 -7 13 -7 21 0 25 5 3 10 15 10 26 0 13 -4 18 -12 13 -7 -4 -8 -3 -4 4 5
9 13 9 27 2 10 -6 19 -8 19 -5 0 15 3 22 18 40 13 15 10 14 -9 -3 -22 -19 -28
-21 -38 -8 -7 8 -9 28 -6 46 4 24 2 30 -7 24 -10 -6 -10 -5 -1 7 12 15 12 86
0 106 -4 6 -3 14 3 18 7 4 7 12 0 25 -7 13 -7 21 0 25 5 3 10 15 10 26 0 13
-4 18 -12 13 -7 -4 -8 -3 -4 4 5 9 13 9 27 2 10 -6 19 -8 19 -5 0 15 3 22 18
40 13 15 10 14 -9 -3 -22 -19 -28 -21 -38 -8 -7 8 -9 28 -6 46 4 24 2 30 -7
24 -10 -6 -10 -5 -1 7 7 8 10 36 8 67 -3 41 1 58 14 71 16 16 17 15 18 -16 1
-18 -3 -30 -8 -27 -5 3 -7 10 -4 15 4 5 2 9 -4 9 -5 0 -9 -9 -8 -19 0 -11 6
-17 12 -13 5 3 4 -2 -4 -11 -11 -14 -11 -17 0 -18 12 0 12 -1 0 -6 -11 -4 -11
-7 0 -13 10 -7 10 -12 0 -23 -9 -11 -9 -17 0 -22 8 -6 8 -9 -1 -15 -6 -4 4 -7
22 -8 28 0 30 1 12 8 -30 12 -39 29 -19 36 13 5 13 9 3 22 -11 14 -10 15 7 9
19 -7 19 -7 1 8 -16 12 -17 17 -6 30 7 8 10 24 7 35 -3 11 -1 23 5 26 10 6
-20 33 -37 34 -5 0 -3 -5 5 -10 11 -7 11 -10 2 -10 -7 0 -10 -4 -7 -10 3 -5 2
-10 -4 -10 -6 0 -9 20 -7 45 1 25 -1 48 -6 51 -5 3 -4 11 1 18 6 7 9 21 7 32
-4 18 2 20 67 19 40 0 78 -4 86 -9z m7044 -390 c3 -8 0 -17 -8 -19 -11 -5 -13
6 -6 31 2 6 9 0 14 -12z m63 -238 c-1 -7 -5 -19 -9 -25 -5 -8 -3 -13 5 -14 10
0 10 -2 0 -6 -6 -2 -10 -8 -8 -12 3 -4 0 -13 -5 -21 -7 -11 -8 -8 -5 12 2 14
2 29 -2 32 -10 11 -11 37 -1 30 5 -3 9 0 9 5 0 6 4 11 9 11 5 0 8 -6 7 -12z
m42 -235 c0 -10 3 -26 6 -35 5 -11 1 -20 -12 -27 -18 -10 -19 -7 -17 32 3 49
2 47 14 47 6 0 9 -8 9 -17z m29 -213 c-1 -17 -3 -18 -15 -6 -8 8 -11 19 -7 25
9 16 24 4 22 -19z m-14360 -167 c5 -14 -25 -12 -31 3 -3 7 2 11 12 10 9 -2 17
-7 19 -13z m14397 -18 c-4 -8 -10 -15 -15 -15 -5 0 -2 -11 6 -24 12 -18 13
-26 4 -31 -13 -9 -31 14 -24 32 2 7 0 15 -6 18 -5 4 -7 11 -3 16 3 5 9 7 14 4
5 -3 11 -1 15 5 9 15 15 12 9 -5z m-14469 -165 c-3 -5 -13 -6 -21 -3 -12 4
-13 8 -3 14 15 9 32 2 24 -11z m14521 -311 c3 -6 1 -16 -5 -22 -8 -8 -11 -6
-11 7 0 11 -5 15 -12 10 -7 -4 -10 -4 -6 1 4 4 2 15 -5 23 -10 13 -9 14 10 4
12 -7 25 -17 29 -23z m18 -282 c-8 -13 -11 -13 -24 1 -13 14 -12 15 5 9 19 -7
19 -6 3 6 -10 8 -15 17 -11 21 12 12 36 -21 27 -37z m-14654 -27 c0 -13 -12
-19 -26 -13 -8 3 -12 8 -9 12 5 10 35 10 35 1z m14676 -102 c4 4 2 -1 -5 -11
-11 -14 -16 -15 -22 -5 -5 7 -9 20 -9 28 1 12 3 12 14 -2 7 -10 17 -14 22 -10z
m0 -385 c3 -18 -9 -23 -26 -12 -11 6 -12 9 -2 9 8 0 10 5 5 13 -4 6 -9 21 -10
32 -3 17 -1 17 14 -5 10 -14 18 -31 19 -37z m7 -58 c4 -8 3 -16 -1 -19 -4 -3
-9 4 -9 15 -2 23 3 25 10 4z m-14748 -241 c-1 -20 -7 -40 -12 -45 -6 -6 -9 -1
-7 13 1 13 3 36 3 51 1 16 5 26 10 22 6 -3 8 -22 6 -41z m15 -285 c0 -6 -4 -7
-10 -4 -5 3 -10 11 -10 16 0 6 5 7 10 4 6 -3 10 -11 10 -16z m5 -148 c3 -5 2
-12 -3 -15 -5 -3 -9 1 -9 9 0 17 3 19 12 6z m-20 -161 c-3 -6 1 -13 9 -16 9
-3 16 -10 16 -14 0 -9 -26 -7 -36 3 -7 7 2 37 11 37 4 0 3 -5 0 -10z m29 -172
c-9 -15 -22 -8 -19 10 2 9 4 19 4 22 1 3 5 -2 10 -10 6 -8 7 -18 5 -22z
m14693 -181 c0 -8 -6 -14 -13 -14 -7 0 -10 6 -7 14 3 7 8 13 12 13 4 0 8 -6 8
-13z m8 -47 c0 -7 -7 -14 -16 -15 -12 -2 -15 3 -12 16 6 22 28 20 28 -1z m-10
-40 c3 -5 1 -10 -6 -10 -8 0 -8 -5 2 -16 18 -22 20 -41 3 -55 -16 -13 -19 -33
-4 -24 15 9 24 -23 11 -39 -7 -8 -11 -18 -9 -22 1 -5 -3 -19 -10 -30 -9 -18
-9 -24 3 -34 8 -7 15 -9 15 -5 0 5 3 6 6 3 8 -9 -25 -68 -37 -68 -8 0 -8 4 0
14 7 8 8 16 4 18 -4 3 -3 4 3 2 6 -1 11 4 11 11 0 7 -6 11 -13 8 -8 -3 -11 6
-10 26 0 17 5 31 11 31 5 0 3 5 -5 10 -10 6 -11 10 -2 10 6 0 12 5 12 11 0 5
-6 7 -12 3 -9 -5 -9 -2 1 9 11 14 11 17 0 17 -11 0 -11 2 1 10 12 8 12 10 1
10 -9 0 -10 4 -4 13 5 6 9 33 8 60 -1 45 6 59 20 37z m-14657 -185 c-3 -3 -9
2 -12 12 -6 14 -5 15 5 6 7 -7 10 -15 7 -18z m37 -325 c-11 -13 -13 -20 -5
-25 8 -5 8 -11 1 -19 -6 -7 -8 -15 -5 -18 3 -3 1 -9 -5 -12 -6 -4 -8 2 -6 14
2 11 0 22 -5 25 -9 5 -6 37 5 55 3 5 12 7 21 3 13 -5 13 -8 -1 -23z m6 -103
c-13 -13 -26 -3 -16 12 3 6 11 8 17 5 6 -4 6 -10 -1 -17z m14555 -86 c-3 -5 1
-14 9 -21 21 -18 19 -32 -3 -19 -19 12 -27 49 -11 49 6 0 8 -4 5 -9z m-7361
-111 c3 -5 2 -10 -4 -10 -5 0 -13 5 -16 10 -3 6 -2 10 4 10 5 0 13 -4 16 -10z
m7369 -40 c-6 -6 -10 -3 -10 10 0 13 4 16 10 10 7 -7 7 -13 0 -20z m-14418
-209 c-4 -6 -14 -11 -22 -11 -8 0 -12 5 -9 10 3 6 1 10 -6 10 -7 0 -9 3 -6 6
4 4 13 1 22 -6 13 -11 14 -10 9 6 -6 15 -4 17 6 7 7 -6 9 -16 6 -22z m14317
-419 c-14 -12 -20 -26 -18 -44 3 -22 1 -25 -9 -15 -14 13 -15 25 -3 45 5 6 6
15 4 20 -3 4 7 8 21 9 26 1 26 1 5 -15z m-58 -227 c0 -10 -7 -20 -15 -22 -13
-4 -13 -3 0 6 13 10 13 11 0 12 -12 0 -12 2 -1 6 11 5 11 7 0 15 -11 8 -11 9
1 5 8 -2 15 -12 15 -22z m-13595 -211 c0 -8 -6 -11 -15 -8 -8 4 -15 9 -15 13
0 4 7 8 15 8 8 0 15 -6 15 -13z m12967 -1399 c0 -15 -26 -30 -35 -20 -3 3 0 5
6 5 7 0 12 7 12 15 0 8 4 15 8 15 5 0 9 -7 9 -15z m-72 -133 c-2 -9 -4 -21 -4
-25 -1 -5 -6 -5 -11 -2 -6 4 -8 10 -5 15 3 5 1 11 -5 15 -15 9 -2 25 14 19 8
-3 13 -13 11 -22z m-244 -325 c-10 -9 -11 -8 -5 6 3 10 9 15 12 12 3 -3 0 -11
-7 -18z m-301 -281 c0 -3 -4 -8 -10 -11 -5 -3 -10 -1 -10 4 0 6 5 11 10 11 6
0 10 -2 10 -4z m-5904 -1266 c0 -12 -4 -16 -9 -11 -5 5 -6 14 -3 20 10 15 12
14 12 -9z m0 -240 c0 -12 -4 -16 -9 -11 -5 5 -6 14 -3 20 10 15 12 14 12 -9z
m0 -240 c0 -12 -4 -16 -9 -11 -5 5 -6 14 -3 20 10 15 12 14 12 -9z m0 -320 c0
-12 -4 -16 -9 -11 -5 5 -6 14 -3 20 10 15 12 14 12 -9z m0 -240 c0 -12 -4 -16
-9 -11 -5 5 -6 14 -3 20 10 15 12 14 12 -9z"/>
<path d="M6753 13125 c0 -8 4 -12 9 -9 5 3 6 10 3 15 -9 13 -12 11 -12 -6z"/>
<path d="M6330 13059 c0 -5 5 -7 10 -4 6 3 10 8 10 11 0 2 -4 4 -10 4 -5 0
-10 -5 -10 -11z"/>
<path d="M6256 13034 c-5 -14 -4 -15 9 -4 17 14 19 20 6 20 -5 0 -12 -7 -15
-16z"/>
<path d="M6136 13007 c3 -10 9 -15 12 -12 3 3 0 11 -7 18 -10 9 -11 8 -5 -6z"/>
<path d="M5815 12879 c-4 -6 -4 -13 -1 -16 3 -4 6 -1 6 6 0 7 5 9 12 5 7 -4 8
-3 4 4 -9 15 -13 15 -21 1z"/>
<path d="M5866 12878 c3 -5 10 -6 15 -3 13 9 11 12 -6 12 -8 0 -12 -4 -9 -9z"/>
<path d="M5760 12845 c-19 -22 -8 -25 13 -3 9 10 13 18 8 18 -5 0 -14 -7 -21
-15z"/>
<path d="M5675 12800 c6 -10 4 -12 -11 -6 -15 6 -17 5 -6 -5 9 -9 15 -10 23
-2 8 8 7 13 -2 18 -8 6 -10 4 -4 -5z"/>
<path d="M5631 12758 c5 -10 11 -18 12 -18 2 0 3 8 3 18 0 10 -6 19 -13 19 -8
0 -9 -6 -2 -19z"/>
<path d="M5536 12708 c3 -5 10 -6 15 -3 13 9 11 12 -6 12 -8 0 -12 -4 -9 -9z"/>
<path d="M5521 12693 c-1 -17 16 -25 25 -12 4 7 3 9 -4 5 -5 -3 -13 0 -15 6
-4 9 -6 10 -6 1z"/>
<path d="M5465 12649 c-4 -6 -5 -12 -2 -15 2 -3 7 2 10 11 7 17 1 20 -8 4z"/>
<path d="M5447 12619 c7 -7 15 -10 18 -7 3 3 -2 9 -12 12 -14 6 -15 5 -6 -5z"/>
<path d="M5409 12613 c-1 -5 -1 -11 0 -15 0 -5 -5 -8 -11 -8 -9 0 -8 -3 2 -9
21 -14 33 -2 18 17 -11 13 -10 15 5 9 11 -4 16 -3 12 3 -7 12 -24 13 -26 3z"/>
<path d="M5264 12445 c-4 -8 -10 -13 -14 -10 -17 11 -21 -16 -5 -37 9 -13 15
-17 14 -8 -5 25 11 58 29 63 15 4 15 5 -1 6 -10 0 -20 -6 -23 -14z"/>
<path d="M5275 12419 c-11 -16 -1 -19 13 -3 7 8 8 14 3 14 -5 0 -13 -5 -16
-11z"/>
<path d="M5166 12331 c-8 -12 3 -41 15 -41 5 0 8 5 7 12 -2 7 2 12 9 13 6 0
14 3 18 7 9 9 -17 4 -34 -6 -11 -7 -13 -5 -8 7 7 18 2 23 -7 8z"/>
<path d="M5129 12264 c-13 -14 -24 -29 -23 -32 1 -4 -5 -17 -13 -29 -8 -12
-12 -27 -9 -32 4 -5 2 -12 -4 -16 -5 -3 -10 -12 -10 -18 0 -7 6 -4 14 5 7 10
16 15 19 12 3 -3 4 8 2 25 -3 21 -1 29 7 25 6 -4 9 -3 6 2 -8 12 18 35 28 26
5 -4 2 2 -6 12 -14 18 -13 19 2 13 13 -4 15 -2 11 10 -5 12 -3 14 7 8 9 -5 11
-4 6 3 -9 16 -9 16 -37 -14z"/>
<path d="M5176 12247 c3 -10 9 -15 12 -12 3 3 0 11 -7 18 -10 9 -11 8 -5 -6z"/>
<path d="M5047 12079 c-25 -19 -61 -69 -40 -56 10 6 34 -19 26 -27 -4 -3 -1
-6 5 -6 17 0 15 15 -3 30 -18 15 -20 31 -2 28 6 -2 11 3 9 11 -2 9 3 11 13 7
9 -3 13 -2 10 3 -3 6 3 14 12 20 10 6 14 10 8 10 -5 0 -22 -9 -38 -20z"/>
<path d="M4897 11717 c-3 -8 1 -14 8 -14 7 0 11 6 8 14 -3 7 -6 13 -8 13 -2 0
-5 -6 -8 -13z"/>
<path d="M4889 11685 c-1 -3 -3 -9 -4 -15 -1 -5 -3 -11 -5 -12 -7 -10 -7 -38
1 -38 5 0 9 5 9 11 0 5 4 8 9 4 5 -3 13 0 17 6 4 7 3 9 -4 5 -6 -3 -13 -2 -17
4 -3 5 -1 10 4 10 6 0 11 7 11 15 0 14 -18 22 -21 10z"/>
<path d="M4926 11675 c4 -8 8 -15 10 -15 2 0 4 7 4 15 0 8 -4 15 -10 15 -5 0
-7 -7 -4 -15z"/>
<path d="M4910 11620 c-9 -6 -10 -10 -3 -10 6 0 15 5 18 10 8 12 4 12 -15 0z"/>
<path d="M4865 11601 c-8 -14 10 -22 30 -15 13 5 14 8 3 15 -17 11 -26 11 -33
0z"/>
<path d="M4859 11570 c0 -3 -2 -13 -4 -22 -2 -10 1 -18 6 -18 6 0 8 -4 4 -9
-3 -6 3 -15 14 -21 14 -7 22 -7 26 0 4 6 3 10 -2 9 -27 -5 -35 1 -23 17 11 12
10 18 -3 32 -10 9 -17 14 -18 12z m19 -35 c-3 -3 -9 2 -12 12 -6 14 -5 15 5 6
7 -7 10 -15 7 -18z"/>
<path d="M4870 11428 c-10 -21 -10 -21 3 -6 8 10 18 14 22 10 5 -4 5 -1 1 6
-10 17 -14 15 -26 -10z"/>
<path d="M4823 11378 c3 -10 2 -20 -3 -23 -12 -8 -8 -44 6 -49 7 -3 10 6 8 25
-3 22 0 28 9 23 7 -5 6 0 -3 12 -22 29 -24 30 -17 12z"/>
<path d="M4840 11386 c0 -2 7 -9 15 -16 13 -11 14 -10 9 4 -5 14 -24 23 -24
12z"/>
<path d="M4809 11298 c-8 -26 -4 -33 19 -35 16 -1 20 2 12 7 -10 6 -9 9 1 14
8 3 3 3 -10 0 -16 -4 -21 -3 -17 5 4 6 5 11 2 11 -3 0 -6 -1 -7 -2z"/>
<path d="M4830 11221 c0 -6 4 -12 8 -15 5 -3 9 1 9 9 0 8 -4 15 -9 15 -4 0 -8
-4 -8 -9z"/>
<path d="M4830 11165 c0 -5 5 -17 10 -25 5 -8 10 -10 10 -5 0 6 -5 17 -10 25
-5 8 -10 11 -10 5z"/>
<path d="M4797 11059 c7 -7 15 -10 18 -7 3 3 -2 9 -12 12 -14 6 -15 5 -6 -5z"/>
<path d="M4777 11038 c-6 -17 29 -22 39 -6 5 7 2 8 -6 3 -7 -4 -15 -2 -20 5
-5 9 -8 8 -13 -2z"/>
<path d="M4773 10995 c3 -7 3 -16 -1 -19 -13 -14 -9 -32 8 -32 10 0 17 4 14 7
-2 4 0 10 5 14 17 10 8 41 -12 42 -12 1 -17 -3 -14 -12z m27 -15 c0 -4 -7 -11
-16 -14 -13 -5 -14 -4 -6 7 7 8 8 18 4 22 -4 5 -1 5 6 1 6 -4 12 -11 12 -16z"/>
<path d="M4795 10899 c-4 -6 -13 -8 -21 -5 -8 3 -11 0 -7 -10 4 -10 9 -12 18
-4 6 5 16 6 20 2 5 -4 4 -1 0 7 -6 11 -4 13 9 8 10 -4 15 -3 11 3 -8 13 -22
13 -30 -1z"/>
<path d="M4787 10797 c-3 -8 0 -14 7 -14 7 0 13 6 13 14 0 7 -4 13 -8 13 -4 0
-9 -6 -12 -13z"/>
<path d="M4795 10749 c-4 -6 -13 -8 -21 -5 -7 3 -16 0 -20 -6 -4 -7 -3 -8 4
-4 7 4 12 1 12 -9 0 -9 -5 -13 -10 -10 -6 4 -10 3 -9 -2 1 -4 0 -10 -1 -13 -8
-22 -6 -41 6 -51 8 -6 12 -15 9 -19 -3 -4 1 -13 9 -19 10 -9 13 -5 11 17 -2
34 4 54 16 46 5 -3 9 0 9 5 0 16 -20 13 -26 -4 -4 -8 -10 -12 -16 -9 -5 3 -3
13 6 23 9 10 13 21 9 24 -3 4 2 16 12 27 10 11 15 20 12 20 -3 0 -9 -5 -12
-11z m-15 -43 c0 -2 -8 -10 -17 -17 -16 -13 -17 -12 -4 4 13 16 21 21 21 13z
m-9 -53 c13 -16 12 -17 -3 -4 -10 7 -18 15 -18 17 0 8 8 3 21 -13z"/>
<path d="M4747 10597 c-3 -7 3 -13 14 -13 13 0 15 3 7 13 -6 7 -12 13 -13 13
-2 0 -5 -6 -8 -13z"/>
<path d="M4743 10434 c0 -6 9 -9 19 -6 27 7 29 17 4 17 -13 0 -23 -5 -23 -11z"/>
<path d="M4743 10178 c-4 -7 -8 -27 -8 -43 0 -25 4 -30 24 -32 13 0 20 2 14 5
-5 4 -9 24 -8 45 2 37 -7 48 -22 25z m12 -28 c1 -30 -7 -32 -11 -3 -2 14 3 33
9 33 1 0 2 -13 2 -30z"/>
<path d="M4790 10039 c0 -5 5 -7 10 -4 6 3 10 8 10 11 0 2 -4 4 -10 4 -5 0
-10 -5 -10 -11z"/>
<path d="M4771 9994 c0 -11 3 -14 6 -6 3 7 2 16 -1 19 -3 4 -6 -2 -5 -13z"/>
<path d="M4775 9880 c3 -5 8 -10 11 -10 2 0 4 5 4 10 0 6 -5 10 -11 10 -5 0
-7 -4 -4 -10z"/>
<path d="M4735 9661 c-3 -5 -2 -12 3 -15 5 -3 9 1 9 9 0 17 -3 19 -12 6z"/>
<path d="M4790 9531 c0 -6 -8 -8 -18 -6 -11 2 -19 -3 -19 -11 0 -8 4 -10 11
-5 6 5 19 7 28 6 11 -2 15 2 11 11 -6 16 -13 18 -13 5z"/>
<path d="M4763 9491 c-12 -9 -12 -101 1 -101 6 0 4 -5 -4 -10 -12 -8 -12 -10
-1 -10 11 0 11 -3 1 -15 -10 -12 -9 -16 4 -21 14 -5 14 -9 4 -22 -10 -12 -10
-14 0 -8 15 9 15 1 2 -24 -7 -13 -7 -21 0 -25 6 -4 8 -10 6 -14 -3 -4 4 -12
15 -19 11 -7 19 -8 19 -2 0 5 -4 10 -10 10 -5 0 -10 5 -10 11 0 5 5 7 12 3 7
-5 8 -3 3 6 -6 10 -4 12 9 7 10 -4 15 -3 11 3 -4 6 -14 9 -22 8 -9 -2 -18 3
-21 11 -3 8 0 11 6 7 6 -3 14 -1 18 5 4 8 3 9 -4 5 -19 -11 -14 5 6 20 16 12
16 12 -2 11 -10 -1 -21 4 -24 12 -3 8 0 11 6 7 6 -3 14 -2 17 4 4 6 1 9 -7 8
-8 -2 -12 4 -10 15 2 9 -2 17 -9 17 -6 0 -9 6 -6 13 3 6 8 20 12 30 4 10 3 17
-5 17 -6 0 -8 -4 -5 -10 3 -5 1 -10 -4 -10 -17 0 -13 18 7 29 9 6 11 11 5 11
-7 0 -13 4 -13 9 0 5 9 7 20 4 11 -3 20 -3 20 0 0 8 -37 15 -47 8z"/>
<path d="M4793 9037 c17 -14 24 -33 9 -23 -5 3 -9 -1 -9 -9 0 -11 4 -12 14 -4
13 12 19 -2 6 -15 -4 -3 -7 -16 -8 -27 -2 -24 30 -45 41 -27 5 7 3 8 -6 3 -10
-6 -12 -4 -7 9 4 10 3 15 -3 11 -17 -11 -11 7 8 21 13 11 14 13 1 9 -11 -4
-15 0 -15 16 1 12 -9 27 -24 36 -21 13 -22 13 -7 0z"/>
<path d="M4866 8802 c-3 -5 1 -9 9 -9 8 0 12 4 9 9 -3 4 -7 8 -9 8 -2 0 -6 -4
-9 -8z"/>
<path d="M4916 8687 c3 -10 9 -15 12 -12 3 3 0 11 -7 18 -10 9 -11 8 -5 -6z"/>
<path d="M4848 8665 c4 -5 7 -13 8 -17 1 -5 3 -10 4 -13 1 -3 3 -11 4 -17 2
-23 31 -14 32 9 1 12 -3 21 -9 20 -5 -1 -12 4 -15 12 -3 8 0 11 7 7 6 -4 11
-3 11 2 0 6 -11 9 -24 8 -13 0 -21 -5 -18 -11z m42 -46 c0 -5 -5 -9 -12 -9 -6
0 -8 3 -5 7 4 3 1 13 -6 22 -11 14 -10 14 6 2 9 -7 17 -17 17 -22z"/>
<path d="M4915 8571 c-3 -5 -2 -12 3 -15 5 -3 9 1 9 9 0 17 -3 19 -12 6z"/>
<path d="M4955 8419 c-4 -6 -4 -13 -1 -16 3 -4 6 -1 6 6 0 7 5 9 12 5 7 -4 8
-3 4 4 -9 15 -13 15 -21 1z"/>
<path d="M5003 8238 c-12 -20 -14 -48 -4 -48 15 0 22 18 11 25 -8 5 -7 11 1
21 6 8 9 14 6 14 -3 0 -9 -6 -14 -12z"/>
<path d="M5026 8217 c3 -10 9 -15 12 -12 3 3 0 11 -7 18 -10 9 -11 8 -5 -6z"/>
<path d="M5067 8076 c-15 -12 -15 -15 -3 -26 16 -13 36 -6 36 13 0 7 -4 6 -10
-3 -5 -8 -13 -11 -17 -6 -4 4 1 14 11 22 11 8 16 14 10 14 -5 0 -17 -7 -27
-14z"/>
<path d="M5105 8039 c-4 -6 -5 -12 -2 -15 2 -3 7 2 10 11 7 17 1 20 -8 4z"/>
<path d="M5113 7973 c0 -10 7 -23 16 -30 9 -7 12 -13 7 -13 -11 0 14 -30 25
-30 16 0 10 17 -15 41 -13 13 -22 29 -19 36 3 7 1 13 -4 13 -5 0 -10 -8 -10
-17z"/>
<path d="M5140 7966 c0 -2 7 -7 16 -10 8 -3 12 -2 9 4 -6 10 -25 14 -25 6z"/>
<path d="M5199 7868 c-11 -37 26 -93 54 -82 9 3 17 11 17 16 0 6 -7 5 -15 -2
-9 -7 -19 -10 -22 -6 -4 4 -1 11 7 16 10 7 11 10 3 10 -7 0 -13 5 -13 11 0 5
4 8 9 5 11 -7 8 20 -3 31 -4 4 -6 4 -4 -2 3 -10 -4 -15 -23 -15 -5 0 -7 5 -4
10 3 6 4 10 1 10 -3 0 -6 -1 -7 -2z m25 -44 c5 -14 4 -15 -9 -4 -17 14 -19 20
-6 20 5 0 12 -7 15 -16z"/>
<path d="M5260 7776 c0 -2 7 -6 15 -10 8 -3 15 -1 15 4 0 6 -7 10 -15 10 -8 0
-15 -2 -15 -4z"/>
<path d="M5292 7710 c7 -11 14 -16 16 -10 2 6 8 8 13 5 5 -4 6 1 2 10 -5 13
-7 14 -14 3 -7 -10 -9 -10 -9 0 0 6 -5 12 -10 12 -6 0 -5 -8 2 -20z"/>
<path d="M5376 7655 c-3 -9 -11 -13 -17 -9 -8 5 -9 3 -4 -5 6 -10 11 -9 23 3
9 8 13 18 10 21 -3 3 -8 -1 -12 -10z"/>
<path d="M5415 7631 c-3 -5 -2 -12 3 -15 5 -3 9 1 9 9 0 17 -3 19 -12 6z"/>
<path d="M5418 7592 c18 -10 30 -21 26 -25 -4 -4 -5 -7 -2 -7 3 0 12 8 19 18
7 9 10 14 5 10 -5 -4 -21 -1 -37 7 -15 8 -32 15 -36 15 -4 -1 7 -9 25 -18z"/>
<path d="M5477 7553 c3 -7 6 -13 8 -13 2 0 5 6 8 13 3 8 -1 14 -8 14 -7 0 -11
-6 -8 -14z"/>
<path d="M5492 7518 c3 -7 13 -13 24 -14 16 -1 16 0 1 3 -9 3 -15 9 -12 14 4
5 1 9 -5 9 -7 0 -10 -6 -8 -12z"/>
<path d="M5556 7513 c-6 -14 -5 -15 5 -6 7 7 10 15 7 18 -3 3 -9 -2 -12 -12z"/>
<path d="M5535 7480 c3 -5 8 -10 11 -10 2 0 4 5 4 10 0 6 -5 10 -11 10 -5 0
-7 -4 -4 -10z"/>
<path d="M5775 7340 c-3 -5 -1 -10 4 -10 6 0 11 5 11 10 0 6 -2 10 -4 10 -3 0
-8 -4 -11 -10z"/>
<path d="M5975 7251 c-3 -5 -2 -12 3 -15 5 -3 9 1 9 9 0 17 -3 19 -12 6z"/>
<path d="M6100 7196 c0 -2 7 -7 16 -10 8 -3 12 -2 9 4 -6 10 -25 14 -25 6z"/>
<path d="M6256 7162 c-3 -5 1 -9 9 -9 8 0 12 4 9 9 -3 4 -7 8 -9 8 -2 0 -6 -4
-9 -8z"/>
<path d="M6906 7042 c-2 -4 4 -8 14 -8 10 0 16 4 14 8 -3 4 -9 8 -14 8 -5 0
-11 -4 -14 -8z"/>
<path d="M12039 13183 c-1 -5 -1 -12 0 -17 1 -4 -3 -14 -9 -21 -7 -9 -7 -15
-1 -19 5 -4 8 -15 6 -26 -2 -11 0 -20 6 -20 5 0 9 5 9 11 0 5 6 7 13 3 8 -5 8
-2 -2 9 -11 14 -11 20 0 34 10 11 10 14 2 9 -8 -4 -13 -1 -13 9 0 13 4 14 20
5 28 -15 25 -5 -5 14 -14 9 -26 13 -26 9z"/>
<path d="M12386 13178 c3 -5 10 -6 15 -3 13 9 11 12 -6 12 -8 0 -12 -4 -9 -9z"/>
<path d="M12070 13119 c0 -5 5 -7 10 -4 6 3 10 8 10 11 0 2 -4 4 -10 4 -5 0
-10 -5 -10 -11z"/>
<path d="M12060 13076 c0 -2 7 -7 16 -10 8 -3 12 -2 9 4 -6 10 -25 14 -25 6z"/>
<path d="M12043 12835 c-7 -8 -9 -16 -5 -19 4 -3 13 4 20 15 14 22 3 25 -15 4z"/>
<path d="M12033 12752 c-6 -11 -8 -24 -3 -33 5 -7 5 -18 -1 -25 -7 -9 -5 -16
8 -23 14 -8 15 -10 3 -11 -13 0 -13 -1 0 -10 13 -9 13 -10 0 -10 -13 0 -13 -1
0 -10 13 -9 13 -10 0 -10 -13 0 -13 -2 -1 -9 12 -8 12 -12 2 -24 -9 -11 -9
-17 0 -22 8 -6 8 -9 -1 -15 -6 -4 4 -7 22 -8 28 0 30 1 12 8 -30 12 -39 29
-19 36 13 5 13 9 3 22 -11 14 -10 15 7 9 17 -6 18 -5 5 6 -23 18 -25 41 -3 33
17 -6 17 -5 0 8 -21 16 -19 33 8 60 12 12 13 15 4 8 -14 -11 -22 -11 -36 -2
-15 10 -16 11 -1 6 10 -3 20 0 24 6 4 6 3 8 -4 4 -6 -3 -12 1 -14 9 -2 13 -5
12 -15 -3z"/>
<path d="M12068 12763 c7 -3 16 -2 19 1 4 3 -2 6 -13 5 -11 0 -14 -3 -6 -6z"/>
<path d="M12043 12515 c-7 -8 -9 -16 -5 -19 4 -3 13 4 20 15 14 22 3 25 -15 4z"/>
<path d="M12033 12432 c-6 -11 -8 -24 -3 -33 5 -7 5 -18 -1 -25 -7 -9 -5 -16
8 -23 14 -8 15 -10 3 -11 -13 0 -13 -1 0 -10 13 -9 13 -10 0 -10 -13 0 -13 -1
0 -10 13 -9 13 -10 0 -10 -13 0 -13 -2 -1 -9 12 -8 12 -12 2 -24 -9 -11 -9
-17 0 -22 8 -6 8 -9 -1 -15 -6 -4 4 -7 22 -8 28 0 30 1 12 8 -30 12 -39 29
-19 36 13 5 13 9 3 22 -11 14 -10 15 7 9 17 -6 18 -5 5 6 -23 18 -25 41 -3 33
17 -6 17 -5 0 8 -21 16 -19 33 8 60 12 12 13 15 4 8 -14 -11 -22 -11 -36 -2
-15 10 -16 11 -1 6 10 -3 20 0 24 6 4 6 3 8 -4 4 -6 -3 -12 1 -14 9 -2 13 -5
12 -15 -3z"/>
<path d="M12068 12443 c7 -3 16 -2 19 1 4 3 -2 6 -13 5 -11 0 -14 -3 -6 -6z"/>
<path d="M12043 12195 c-7 -8 -9 -16 -5 -19 4 -3 13 4 20 15 14 22 3 25 -15 4z"/>
<path d="M12033 12112 c-6 -11 -8 -24 -3 -33 5 -7 5 -18 -1 -25 -7 -9 -5 -16
8 -23 14 -8 15 -10 3 -11 -13 0 -13 -1 0 -10 13 -9 13 -10 0 -10 -13 0 -13 -1
0 -10 13 -9 13 -10 0 -10 -13 0 -13 -2 -1 -9 12 -8 12 -12 2 -24 -9 -11 -9
-17 0 -22 8 -6 8 -9 -1 -15 -6 -4 4 -7 22 -8 28 0 30 1 12 8 -30 12 -39 29
-19 36 13 5 13 9 3 22 -11 14 -10 15 7 9 17 -6 18 -5 5 6 -23 18 -25 41 -3 33
17 -6 17 -5 0 8 -21 16 -19 33 8 60 12 12 13 15 4 8 -14 -11 -22 -11 -36 -2
-15 10 -16 11 -1 6 10 -3 20 0 24 6 4 6 3 8 -4 4 -6 -3 -12 1 -14 9 -2 13 -5
12 -15 -3z"/>
<path d="M12068 12123 c7 -3 16 -2 19 1 4 3 -2 6 -13 5 -11 0 -14 -3 -6 -6z"/>
<path d="M12043 11875 c-7 -8 -9 -16 -5 -19 4 -3 13 4 20 15 14 22 3 25 -15 4z"/>
<path d="M12034 11792 c-10 -16 -9 -18 7 -17 10 1 22 5 26 10 5 4 3 5 -4 1 -6
-3 -13 1 -15 9 -2 13 -5 13 -14 -3z"/>
<path d="M12068 11803 c7 -3 16 -2 19 1 4 3 -2 6 -13 5 -11 0 -14 -3 -6 -6z"/>
<path d="M12065 11600 c-3 -5 -1 -10 4 -10 6 0 11 5 11 10 0 6 -2 10 -4 10 -3
0 -8 -4 -11 -10z"/>
<path d="M12044 11571 c-5 -3 -10 -16 -10 -28 -1 -19 2 -21 17 -12 22 11 26
24 5 16 -10 -4 -13 -1 -10 7 3 8 14 12 25 9 10 -3 19 -3 19 0 0 8 -37 15 -46
8z"/>
<path d="M12050 11476 c0 -8 -4 -16 -8 -18 -4 -1 0 -10 9 -19 15 -15 17 -14
16 17 -1 32 -17 51 -17 20z"/>
<path d="M12026 11433 c-3 -3 1 -15 11 -25 9 -10 12 -18 7 -18 -5 0 -10 -13
-10 -30 -1 -20 3 -30 13 -30 8 0 11 -5 8 -10 -4 -6 -10 -8 -15 -5 -5 3 -12 0
-16 -7 -4 -7 -3 -10 1 -5 5 4 17 -1 28 -10 13 -11 17 -12 12 -4 -6 11 -4 13
11 8 17 -6 17 -6 3 5 -9 7 -15 21 -13 31 2 13 -2 17 -12 13 -10 -4 -13 -2 -8
6 12 19 14 58 3 58 -6 0 -8 4 -4 9 6 11 -9 23 -19 14z"/>
<path d="M12037 11274 c-6 -11 -3 -52 4 -45 2 2 15 -1 29 -8 l25 -12 -23 18
c-18 15 -20 21 -10 32 8 9 8 11 1 7 -6 -3 -13 -1 -15 6 -3 8 -7 8 -11 2z"/>
<path d="M12065 11120 c-3 -5 -1 -10 4 -10 6 0 11 5 11 10 0 6 -2 10 -4 10 -3
0 -8 -4 -11 -10z"/>
<path d="M12044 11091 c-5 -3 -10 -16 -10 -28 -1 -19 2 -21 17 -12 22 11 26
24 5 16 -10 -4 -13 -1 -10 7 3 8 14 12 25 9 10 -3 19 -3 19 0 0 8 -37 15 -46
8z"/>
<path d="M12050 10996 c0 -8 -4 -16 -8 -18 -4 -1 0 -10 9 -19 15 -15 17 -14
16 17 -1 32 -17 51 -17 20z"/>
<path d="M12026 10953 c-3 -3 1 -15 11 -25 9 -10 12 -18 7 -18 -5 0 -10 -13
-10 -30 -1 -20 3 -30 13 -30 8 0 11 -5 8 -10 -4 -6 -10 -8 -15 -5 -5 3 -12 0
-16 -7 -4 -7 -3 -10 1 -5 5 4 17 -1 28 -10 13 -11 17 -12 12 -4 -6 11 -4 13
11 8 17 -6 17 -6 3 5 -9 7 -15 21 -13 31 2 13 -2 17 -12 13 -10 -4 -13 -2 -8
6 12 19 14 58 3 58 -6 0 -8 4 -4 9 6 11 -9 23 -19 14z"/>
<path d="M12037 10794 c-6 -11 -3 -52 4 -45 2 2 15 -1 29 -8 l25 -12 -23 18
c-18 15 -20 21 -10 32 8 9 8 11 1 7 -6 -3 -13 -1 -15 6 -3 8 -7 8 -11 2z"/>
<path d="M12065 10640 c-3 -5 -1 -10 4 -10 6 0 11 5 11 10 0 6 -2 10 -4 10 -3
0 -8 -4 -11 -10z"/>
<path d="M12044 10611 c-12 -8 -13 -91 -2 -91 4 0 8 5 8 11 0 5 6 7 13 3 6 -4
4 1 -5 11 -16 17 -16 19 0 33 16 13 16 13 0 8 -11 -3 -15 -1 -12 8 3 8 14 12
25 9 10 -3 19 -3 19 0 0 8 -37 15 -46 8z"/>
<path d="M12075 10569 c-4 -6 -5 -12 -2 -15 2 -3 7 2 10 11 7 17 1 20 -8 4z"/>
<path d="M12060 10516 c0 -2 7 -7 16 -10 8 -3 12 -2 9 4 -6 10 -25 14 -25 6z"/>
<path d="M12043 10275 c-7 -8 -9 -16 -5 -19 4 -3 13 4 20 15 14 22 3 25 -15 4z"/>
<path d="M12033 10192 c-6 -11 -8 -24 -3 -33 5 -7 5 -18 -1 -25 -7 -9 -5 -16
8 -23 14 -8 15 -10 3 -11 -13 0 -13 -1 0 -10 13 -9 13 -10 0 -10 -13 0 -13 -1
0 -10 13 -9 13 -10 0 -10 -13 0 -13 -2 -1 -9 12 -8 12 -12 2 -24 -9 -11 -9
-17 0 -22 8 -6 8 -9 -1 -15 -6 -4 4 -7 22 -8 28 0 30 1 12 8 -30 12 -39 29
-19 36 13 5 13 9 3 22 -11 14 -10 15 7 9 17 -6 18 -5 5 6 -23 18 -25 41 -3 33
17 -6 17 -5 0 8 -21 16 -19 33 8 60 12 12 13 15 4 8 -14 -11 -22 -11 -36 -2
-15 10 -16 11 -1 6 10 -3 20 0 24 6 4 6 3 8 -4 4 -6 -3 -12 1 -14 9 -2 13 -5
12 -15 -3z"/>
<path d="M12068 10203 c7 -3 16 -2 19 1 4 3 -2 6 -13 5 -11 0 -14 -3 -6 -6z"/>
<path d="M12043 9955 c-7 -8 -9 -16 -5 -19 4 -3 13 4 20 15 14 22 3 25 -15 4z"/>
<path d="M12033 9872 c-6 -11 -8 -24 -3 -33 5 -7 5 -18 -1 -25 -7 -9 -5 -16 8
-23 14 -8 15 -10 3 -11 -12 0 -13 -2 -1 -9 9 -6 10 -11 2 -15 -16 -10 -13 -26
5 -26 8 0 12 -5 9 -10 -4 -6 -10 -8 -15 -5 -5 3 -12 0 -16 -7 -4 -7 -3 -10 1
-5 5 4 17 -1 28 -10 13 -11 17 -12 12 -4 -6 11 -4 13 11 8 17 -6 17 -6 3 5 -9
7 -15 21 -13 31 1 9 -1 17 -5 17 -4 0 -8 7 -8 15 0 10 6 14 16 10 12 -4 12 -2
-2 9 -21 16 -19 33 8 60 12 12 13 15 4 8 -14 -11 -22 -11 -36 -2 -15 10 -16
11 -1 6 10 -3 20 0 24 6 4 6 3 8 -4 4 -6 -3 -12 1 -14 9 -2 13 -5 12 -15 -3z"/>
<path d="M12068 9883 c7 -3 16 -2 19 1 4 3 -2 6 -13 5 -11 0 -14 -3 -6 -6z"/>
<path d="M12037 9674 c-6 -11 -3 -52 4 -45 2 2 15 -1 29 -8 l25 -12 -23 18
c-18 15 -20 21 -10 32 8 9 8 11 1 7 -6 -3 -13 -1 -15 6 -3 8 -7 8 -11 2z"/>
<path d="M12065 9520 c-3 -5 -1 -10 4 -10 6 0 11 5 11 10 0 6 -2 10 -4 10 -3
0 -8 -4 -11 -10z"/>
<path d="M12044 9491 c-5 -3 -10 -16 -10 -28 -1 -19 2 -21 17 -12 22 11 26 24
5 16 -10 -4 -13 -1 -10 7 3 8 14 12 25 9 10 -3 19 -3 19 0 0 8 -37 15 -46 8z"/>
<path d="M12050 9396 c0 -8 -4 -16 -8 -18 -4 -1 0 -10 9 -19 15 -15 17 -14 16
17 -1 32 -17 51 -17 20z"/>
<path d="M12026 9353 c-3 -3 1 -15 11 -25 9 -10 12 -18 7 -18 -5 0 -10 -13
-10 -30 -1 -20 3 -30 13 -30 8 0 11 -5 8 -10 -4 -6 -10 -8 -15 -5 -5 3 -12 0
-16 -7 -4 -7 -3 -10 1 -5 5 4 17 -1 28 -10 13 -11 17 -12 12 -4 -6 11 -4 13
11 8 17 -6 17 -6 3 5 -9 7 -15 21 -13 31 2 13 -2 17 -12 13 -10 -4 -13 -2 -8
6 12 19 14 58 3 58 -6 0 -8 4 -4 9 6 11 -9 23 -19 14z"/>
<path d="M12037 9194 c-6 -11 -3 -52 4 -45 2 2 15 -1 29 -8 l25 -12 -23 18
c-18 15 -20 21 -10 32 8 9 8 11 1 7 -6 -3 -13 -1 -15 6 -3 8 -7 8 -11 2z"/>
<path d="M12033 9108 c-1 -10 5 -18 13 -18 8 0 12 -5 9 -10 -4 -6 -10 -8 -15
-5 -5 3 -12 0 -16 -7 -4 -7 -3 -10 1 -5 5 4 17 -1 28 -10 13 -11 17 -12 12 -4
-6 11 -4 13 11 8 17 -6 17 -6 3 5 -9 7 -15 21 -13 31 2 14 -2 17 -14 13 -14
-5 -13 -3 2 8 18 15 18 15 -1 13 -11 0 -20 -9 -20 -19z"/>
<path d="M12037 9034 c-6 -11 -3 -52 4 -45 2 2 15 -1 29 -8 l25 -12 -23 18
c-18 15 -20 21 -10 32 8 9 8 11 1 7 -6 -3 -13 -1 -15 6 -3 8 -7 8 -11 2z"/>
<path d="M12065 8880 c-3 -5 -1 -10 4 -10 6 0 11 5 11 10 0 6 -2 10 -4 10 -3
0 -8 -4 -11 -10z"/>
<path d="M12044 8851 c-11 -8 -13 -92 -2 -85 4 3 8 0 8 -5 0 -6 -5 -11 -11
-11 -6 0 -3 -7 5 -16 13 -12 14 -19 4 -37 -12 -23 -19 -107 -9 -107 4 0 12 9
19 21 8 12 9 18 3 14 -6 -3 -11 1 -11 9 0 8 5 18 10 21 6 4 9 21 7 38 -3 19 2
40 12 52 10 13 10 16 1 8 -19 -17 -35 -16 -21 1 9 11 8 15 -4 20 -18 7 -16 26
5 44 13 12 13 13 -2 8 -11 -3 -15 -1 -12 8 3 8 14 12 25 9 10 -3 19 -3 19 0 0
8 -37 15 -46 8z m8 -193 c-7 -7 -10 -5 -7 8 5 29 6 30 12 16 3 -8 1 -18 -5
-24z"/>
<path d="M12071 8802 c-7 -13 -6 -19 2 -19 7 0 13 9 13 19 0 10 -1 18 -3 18
-1 0 -7 -8 -12 -18z"/>
<path d="M12076 8599 c2 -4 -2 -10 -8 -12 -8 -4 -9 -6 -2 -6 6 -1 17 5 23 12
8 10 7 14 -4 14 -8 0 -12 -4 -9 -8z"/>
<path d="M12035 8570 c-9 -15 4 -30 20 -23 8 3 15 9 15 13 0 12 -29 20 -35 10z"/>
<path d="M12070 8540 c-9 -6 -10 -10 -3 -10 6 0 15 5 18 10 8 12 4 12 -15 0z"/>
<path d="M12043 8355 c-7 -8 -9 -16 -5 -19 4 -3 13 4 20 15 14 22 3 25 -15 4z"/>
<path d="M12033 8272 c-6 -11 -8 -24 -3 -33 5 -7 5 -18 -1 -25 -7 -9 -5 -16 8
-23 14 -8 15 -10 3 -11 -13 0 -13 -1 0 -10 13 -9 13 -10 0 -10 -13 0 -13 -1 0
-10 13 -9 13 -10 0 -10 -13 0 -13 -2 -1 -9 12 -8 12 -12 2 -24 -9 -11 -9 -17
0 -22 8 -6 8 -9 -1 -15 -6 -4 4 -7 22 -8 28 0 30 1 12 8 -30 12 -39 29 -19 36
13 5 13 9 3 22 -11 14 -10 15 7 9 17 -6 18 -5 5 6 -23 18 -25 41 -3 33 17 -6
17 -5 0 8 -21 16 -19 33 8 60 12 12 13 15 4 8 -14 -11 -22 -11 -36 -2 -15 10
-16 11 -1 6 10 -3 20 0 24 6 4 6 3 8 -4 4 -6 -3 -12 1 -14 9 -2 13 -5 12 -15
-3z"/>
<path d="M12068 8283 c7 -3 16 -2 19 1 4 3 -2 6 -13 5 -11 0 -14 -3 -6 -6z"/>
<path d="M12043 8035 c-7 -8 -9 -16 -5 -19 4 -3 13 4 20 15 14 22 3 25 -15 4z"/>
<path d="M12034 7952 c-10 -16 -9 -18 7 -17 10 1 22 5 26 10 5 4 3 5 -4 1 -6
-3 -13 1 -15 9 -2 13 -5 13 -14 -3z"/>
<path d="M12068 7963 c7 -3 16 -2 19 1 4 3 -2 6 -13 5 -11 0 -14 -3 -6 -6z"/>
<path d="M12065 7760 c-3 -5 -1 -10 4 -10 6 0 11 5 11 10 0 6 -2 10 -4 10 -3
0 -8 -4 -11 -10z"/>
<path d="M12044 7731 c-5 -3 -10 -16 -10 -28 -1 -19 2 -21 17 -12 22 11 26 24
5 16 -10 -4 -13 -1 -10 7 3 8 14 12 25 9 10 -3 19 -3 19 0 0 8 -37 15 -46 8z"/>
<path d="M12050 7636 c0 -8 -4 -16 -8 -18 -4 -1 0 -10 9 -19 15 -15 17 -14 16
17 -1 32 -17 51 -17 20z"/>
<path d="M12026 7593 c-3 -3 1 -15 11 -25 9 -10 12 -18 7 -18 -5 0 -10 -13
-10 -30 -1 -20 3 -30 13 -30 8 0 11 -5 8 -10 -4 -6 -10 -8 -15 -5 -5 3 -12 0
-16 -7 -4 -7 -3 -10 1 -5 5 4 17 -1 28 -10 13 -11 17 -12 12 -4 -6 11 -4 13
11 8 17 -6 17 -6 3 5 -9 7 -15 21 -13 31 2 13 -2 17 -12 13 -10 -4 -13 -2 -8
6 12 19 14 58 3 58 -6 0 -8 4 -4 9 6 11 -9 23 -19 14z"/>
<path d="M12037 7434 c-6 -11 -3 -52 4 -45 2 2 15 -1 29 -8 l25 -12 -23 18
c-18 15 -20 21 -10 32 8 9 8 11 1 7 -6 -3 -13 -1 -15 6 -3 8 -7 8 -11 2z"/>
<path d="M12065 7280 c-3 -5 -1 -10 4 -10 6 0 11 5 11 10 0 6 -2 10 -4 10 -3
0 -8 -4 -11 -10z"/>
<path d="M12040 7250 c-9 -5 -9 -9 -1 -14 6 -4 11 -3 11 2 0 6 9 8 20 5 11 -3
20 -3 20 0 0 9 -38 15 -50 7z"/>
<path d="M12071 7202 c-7 -13 -6 -19 2 -19 7 0 13 9 13 19 0 10 -1 18 -3 18
-1 0 -7 -8 -12 -18z"/>
<path d="M19310 12279 c0 -5 5 -7 10 -4 6 3 10 8 10 11 0 2 -4 4 -10 4 -5 0
-10 -5 -10 -11z"/>
<path d="M19370 11881 c0 -6 4 -13 10 -16 6 -3 7 1 4 9 -7 18 -14 21 -14 7z"/>
<path d="M19454 9265 c0 -13 3 -22 7 -19 8 4 6 30 -2 38 -3 3 -5 -5 -5 -19z"/>
<path d="M19459 9208 c-5 -18 -6 -38 -1 -34 7 8 12 36 6 36 -2 0 -4 -1 -5 -2z"/>
<path d="M12107 17304 c-3 -4 -2 -14 3 -24 5 -10 6 -20 3 -24 -3 -3 -1 -6 6
-6 7 0 9 -4 6 -10 -3 -5 -1 -10 6 -10 7 0 9 -3 5 -7 -4 -5 -12 -8 -18 -8 -6 0
-13 -10 -14 -22 -3 -16 1 -23 12 -23 10 0 14 6 11 15 -4 8 -2 17 3 20 4 3 10
-1 13 -7 2 -7 4 3 3 24 -1 20 -4 34 -7 32 -4 -2 -10 3 -13 12 -9 24 -7 28 7
15 10 -8 14 -7 14 4 0 8 -4 12 -9 9 -4 -3 -8 0 -8 5 0 12 -13 15 -23 5z"/>
<path d="M12100 16922 c0 -6 4 -13 9 -16 4 -3 7 -17 6 -31 -2 -14 1 -25 6 -25
6 0 7 -4 4 -10 -3 -5 -1 -10 6 -10 7 0 9 -3 5 -7 -4 -5 -13 -8 -19 -8 -17 0
-16 -37 2 -59 15 -18 15 -19 0 -14 -12 5 -15 -1 -14 -26 0 -17 4 -32 8 -33 12
-4 37 9 37 19 0 6 -6 6 -14 -1 -10 -8 -16 -9 -21 -1 -3 5 -2 10 3 10 17 0 21
40 5 55 -8 8 -10 15 -4 15 6 0 11 7 11 16 0 8 4 13 8 10 4 -2 8 8 7 24 0 15
-3 26 -6 24 -4 -2 -10 3 -13 12 -9 24 -7 28 7 15 10 -8 14 -7 14 4 0 8 -3 13
-5 10 -3 -2 -13 5 -23 17 -11 11 -19 16 -19 10z"/>
<path d="M12120 16925 c0 -7 30 -13 34 -7 3 4 -4 9 -15 9 -10 1 -19 0 -19 -2z"/>
<path d="M12149 16783 c-13 -16 -12 -17 4 -4 9 7 17 15 17 17 0 8 -8 3 -21
-13z"/>
<path d="M12109 16604 c-7 -43 -3 -72 10 -88 14 -17 14 -19 0 -14 -12 5 -15
-1 -14 -31 0 -20 4 -35 8 -33 4 1 14 5 22 8 8 4 15 11 15 16 0 6 -6 6 -14 -1
-10 -8 -16 -9 -21 -1 -3 5 -2 10 3 10 17 0 21 40 5 55 -8 8 -10 15 -4 15 6 0
11 5 11 11 0 5 -4 7 -10 4 -16 -10 -11 7 6 19 14 11 14 13 0 25 -9 8 -17 10
-17 5z"/>
<path d="M12155 16590 c-3 -5 -3 -10 2 -10 4 0 1 -5 -7 -11 -12 -8 -12 -10 -1
-7 8 2 15 12 17 21 3 19 -2 22 -11 7z"/>
<path d="M12146 16542 c-3 -5 1 -9 9 -9 8 0 12 4 9 9 -3 4 -7 8 -9 8 -2 0 -6
-4 -9 -8z"/>
<path d="M12156 16407 c3 -10 9 -15 12 -12 3 3 0 11 -7 18 -10 9 -11 8 -5 -6z"/>
<path d="M12109 16364 c-7 -43 -3 -72 10 -88 14 -17 14 -19 0 -14 -12 5 -15
-1 -14 -31 0 -20 4 -35 8 -33 4 1 14 5 22 8 8 4 15 11 15 16 0 6 -6 6 -14 -1
-10 -8 -16 -9 -21 -1 -3 5 -2 10 3 10 17 0 21 40 5 55 -8 8 -10 15 -4 15 6 0
11 5 11 11 0 5 -4 7 -10 4 -16 -10 -11 7 6 19 14 11 14 13 0 25 -9 8 -17 10
-17 5z"/>
<path d="M12146 16302 c-3 -5 1 -9 9 -9 8 0 12 4 9 9 -3 4 -7 8 -9 8 -2 0 -6
-4 -9 -8z"/>
<path d="M12148 16143 c7 -3 16 -2 19 1 4 3 -2 6 -13 5 -11 0 -14 -3 -6 -6z"/>
<path d="M15986 15962 c-3 -5 1 -9 9 -9 8 0 12 4 9 9 -3 4 -7 8 -9 8 -2 0 -6
-4 -9 -8z"/>
<path d="M16519 15793 c-13 -16 -12 -17 4 -4 9 7 17 15 17 17 0 8 -8 3 -21
-13z"/>
<path d="M17054 15599 c-3 -6 -2 -15 3 -20 5 -5 9 -1 9 11 0 23 -2 24 -12 9z"/>
<path d="M17105 15580 c-3 -6 1 -7 9 -4 18 7 21 14 7 14 -6 0 -13 -4 -16 -10z"/>
<path d="M17121 15557 c2 -1 13 -9 24 -17 19 -14 19 -14 6 3 -7 9 -18 17 -24
17 -6 0 -8 -1 -6 -3z"/>
<path d="M17176 15538 c3 -5 10 -6 15 -3 13 9 11 12 -6 12 -8 0 -12 -4 -9 -9z"/>
<path d="M17334 15462 c3 -5 0 -13 -6 -15 -9 -4 -10 -6 -1 -6 17 -1 25 16 12
25 -7 4 -9 3 -5 -4z"/>
<path d="M17505 15340 c-3 -6 1 -7 9 -4 18 7 21 14 7 14 -6 0 -13 -4 -16 -10z"/>
<path d="M17560 15306 c0 -2 7 -9 15 -16 9 -7 15 -8 15 -2 0 5 -7 12 -15 16
-8 3 -15 4 -15 2z"/>
<path d="M17615 15279 c-4 -6 -5 -12 -2 -15 2 -3 7 2 10 11 7 17 1 20 -8 4z"/>
<path d="M17634 15259 c2 -15 20 -13 24 3 3 10 2 10 -6 -1 -7 -9 -11 -10 -15
-2 -4 7 -5 8 -3 0z"/>
<path d="M17707 15205 c3 -8 9 -12 14 -9 12 7 11 11 -5 17 -10 4 -13 1 -9 -8z"/>
<path d="M17749 15168 c14 -19 32 -15 30 5 0 8 -2 8 -6 -1 -4 -10 -8 -10 -21
0 -15 12 -16 11 -3 -4z"/>
<path d="M17866 15097 c3 -10 9 -15 12 -12 3 3 0 11 -7 18 -10 9 -11 8 -5 -6z"/>
<path d="M17893 15084 c-3 -9 4 -25 18 -39 22 -21 26 -22 43 -9 11 7 15 14 9
14 -7 0 -15 -5 -18 -10 -5 -8 -11 -7 -21 1 -12 9 -12 15 -2 28 12 14 11 15 -6
1 -18 -14 -19 -13 -14 8 7 25 0 30 -9 6z"/>
<path d="M17960 15019 c-13 -9 -13 -10 0 -6 9 3 24 -10 39 -32 12 -20 20 -27
16 -16 -4 11 -8 26 -8 33 0 6 -3 10 -5 7 -3 -3 -10 2 -16 10 -8 11 -15 12 -26
4z"/>
<path d="M18045 14930 c10 -11 20 -20 22 -20 2 0 -2 9 -9 20 -7 11 -17 20 -22
20 -5 0 -1 -9 9 -20z"/>
<path d="M18060 14945 c0 -2 6 -8 13 -14 10 -8 14 -7 14 2 0 8 -6 14 -14 14
-7 0 -13 -1 -13 -2z"/>
<path d="M18111 14887 c-13 -17 20 -51 59 -61 23 -5 23 -5 -3 7 -15 7 -25 16
-22 20 3 4 2 5 -2 2 -3 -3 -12 0 -20 6 -10 9 -10 15 -2 25 6 8 9 14 6 14 -2 0
-10 -6 -16 -13z"/>
<path d="M18135 14880 c-3 -5 -1 -10 4 -10 6 0 11 5 11 10 0 6 -2 10 -4 10 -3
0 -8 -4 -11 -10z"/>
<path d="M18205 14780 c-3 -5 -2 -10 4 -10 5 0 13 5 16 10 3 6 2 10 -4 10 -5
0 -13 -4 -16 -10z"/>
<path d="M18226 14762 c-3 -5 1 -9 9 -9 8 0 15 4 15 9 0 4 -4 8 -9 8 -6 0 -12
-4 -15 -8z"/>
<path d="M18230 14735 c0 -7 30 -13 34 -7 3 4 -4 9 -15 9 -10 1 -19 0 -19 -2z"/>
<path d="M18266 14715 c-11 -8 -17 -15 -14 -15 4 0 13 -3 22 -6 11 -4 14 0 13
15 -1 12 -1 21 -2 21 0 0 -9 -7 -19 -15z"/>
<path d="M18300 14686 c0 -2 7 -7 16 -10 8 -3 12 -2 9 4 -6 10 -25 14 -25 6z"/>
<path d="M18390 14601 c0 -6 4 -13 10 -16 6 -3 7 1 4 9 -7 18 -14 21 -14 7z"/>
<path d="M18463 14476 c-9 -11 -3 -21 27 -51 22 -21 38 -41 37 -44 -1 -3 1 -7
6 -8 16 -6 19 -2 9 10 -6 6 -11 15 -11 20 -1 4 -3 7 -6 7 -3 0 -16 10 -30 22
-16 14 -23 28 -19 40 6 21 3 22 -13 4z"/>
<path d="M18490 14461 c0 -6 4 -12 8 -15 5 -3 9 1 9 9 0 8 -4 15 -9 15 -4 0
-8 -4 -8 -9z"/>
<path d="M18550 14398 c0 -4 4 -8 9 -8 6 0 12 4 15 8 3 5 -1 9 -9 9 -8 0 -15
-4 -15 -9z"/>
<path d="M18547 14354 c-8 -8 21 -44 34 -44 5 0 7 10 5 23 -3 22 -26 34 -39
21z m30 -19 c0 -11 -4 -12 -14 -4 -7 6 -13 13 -13 15 0 2 6 4 13 4 8 0 14 -7
14 -15z"/>
<path d="M18595 14268 c-5 -7 -4 -9 0 -5 5 4 15 -3 22 -15 9 -17 12 -19 13 -6
0 9 3 18 8 21 4 2 2 3 -4 1 -6 -1 -16 2 -22 8 -6 6 -12 5 -17 -4z"/>
<path d="M18640 14240 c0 -5 5 -10 11 -10 5 0 7 5 4 10 -3 6 -8 10 -11 10 -2
0 -4 -4 -4 -10z"/>
<path d="M18696 14113 c-3 -8 1 -10 12 -6 14 6 15 4 5 -9 -13 -15 -8 -28 10
-28 5 0 7 6 4 13 -2 6 -1 19 4 27 5 12 2 16 -12 16 -10 0 -21 -6 -23 -13z"/>
<path d="M18746 14062 c6 -4 16 -16 21 -27 10 -18 11 -17 10 6 -2 17 -8 26
-22 27 -11 0 -15 -2 -9 -6z"/>
<path d="M18773 13990 c-9 -14 -10 -21 -1 -26 6 -4 9 -3 6 2 -8 12 17 35 28
26 4 -4 4 -1 0 6 -10 17 -19 15 -33 -8z"/>
<path d="M18915 13761 c-3 -5 -2 -12 3 -15 5 -3 9 1 9 9 0 17 -3 19 -12 6z"/>
<path d="M18955 13659 c-4 -6 -5 -12 -2 -15 2 -3 7 2 10 11 7 17 1 20 -8 4z"/>
<path d="M18974 13602 c4 -3 14 -7 22 -8 9 -1 13 0 10 4 -4 3 -14 7 -22 8 -9
1 -13 0 -10 -4z"/>
<path d="M18990 13557 c-21 -16 -19 -36 4 -53 11 -8 14 -14 8 -14 -10 0 -10
-5 -1 -22 7 -13 12 -24 11 -25 -1 -2 -2 -4 -1 -5 0 -2 2 -11 4 -22 2 -10 8
-23 13 -28 12 -12 39 0 39 17 0 8 -3 12 -7 10 -3 -2 -12 0 -20 6 -12 7 -11 9
5 9 18 1 18 2 -3 10 -26 11 -42 42 -24 48 13 4 17 23 5 21 -20 -3 -29 3 -30
21 -1 11 2 18 6 16 4 -3 8 1 8 9 0 8 -1 15 -1 15 -1 0 -8 -6 -16 -13z m60
-158 c0 -14 -17 -10 -23 5 -4 10 -1 13 9 9 7 -3 14 -9 14 -14z"/>
<path d="M19030 13472 c0 -15 28 -23 36 -9 4 7 4 9 -1 5 -4 -4 -14 -3 -22 3
-8 7 -13 8 -13 1z"/>
<path d="M19068 13373 c7 -3 16 -2 19 1 4 3 -2 6 -13 5 -11 0 -14 -3 -6 -6z"/>
<path d="M19107 13299 c7 -7 15 -10 18 -7 3 3 -2 9 -12 12 -14 6 -15 5 -6 -5z"/>
<path d="M19126 13242 c-3 -5 1 -9 9 -9 8 0 12 4 9 9 -3 4 -7 8 -9 8 -2 0 -6
-4 -9 -8z"/>
<path d="M19140 13160 c0 -5 -7 -10 -15 -10 -19 0 -19 -11 -2 -35 11 -14 16
-15 22 -5 5 8 4 11 -2 7 -6 -4 -13 0 -16 8 -4 8 -1 12 6 9 7 -2 13 4 14 16 1
11 0 20 -3 20 -2 0 -4 -4 -4 -10z"/>
<path d="M19148 13096 c-17 -13 -19 -40 -4 -43 16 -3 25 -27 13 -35 -9 -6 -8
-8 3 -8 13 0 13 -1 0 -10 -11 -7 -12 -10 -2 -10 9 0 11 -7 7 -19 -4 -14 0 -23
15 -31 12 -7 18 -16 13 -23 -16 -25 -10 -57 14 -72 13 -9 30 -14 36 -11 7 2 4
5 -6 5 -11 1 -15 6 -11 13 4 6 3 8 -3 5 -7 -4 -11 2 -11 16 0 27 -5 48 -15 65
-5 6 -6 12 -2 12 3 0 0 10 -7 23 -16 28 -17 58 -4 76 8 11 8 13 -1 7 -7 -4
-18 -4 -25 0 -8 5 -6 10 8 15 17 7 17 8 1 8 -10 1 -16 5 -12 11 3 5 12 7 20 3
8 -3 15 -3 15 0 0 12 -27 14 -42 3z m37 -136 c3 -5 1 -10 -4 -10 -6 0 -11 5
-11 10 0 6 2 10 4 10 3 0 8 -4 11 -10z m25 -79 c0 -6 -4 -12 -8 -15 -5 -3 -9
1 -9 9 0 8 4 15 9 15 4 0 8 -4 8 -9z"/>
<path d="M19199 13038 c-8 -16 -3 -45 7 -45 10 0 11 4 3 13 -6 7 -8 18 -4 24
3 5 4 10 1 10 -3 0 -7 -1 -7 -2z"/>
<path d="M19215 12959 c-4 -6 -5 -12 -2 -15 2 -3 7 2 10 11 7 17 1 20 -8 4z"/>
<path d="M19296 12602 c-3 -5 1 -9 9 -9 8 0 12 4 9 9 -3 4 -7 8 -9 8 -2 0 -6
-4 -9 -8z"/>
<path d="M19333 12475 c0 -8 4 -12 9 -9 5 3 6 10 3 15 -9 13 -12 11 -12 -6z"/>
<path d="M19333 12435 c0 -8 4 -12 9 -9 5 3 6 10 3 15 -9 13 -12 11 -12 -6z"/>
<path d="M19301 12396 c-9 -10 -7 -17 6 -27 9 -8 14 -9 10 -2 -4 7 0 13 10 16
15 4 15 5 -2 6 -17 1 -18 3 -5 11 8 5 10 10 4 10 -6 0 -17 -6 -23 -14z"/>
<path d="M19336 12358 c3 -4 11 -5 19 -1 21 7 19 12 -4 10 -11 0 -18 -5 -15
-9z"/>
<path d="M19350 12239 c0 -6 -6 -9 -13 -6 -8 3 -14 -1 -14 -8 0 -10 5 -11 17
-5 10 5 19 7 22 5 3 -3 5 2 5 10 0 8 -4 15 -9 15 -4 0 -8 -5 -8 -11z"/>
<path d="M19388 12094 c6 -12 9 -24 6 -27 -3 -3 -1 -14 5 -24 8 -15 9 -12 6
16 -2 19 -9 39 -16 45 -9 8 -9 6 -1 -10z"/>
<path d="M19437 11763 c-10 -9 -9 -23 1 -23 5 0 9 7 9 15 0 17 -1 18 -10 8z"/>
<path d="M19455 11500 c3 -5 8 -10 11 -10 2 0 4 5 4 10 0 6 -5 10 -11 10 -5 0
-7 -4 -4 -10z"/>
<path d="M19464 11268 c-12 -36 -13 -48 -3 -48 6 0 9 6 8 13 -3 25 1 38 11 32
6 -3 7 1 4 9 -8 21 -11 20 -20 -6z"/>
<path d="M19491 10964 c0 -11 3 -14 6 -6 3 7 2 16 -1 19 -3 4 -6 -2 -5 -13z"/>
<path d="M19513 10795 c0 -8 4 -12 9 -9 4 3 8 9 8 15 0 5 -4 9 -8 9 -5 0 -9
-7 -9 -15z"/>
<path d="M19475 10740 c-3 -5 -1 -11 5 -15 6 -4 8 -10 5 -15 -3 -4 2 -13 9
-19 11 -9 14 -9 12 1 -1 7 -5 18 -9 25 -4 6 -2 13 5 15 8 3 6 7 -5 11 -9 3
-19 2 -22 -3z"/>
<path d="M19510 10620 c0 -5 5 -10 11 -10 5 0 7 5 4 10 -3 6 -8 10 -11 10 -2
0 -4 -4 -4 -10z"/>
<path d="M19515 10569 c-4 -6 -5 -12 -2 -15 2 -3 7 2 10 11 7 17 1 20 -8 4z"/>
<path d="M19490 10541 c0 -5 7 -15 17 -22 15 -13 15 -12 4 9 -12 23 -21 28
-21 13z"/>
<path d="M19478 10513 c6 -2 12 -9 12 -14 0 -6 -6 -7 -12 -3 -9 5 -9 2 1 -9 7
-9 10 -17 5 -17 -5 0 -10 -18 -10 -40 -1 -30 3 -41 18 -46 10 -3 16 -9 14 -13
-3 -4 2 -8 11 -8 12 0 11 5 -7 19 -12 10 -19 18 -15 18 4 0 2 7 -5 15 -10 12
-10 15 0 15 7 0 10 7 6 16 -4 9 -1 23 5 30 13 16 -4 45 -25 43 -7 0 -6 -2 2
-6z"/>
<path d="M19510 10459 c0 -5 5 -7 10 -4 6 3 10 8 10 11 0 2 -4 4 -10 4 -5 0
-10 -5 -10 -11z"/>
<path d="M19520 10436 c-9 -11 -9 -19 0 -33 11 -17 11 -17 6 1 -4 10 -1 25 5
32 6 8 9 14 6 14 -2 0 -10 -7 -17 -14z"/>
<path d="M19476 10367 c3 -8 1 -18 -5 -22 -7 -4 -8 -13 -3 -23 5 -9 8 -43 7
-74 -1 -34 3 -58 9 -58 6 0 5 -5 -2 -12 -16 -16 -15 -31 2 -25 7 3 24 -1 37
-10 l24 -15 -24 21 c-13 12 -20 21 -17 21 4 0 -1 11 -10 25 -15 23 -15 25 0
31 9 3 13 11 10 16 -4 6 -10 5 -16 -3 -8 -11 -9 -11 -5 1 2 9 14 14 28 13 l24
-2 -23 11 c-26 13 -25 35 3 63 12 11 13 14 4 7 -14 -11 -22 -11 -36 -2 -15 10
-16 11 -1 6 10 -3 20 0 24 6 4 7 3 8 -4 4 -7 -4 -12 -1 -12 8 0 8 -4 18 -10
21 -5 3 -7 0 -4 -8z"/>
<path d="M19517 10303 c-10 -9 -9 -23 1 -23 5 0 9 7 9 15 0 17 -1 18 -10 8z"/>
<path d="M19510 10220 c-11 -7 -11 -10 -2 -10 8 0 10 -5 6 -12 -4 -7 -3 -9 1
-5 7 6 17 37 12 37 -1 0 -9 -5 -17 -10z"/>
<path d="M19479 10129 c-12 -7 -12 -9 0 -9 10 0 11 -4 3 -12 -14 -18 -13 -30
5 -50 13 -15 14 -18 1 -23 -7 -3 -15 -15 -15 -28 -2 -17 0 -19 7 -7 5 8 10 11
10 6 0 -5 7 -2 17 5 9 8 17 12 19 9 1 -3 5 -2 9 2 9 9 -16 5 -32 -5 -7 -5 -13
-4 -13 2 0 5 5 13 10 16 6 4 8 11 5 16 -4 5 0 9 7 9 8 0 6 5 -5 11 -14 8 -16
14 -6 25 6 8 8 14 3 14 -5 0 -3 4 4 9 11 7 11 9 -1 14 -7 3 -20 1 -28 -4z"/>
<path d="M19519 10093 c-13 -16 -12 -17 4 -4 9 7 17 15 17 17 0 8 -8 3 -21
-13z"/>
<path d="M19510 9990 c0 -5 5 -10 11 -10 5 0 7 5 4 10 -3 6 -8 10 -11 10 -2 0
-4 -4 -4 -10z"/>
<path d="M19480 9980 c-10 -6 -11 -10 -2 -10 6 0 12 -5 12 -11 0 -5 -5 -7 -12
-3 -7 5 -8 3 -4 -5 5 -7 10 -10 13 -7 3 3 15 1 27 -5 19 -9 19 -9 4 4 -10 8
-15 17 -11 20 3 4 1 7 -6 7 -7 0 -9 5 -6 10 8 12 4 12 -15 0z"/>
<path d="M19473 9913 c1 -13 5 -23 9 -23 4 0 8 -5 8 -11 0 -5 -4 -8 -9 -4 -5
3 -12 1 -15 -4 -4 -5 -2 -12 3 -15 5 -4 12 -2 16 4 3 5 12 10 18 10 7 -1 1
-10 -12 -20 -13 -11 -18 -20 -12 -20 6 0 11 -5 11 -11 0 -5 -5 -7 -12 -3 -6 4
-8 3 -4 -4 3 -6 2 -14 -4 -17 -7 -5 -8 -11 -1 -19 11 -13 10 -34 -2 -53 -5 -7
1 -17 15 -24 13 -6 20 -8 16 -4 -4 4 0 14 10 22 15 13 15 13 -5 4 -34 -17 -40
-12 -13 9 14 11 19 20 13 20 -7 0 -13 4 -13 10 0 5 8 7 18 3 9 -3 14 -3 10 1
-3 4 -14 9 -25 11 -10 2 -19 4 -21 4 -6 2 26 31 33 31 3 0 3 -6 -1 -12 -5 -9
-2 -9 9 1 20 16 22 22 5 19 -18 -4 -17 24 1 46 9 11 11 16 4 13 -6 -4 -14 -3
-18 2 -3 5 3 14 12 20 10 6 13 11 6 11 -6 0 -15 -5 -19 -11 -4 -8 -11 -3 -20
12 -13 24 -13 24 -11 2z"/>
<path d="M19490 9919 c0 -5 5 -7 10 -4 6 3 10 8 10 11 0 2 -4 4 -10 4 -5 0
-10 -5 -10 -11z"/>
<path d="M19506 9683 c-6 -14 -5 -15 5 -6 7 7 10 15 7 18 -3 3 -9 -2 -12 -12z"/>
<path d="M19481 9651 c-20 -13 -23 -41 -4 -48 11 -5 12 -8 2 -14 -15 -9 -20
-97 -6 -106 6 -3 7 -1 3 5 -6 11 6 17 27 13 4 -1 3 8 -3 19 -6 11 -8 26 -4 32
4 6 3 8 -3 5 -6 -4 -14 0 -17 9 -5 12 -1 14 17 9 17 -5 19 -4 7 4 -13 10 -13
11 0 11 9 1 6 6 -9 14 -20 11 -21 14 -7 19 10 4 15 11 12 16 -4 5 0 12 6 14 7
3 9 6 3 6 -5 0 -16 -3 -24 -8z m9 -131 c0 -5 -4 -10 -10 -10 -5 0 -10 5 -10
10 0 6 5 10 10 10 6 0 10 -4 10 -10z"/>
<path d="M19507 9627 c-3 -8 1 -14 8 -14 7 0 11 6 8 14 -3 7 -6 13 -8 13 -2 0
-5 -6 -8 -13z"/>
<path d="M19490 9481 c0 -5 8 -15 18 -22 15 -12 16 -12 5 2 -7 9 -10 19 -6 22
3 4 1 7 -5 7 -7 0 -12 -4 -12 -9z"/>
<path d="M19513 9425 c0 -8 4 -12 9 -9 5 3 6 10 3 15 -9 13 -12 11 -12 -6z"/>
<path d="M19436 8900 c1 -14 3 -27 4 -30 1 -3 2 -8 1 -12 0 -4 6 -5 15 -1 11
4 12 8 4 13 -9 6 -9 9 -1 15 9 5 9 11 -1 23 -11 13 -10 15 5 9 10 -4 16 -3 12
2 -3 6 -14 9 -24 8 -13 -1 -17 -8 -15 -27z m19 1 c3 -5 2 -12 -3 -15 -5 -3 -9
1 -9 9 0 17 3 19 12 6z"/>
<path d="M19460 8839 c0 -5 5 -7 10 -4 6 3 10 8 10 11 0 2 -4 4 -10 4 -5 0
-10 -5 -10 -11z"/>
<path d="M19429 8838 c-5 -15 -4 -56 2 -55 4 1 15 -7 24 -18 16 -20 16 -20 5
2 -5 12 -15 25 -20 28 -6 4 -8 11 -4 16 3 6 11 3 18 -7 10 -14 13 -14 13 -2 0
12 -35 45 -38 36z"/>
<path d="M19433 8445 c0 -8 4 -12 9 -9 5 3 6 10 3 15 -9 13 -12 11 -12 -6z"/>
<path d="M19415 8380 c3 -5 8 -10 11 -10 2 0 4 5 4 10 0 6 -5 10 -11 10 -5 0
-7 -4 -4 -10z"/>
<path d="M19373 8348 c2 -13 8 -21 12 -20 4 2 11 -2 16 -9 4 -8 10 -11 14 -8
3 3 -6 18 -20 33 -25 27 -25 27 -22 4z"/>
<path d="M19371 8303 c1 -5 0 -10 -1 -13 -2 -6 -7 -25 -14 -57 -3 -14 0 -23 7
-23 7 0 6 -4 -3 -10 -13 -9 -13 -10 0 -10 12 -1 12 -2 -2 -10 -23 -14 -16 -43
13 -46 13 -2 18 0 11 3 -10 4 -9 9 5 20 17 13 16 13 -4 4 -12 -6 -24 -7 -27
-2 -3 5 4 11 17 15 13 3 18 9 12 13 -16 12 -17 34 -3 51 10 12 10 14 1 8 -7
-4 -13 -3 -13 2 0 16 13 22 26 11 8 -7 14 -6 20 2 4 7 3 9 -3 6 -6 -4 -16 0
-23 8 -10 12 -9 15 6 15 16 0 17 2 4 10 -18 12 -30 13 -29 3z"/>
<path d="M19390 8219 c0 -5 5 -7 10 -4 6 3 10 8 10 11 0 2 -4 4 -10 4 -5 0
-10 -5 -10 -11z"/>
<path d="M19379 8083 c-1 -5 -1 -11 0 -15 0 -5 -6 -8 -15 -8 -8 0 -12 4 -9 10
3 6 -1 7 -10 4 -21 -9 -4 -27 20 -22 15 2 32 38 19 38 -2 0 -5 -3 -5 -7z"/>
<path d="M19336 7995 c-3 -8 -1 -15 4 -15 6 0 10 7 10 15 0 8 -2 15 -4 15 -2
0 -6 -7 -10 -15z"/>
<path d="M19269 7718 c-1 -2 -2 -18 -4 -35 -2 -32 18 -63 32 -49 3 3 2 6 -4 6
-6 0 -9 17 -7 40 2 22 -1 40 -7 40 -5 0 -10 -1 -10 -2z"/>
<path d="M19270 7579 c0 -5 5 -7 10 -4 6 3 10 8 10 11 0 2 -4 4 -10 4 -5 0
-10 -5 -10 -11z"/>
<path d="M19255 7501 c-3 -6 -10 -9 -15 -6 -4 3 -13 -1 -19 -9 -8 -10 -5 -15
14 -24 18 -8 26 -8 31 0 4 7 3 8 -4 4 -7 -4 -12 -1 -12 8 0 8 6 16 13 19 6 2
9 7 6 11 -4 4 -10 2 -14 -3z"/>
<path d="M19208 7453 c-8 -15 -3 -36 10 -40 6 -3 12 0 12 6 0 6 8 8 18 4 9 -3
15 -4 12 -2 -3 2 -15 12 -27 22 -11 10 -23 15 -25 10z m17 -12 c3 -5 2 -12 -3
-15 -5 -3 -9 1 -9 9 0 17 3 19 12 6z"/>
<path d="M19182 7357 c0 -7 -3 -22 -6 -35 -3 -13 -1 -20 5 -17 5 4 7 11 4 16
-4 5 -2 9 3 9 11 0 26 -30 23 -43 -1 -5 3 -6 9 -2 7 4 5 13 -4 27 -8 11 -12
26 -10 33 3 7 -1 15 -9 18 -7 3 -14 0 -15 -6z"/>
<path d="M19182 7291 c-11 -6 -10 -10 0 -19 11 -8 14 -7 14 9 0 10 0 19 -1 19
0 0 -6 -4 -13 -9z"/>
<path d="M19142 7217 c-1 -7 -3 -27 -5 -44 -3 -18 -1 -33 4 -33 5 0 10 5 10
10 1 6 2 15 3 21 0 6 9 16 18 23 16 12 16 14 -6 24 -16 7 -23 7 -24 -1z m28
-11 c0 -2 -7 -9 -15 -16 -13 -11 -14 -10 -9 4 5 14 24 23 24 12z"/>
<path d="M19176 7182 c-3 -5 1 -9 9 -9 8 0 12 4 9 9 -3 4 -7 8 -9 8 -2 0 -6
-4 -9 -8z"/>
<path d="M19118 7103 c10 -4 8 -8 -5 -18 -26 -19 -25 -61 2 -62 11 -1 14 1 8
4 -7 3 -13 9 -13 14 0 6 6 7 13 3 8 -5 7 -2 -2 9 -8 10 -11 20 -7 24 3 4 13
-2 22 -13 14 -18 15 -18 4 4 -8 17 -8 22 2 22 9 0 9 3 -2 10 -8 5 -19 9 -25 9
-5 0 -4 -3 3 -6z"/>
<path d="M19120 7006 c0 -2 7 -7 16 -10 8 -3 12 -2 9 4 -6 10 -25 14 -25 6z"/>
<path d="M19110 6971 c0 -6 4 -12 8 -15 5 -3 9 1 9 9 0 8 -4 15 -9 15 -4 0 -8
-4 -8 -9z"/>
<path d="M19038 6860 c-9 -6 -15 -18 -14 -27 2 -10 -3 -23 -10 -30 -7 -7 -11
-21 -10 -30 2 -10 -2 -21 -7 -25 -15 -9 -16 -45 -1 -45 7 0 10 7 6 16 -5 14
-4 14 14 1 17 -13 18 -13 8 0 -6 8 -11 23 -11 33 0 17 6 20 40 20 10 0 15 2
12 6 -6 6 -10 7 -36 10 -5 0 -7 6 -4 11 4 6 11 8 16 4 5 -3 8 -1 7 5 -2 5 6
17 17 26 20 16 20 16 -2 6 -14 -7 -24 -8 -28 -1 -3 5 1 10 9 10 8 0 18 5 21
10 8 13 -5 12 -27 0z"/>
<path d="M19033 6745 c0 -8 4 -12 9 -9 5 3 6 10 3 15 -9 13 -12 11 -12 -6z"/>
<path d="M18958 6673 c-7 -9 -7 -13 1 -13 6 0 11 5 11 11 0 5 4 8 8 5 4 -2 14
-1 22 4 11 7 9 9 -8 7 -13 -1 -28 -7 -34 -14z"/>
<path d="M18949 6648 c-6 -22 -5 -39 3 -45 6 -3 8 -1 4 5 -3 6 2 13 11 15 15
4 15 5 -2 6 -17 1 -18 3 -5 11 10 6 11 10 3 10 -7 0 -13 -1 -14 -2z"/>
<path d="M18855 6440 c-10 -11 -15 -20 -11 -20 4 0 2 -10 -5 -21 -9 -17 -8
-20 2 -14 9 6 11 3 6 -8 -4 -11 -2 -14 9 -10 9 3 11 9 6 17 -14 17 -11 48 4
42 9 -3 11 1 7 11 -4 11 -2 14 5 9 7 -4 12 -2 12 3 0 17 -15 13 -35 -9z"/>
<path d="M18890 6419 c0 -5 5 -7 10 -4 6 3 10 8 10 11 0 2 -4 4 -10 4 -5 0
-10 -5 -10 -11z"/>
<path d="M18870 6400 c0 -5 5 -10 11 -10 5 0 7 5 4 10 -3 6 -8 10 -11 10 -2 0
-4 -4 -4 -10z"/>
<path d="M18806 6341 c2 -2 0 -9 -6 -15 -6 -8 -2 -16 11 -24 11 -7 19 -8 19
-2 0 5 -4 10 -10 10 -5 0 -10 5 -10 11 0 5 5 7 10 4 6 -3 10 -1 10 5 0 6 5 8
10 5 6 -3 10 -2 10 3 0 6 -11 9 -24 8 -13 0 -22 -3 -20 -5z"/>
<path d="M18776 6275 c-11 -17 -13 -26 -4 -31 7 -5 8 -3 3 6 -6 10 -4 12 7 7
12 -4 15 0 11 16 -4 18 -3 19 6 7 7 -9 11 -10 11 -3 0 23 -18 22 -34 -2z"/>
<path d="M18770 6219 c0 -5 -4 -8 -9 -4 -5 3 -13 0 -17 -7 -4 -7 -4 -10 1 -6
4 4 13 4 19 -2 8 -6 12 -3 13 11 1 10 0 19 -3 19 -2 0 -4 -5 -4 -11z"/>
<path d="M18716 6138 c3 -5 10 -6 15 -3 13 9 11 12 -6 12 -8 0 -12 -4 -9 -9z"/>
<path d="M18746 6125 c-11 -8 -15 -15 -9 -15 6 0 16 7 23 15 16 19 11 19 -14
0z"/>
<path d="M18695 6121 c3 -6 -4 -15 -15 -21 -12 -6 -19 -17 -17 -23 2 -6 -5
-19 -16 -27 -18 -15 -18 -16 2 -17 13 -1 21 4 21 13 0 8 5 12 10 9 6 -3 10 -1
10 4 0 6 -4 11 -10 11 -18 0 -10 16 15 30 23 12 25 30 4 30 -6 0 -8 -4 -4 -9z"/>
<path d="M18700 6080 c0 -5 7 -7 15 -4 8 4 15 8 15 10 0 2 -7 4 -15 4 -8 0
-15 -4 -15 -10z"/>
<path d="M18588 5953 c10 -4 10 -8 1 -19 -6 -8 -15 -11 -20 -8 -5 3 -9 0 -9
-5 0 -14 17 -14 25 -1 4 6 12 7 18 4 7 -4 9 -4 5 1 -4 4 -4 13 2 19 6 8 2 12
-13 13 -12 0 -16 -1 -9 -4z"/>
<path d="M18616 5898 c3 -5 10 -6 15 -3 13 9 11 12 -6 12 -8 0 -12 -4 -9 -9z"/>
<path d="M18507 5836 c-5 -12 -3 -15 5 -10 8 5 9 1 4 -12 -5 -14 -4 -16 4 -7
8 7 9 17 3 28 -9 16 -10 16 -16 1z"/>
<path d="M18415 5690 c3 -5 8 -10 11 -10 2 0 4 5 4 10 0 6 -5 10 -11 10 -5 0
-7 -4 -4 -10z"/>
<path d="M18386 5673 c-8 -25 -7 -33 1 -30 5 1 6 9 5 16 -3 13 -2 13 14 0 16
-13 16 -12 5 9 -14 27 -18 27 -25 5z"/>
<path d="M18437 5675 c-4 -8 -3 -16 1 -19 4 -3 9 4 9 15 2 23 -3 25 -10 4z"/>
<path d="M18350 5620 c0 -6 -4 -9 -9 -6 -5 3 -15 -2 -22 -12 -13 -15 -12 -16
3 -4 11 9 18 10 23 2 3 -5 1 -10 -5 -10 -6 0 -8 -5 -5 -11 11 -16 15 -8 24 41
1 3 6 -2 12 -10 9 -12 10 -12 7 -1 -5 18 -28 27 -28 11z"/>
<path d="M18259 5533 c-8 -9 -9 -14 -2 -10 6 4 13 1 16 -5 2 -8 8 -9 13 -4 5
5 4 11 -4 13 -6 3 -10 9 -6 14 9 15 -3 10 -17 -8z"/>
<path d="M18242 5503 c-20 -8 -34 -41 -20 -49 7 -4 8 -3 4 4 -6 11 5 16 26 13
4 0 4 7 1 16 -5 12 -3 14 7 8 9 -5 11 -4 6 3 -4 7 -8 12 -9 11 -1 0 -8 -3 -15
-6z"/>
<path d="M18175 5399 c-4 -6 -4 -13 -1 -16 3 -4 6 -1 6 6 0 8 6 11 16 7 8 -3
12 -2 9 4 -8 13 -22 13 -30 -1z"/>
<path d="M18110 5361 c0 -6 4 -13 10 -16 6 -3 7 1 4 9 -7 18 -14 21 -14 7z"/>
<path d="M18069 5337 c-6 -9 -4 -45 2 -41 4 2 6 11 2 19 -7 20 7 19 21 -1 10
-14 12 -13 12 3 0 11 -8 20 -18 20 -10 1 -19 1 -19 0z"/>
<path d="M17954 5227 c-4 -7 -4 -9 1 -5 4 4 14 3 22 -3 8 -7 13 -8 13 -1 0 15
-28 23 -36 9z"/>
<path d="M17906 5182 c-3 -4 4 -9 15 -9 23 -2 25 3 4 10 -8 4 -16 3 -19 -1z"/>
<path d="M17845 5130 c-10 -11 -14 -20 -9 -20 5 0 15 9 22 20 7 11 11 20 9 20
-2 0 -12 -9 -22 -20z"/>
<path d="M17866 5098 c3 -5 10 -6 15 -3 13 9 11 12 -6 12 -8 0 -12 -4 -9 -9z"/>
<path d="M17705 5000 c-3 -6 1 -7 9 -4 18 7 21 14 7 14 -6 0 -13 -4 -16 -10z"/>
<path d="M17656 4981 c8 -8 43 -8 38 0 -2 4 -13 7 -24 6 -10 -1 -17 -3 -14 -6z"/>
<path d="M17624 4969 c-4 -8 -3 -9 4 -5 19 11 14 -5 -5 -21 -16 -13 -16 -13 5
-3 12 6 22 15 22 20 0 15 -18 21 -26 9z"/>
<path d="M17533 4892 c-3 -7 -3 -16 1 -19 3 -4 6 1 6 11 0 9 4 15 8 12 4 -2
14 -1 22 4 11 7 9 9 -9 7 -13 -1 -26 -7 -28 -15z"/>
<path d="M17215 4720 c-3 -5 -1 -10 4 -10 6 0 11 5 11 10 0 6 -2 10 -4 10 -3
0 -8 -4 -11 -10z"/>
<path d="M17133 4665 c0 -8 4 -12 9 -9 5 3 6 10 3 15 -9 13 -12 11 -12 -6z"/>
<path d="M17053 4625 c0 -8 4 -12 9 -9 5 3 6 10 3 15 -9 13 -12 11 -12 -6z"/>
<path d="M16906 4563 c-6 -14 -5 -15 5 -6 7 7 10 15 7 18 -3 3 -9 -2 -12 -12z"/>
<path d="M16830 4536 c0 -2 8 -10 18 -17 15 -13 16 -12 3 4 -13 16 -21 21 -21
13z"/>
<path d="M16745 4509 c-4 -6 -4 -13 -1 -16 3 -4 6 -1 6 6 0 7 5 9 12 5 7 -4 8
-3 4 4 -9 15 -13 15 -21 1z"/>
<path d="M15830 4249 c0 -5 5 -7 10 -4 6 3 10 8 10 11 0 2 -4 4 -10 4 -5 0
-10 -5 -10 -11z"/>
<path d="M15580 4206 c0 -2 8 -10 18 -17 15 -13 16 -12 3 4 -13 16 -21 21 -21
13z"/>
<path d="M12135 4090 c-3 -5 -5 -10 -3 -11 27 -6 39 -5 45 4 3 7 3 9 -2 5 -4
-4 -14 -3 -21 3 -8 7 -14 7 -19 -1z"/>
<path d="M12109 4083 c0 -5 -2 -16 -4 -25 -4 -23 6 -29 26 -15 13 11 13 14 -3
30 -10 9 -18 14 -19 10z m16 -22 c3 -5 2 -12 -3 -15 -5 -3 -9 1 -9 9 0 17 3
19 12 6z"/>
<path d="M12109 3964 c-7 -43 -3 -72 10 -88 14 -17 14 -19 0 -14 -12 5 -15 -1
-14 -31 0 -20 4 -35 8 -33 4 1 14 5 22 8 8 4 15 11 15 16 0 6 -6 6 -14 -1 -10
-8 -16 -9 -21 -1 -3 5 -2 10 3 10 17 0 21 40 5 55 -8 8 -10 15 -4 15 6 0 11 5
11 11 0 5 -4 7 -10 4 -16 -10 -11 7 6 19 14 11 14 13 0 25 -9 8 -17 10 -17 5z"/>
<path d="M12148 3923 c10 -4 10 -8 0 -21 -12 -15 -11 -16 4 -3 19 14 15 32 -5
30 -8 0 -8 -2 1 -6z"/>
<path d="M12109 3724 c-7 -43 -3 -72 10 -88 14 -17 14 -19 0 -14 -12 5 -15 -1
-14 -31 0 -20 4 -35 8 -33 4 1 14 5 22 8 8 4 15 11 15 16 0 6 -6 6 -14 -1 -10
-8 -16 -9 -21 -1 -3 5 -2 10 3 10 17 0 21 40 5 55 -8 8 -10 15 -4 15 6 0 11 5
11 11 0 5 -4 7 -10 4 -16 -10 -11 7 6 19 14 11 14 13 0 25 -9 8 -17 10 -17 5z"/>
<path d="M12148 3683 c10 -4 10 -8 0 -21 -12 -15 -11 -16 5 -3 9 7 17 17 17
22 0 5 -8 9 -17 8 -12 0 -13 -2 -5 -6z"/>
<path d="M12133 3480 c-3 -11 -9 -20 -14 -20 -5 0 -6 8 -2 18 3 9 2 13 -3 9
-16 -15 -12 -150 5 -171 14 -18 14 -19 0 -14 -12 5 -15 -1 -14 -31 0 -20 4
-35 8 -33 4 1 14 5 22 8 8 4 15 11 15 16 0 6 -6 6 -14 -1 -10 -8 -16 -9 -21
-1 -3 5 -2 10 3 10 17 0 21 40 5 55 -8 8 -10 15 -4 15 6 0 11 7 11 16 0 8 5
12 10 9 6 -4 5 5 -2 19 -6 14 -16 26 -22 26 -6 0 -6 4 2 8 7 5 15 21 18 37 3
16 7 32 10 37 3 4 2 8 -1 8 -4 0 -9 -9 -12 -20z m-3 -34 c0 -3 -4 -8 -10 -11
-5 -3 -10 -1 -10 4 0 6 5 11 10 11 6 0 10 -2 10 -4z m-8 -82 c-9 -16 -10 -14
-9 8 1 15 6 23 11 18 4 -4 4 -16 -2 -26z"/>
<path d="M12155 3440 c3 -5 8 -10 11 -10 2 0 4 5 4 10 0 6 -5 10 -11 10 -5 0
-7 -4 -4 -10z"/>
<path d="M12149 3343 c-13 -16 -12 -17 4 -4 16 13 21 21 13 21 -2 0 -10 -8
-17 -17z"/>
<path d="M12109 3164 c-7 -43 -3 -72 10 -88 14 -17 14 -19 0 -14 -12 5 -15 -1
-14 -31 0 -20 4 -35 8 -33 4 1 14 5 22 8 8 4 15 11 15 16 0 6 -6 6 -14 -1 -10
-8 -16 -9 -21 -1 -3 5 -2 10 3 10 17 0 21 40 5 55 -8 8 -10 15 -4 15 6 0 11 5
11 11 0 5 -4 7 -10 4 -16 -10 -11 7 6 19 14 11 14 13 0 25 -9 8 -17 10 -17 5z"/>
<path d="M12148 3123 c10 -4 10 -8 0 -21 -12 -15 -11 -16 4 -3 19 14 15 32 -5
30 -8 0 -8 -2 1 -6z"/>
<path d="M12109 2924 c-7 -43 -3 -72 10 -88 14 -17 14 -19 0 -14 -12 5 -15 -1
-14 -31 0 -20 4 -35 8 -33 4 1 14 5 22 8 8 4 15 11 15 16 0 6 -6 6 -14 -1 -10
-8 -16 -9 -21 -1 -3 5 -2 10 3 10 17 0 21 40 5 55 -8 8 -10 15 -4 15 6 0 11 5
11 11 0 5 -4 7 -10 4 -16 -10 -11 7 6 19 14 11 14 13 0 25 -9 8 -17 10 -17 5z"/>
<path d="M12103 2715 c0 -7 6 -11 14 -8 7 3 13 6 13 8 0 2 -6 5 -13 8 -8 3
-14 -1 -14 -8z"/>
</g>
</svg>
