<?xml version="1.0" encoding="UTF-8" standalone="no"?>
<!DOCTYPE svg PUBLIC "-//W3C//DTD SVG 1.1//EN" "http://www.w3.org/Graphics/SVG/1.1/DTD/svg11.dtd">
<svg width="100%" height="100%" viewBox="0 0 512 512" version="1.1" xmlns="http://www.w3.org/2000/svg" xmlns:xlink="http://www.w3.org/1999/xlink" xml:space="preserve" xmlns:serif="http://www.serif.com/" style="fill-rule:evenodd;clip-rule:evenodd;stroke-linejoin:round;stroke-miterlimit:2;">
    <path d="M472.215,353.215C478.819,353.215 484.193,347.854 484.193,341.265L484.193,320.504L499.908,320.504C506.575,320.504 511.999,315.079 511.999,308.412L511.999,280.973C511.999,274.306 506.574,268.881 499.908,268.881L478.297,268.881L478.297,186.443C480.413,186.97 482.582,187.248 484.768,187.248C487.142,187.248 489.534,186.935 491.892,186.301C498.916,184.414 504.768,179.92 508.354,173.67C511.977,167.41 512.937,160.092 511.057,153.064C509.176,146.032 504.685,140.166 498.413,136.547L270.569,5.005C266.397,2.578 261.358,1.295 255.998,1.295C250.638,1.295 245.599,2.578 241.449,4.993L13.575,136.55C0.602,144.059 -3.854,160.706 3.637,173.661C7.257,179.934 13.117,184.425 20.14,186.306C24.666,187.518 29.314,187.544 33.728,186.444L33.728,268.88L12.117,268.88C5.449,268.88 0.025,274.305 0.025,280.972L0.025,308.411C0.025,315.078 5.45,320.503 12.117,320.503L27.831,320.503L27.831,341.264C27.831,347.854 33.192,353.214 39.781,353.214L48.807,353.214L48.807,426.37L39.781,426.37C33.192,426.37 27.831,431.743 27.831,438.348L27.831,459.081L12.117,459.081C5.449,459.081 0.025,464.506 0.025,471.173L0.025,498.612C0.025,505.279 5.45,510.704 12.117,510.704L240.352,510.704C244.494,510.704 247.852,507.346 247.852,503.204C247.852,499.062 244.495,495.704 240.352,495.704L15.024,495.704L15.024,474.081L497,474.081L497,495.704L274.961,495.704C270.819,495.704 267.461,499.062 267.461,503.204C267.461,507.346 270.818,510.704 274.961,510.704L499.908,510.704C506.575,510.704 511.999,505.279 511.999,498.612L511.999,471.173C511.999,464.506 506.574,459.081 499.908,459.081L484.193,459.081L484.193,438.348C484.193,431.743 478.819,426.37 472.215,426.37L463.19,426.37L463.19,353.214L472.215,353.214L472.215,353.215ZM135.798,459.082L42.831,459.082L42.831,441.371L135.798,441.371L135.798,459.082ZM194.5,438.349L194.5,459.082L150.797,459.082L150.797,438.349C150.797,431.744 145.437,426.371 138.847,426.371L129.822,426.371L129.822,353.215L138.847,353.215C145.437,353.215 150.797,347.854 150.797,341.265L150.797,320.504L194.5,320.504L194.5,341.265C194.5,347.855 199.874,353.215 206.478,353.215L215.504,353.215L215.504,426.371L206.478,426.371C199.874,426.371 194.5,431.744 194.5,438.349ZM302.496,459.082L209.5,459.082L209.5,441.371L302.496,441.371L302.496,459.082ZM361.198,438.349L361.198,459.082L317.495,459.082L317.495,438.349C317.495,431.744 312.121,426.371 305.517,426.371L296.492,426.371L296.492,353.215L305.517,353.215C312.121,353.215 317.495,347.854 317.495,341.265L317.495,320.504L361.198,320.504L361.198,341.265C361.198,347.855 366.572,353.215 373.177,353.215L382.202,353.215L382.202,426.371L373.177,426.371C366.572,426.371 361.198,431.744 361.198,438.349ZM469.194,441.371L469.194,459.082L376.198,459.082L376.198,441.371L469.194,441.371ZM281.492,353.215L281.492,426.371L230.504,426.371L230.504,353.215L281.492,353.215ZM114.823,353.215L114.823,426.371L63.807,426.371L63.807,353.215L114.823,353.215ZM397.202,426.371L397.202,353.215L448.19,353.215L448.19,426.371L397.202,426.371ZM42.831,338.215L42.831,320.504L135.798,320.504L135.798,338.215L42.831,338.215ZM376.198,338.215L376.198,320.504L469.194,320.504L469.194,338.215L376.198,338.215ZM209.5,338.215L209.5,320.504L302.496,320.504L302.496,338.215L209.5,338.215ZM15.024,283.881L240.352,283.881C244.494,283.881 247.852,280.523 247.852,276.381C247.852,272.239 244.495,268.881 240.352,268.881L48.727,268.881L48.727,179.004L255.998,59.322L463.298,179.005L463.298,268.881L273.714,268.881C269.572,268.881 266.214,272.239 266.214,276.381C266.214,280.523 269.571,283.881 273.714,283.881L497,283.881L497,305.504L15.024,305.504L15.024,283.881ZM226.07,178.849C226.045,178.782 226.018,178.715 225.992,178.648C224.627,175.325 221.426,173.179 217.834,173.179L217.829,173.179C214.234,173.181 211.032,175.332 209.67,178.658C209.647,178.715 209.624,178.772 209.603,178.829L187.733,236.252C186.258,240.123 188.202,244.456 192.073,245.93C195.939,247.405 200.276,245.462 201.751,241.591L205.358,232.12L230.144,232.12L233.71,241.57C234.843,244.573 237.697,246.424 240.728,246.424C241.608,246.424 242.503,246.268 243.375,245.939C247.25,244.476 249.206,240.149 247.743,236.274L226.07,178.849ZM387.951,233.525L361.754,208.251L385.726,186.217C388.776,183.414 388.976,178.669 386.172,175.619C383.37,172.57 378.624,172.369 375.575,175.173L356.428,192.773L356.428,179.95C356.428,175.808 353.071,172.45 348.928,172.45C344.785,172.45 341.428,175.808 341.428,179.95L341.428,238.922C341.428,243.064 344.785,246.422 348.928,246.422C353.071,246.422 356.428,243.064 356.428,238.922L356.428,223.954L377.537,244.32C378.992,245.724 380.869,246.423 382.743,246.423C384.708,246.423 386.67,245.656 388.141,244.131C391.018,241.149 390.933,236.401 387.951,233.525ZM311.601,173.179L311.527,173.179C307.384,173.219 304.059,176.609 304.099,180.751L304.436,215.529L277.501,176.526C275.637,173.825 272.235,172.652 269.097,173.628C265.964,174.605 263.829,177.506 263.829,180.788L263.829,238.923C263.829,243.065 267.186,246.423 271.329,246.423C275.472,246.423 278.829,243.065 278.829,238.923L278.829,204.847L304.467,241.972C306.66,245.143 310.327,246.493 313.804,245.406C317.351,244.299 319.643,240.984 319.643,236.888L319.099,180.607C319.059,176.489 315.709,173.179 311.601,173.179ZM165.528,205.254C167.586,202.018 168.796,198.191 168.796,194.08C168.796,182.555 159.419,173.178 147.894,173.178L130.976,173.178C126.833,173.178 123.476,176.536 123.476,180.678L123.476,238.921C123.476,240.916 124.271,242.829 125.685,244.236C127.09,245.636 128.993,246.421 130.976,246.421L131.009,246.421C131.009,246.421 146.562,246.352 150.849,246.352C163.628,246.352 174.026,235.955 174.026,223.175C174.025,215.962 170.712,209.509 165.528,205.254ZM150.849,231.353C148.567,231.353 143.103,231.373 138.476,231.391L138.476,215.01C139.581,215.006 150.849,214.998 150.849,214.998C155.358,214.998 159.026,218.666 159.026,223.176C159.025,227.685 155.357,231.353 150.849,231.353ZM211.07,217.121L217.807,199.433L224.482,217.121L211.07,217.121ZM147.894,188.179C151.149,188.179 153.796,190.826 153.796,194.081C153.796,197.336 151.149,199.983 147.894,199.983C146.657,199.983 138.476,199.999 138.476,199.999L138.476,188.18L147.894,188.18L147.894,188.179ZM33.256,170.617C30.45,172.235 27.172,172.661 24.02,171.817C20.871,170.973 18.245,168.966 16.629,166.164C16.627,166.161 16.626,166.159 16.624,166.156C13.268,160.357 15.271,152.899 21.082,149.536L248.97,17.971C250.8,16.906 253.362,16.295 255.998,16.295C258.673,16.295 261.169,16.89 263.048,17.983L490.917,149.538C493.717,151.154 495.724,153.783 496.569,156.941C497.413,160.095 496.988,163.368 495.36,166.181C493.759,168.97 491.146,170.971 488.001,171.817C484.848,172.664 481.572,172.241 478.772,170.62L259.748,44.167C258.588,43.497 257.293,43.162 255.998,43.162C254.703,43.162 253.408,43.497 252.248,44.167L33.256,170.617ZM288.611,119.004C288.611,101.63 274.477,87.495 257.103,87.495C239.729,87.495 225.595,101.63 225.595,119.004C225.595,136.378 239.729,150.513 257.103,150.513C274.477,150.513 288.611,136.378 288.611,119.004ZM240.595,119.004C240.595,109.901 248.001,102.495 257.103,102.495C266.205,102.495 273.611,109.901 273.611,119.004C273.611,128.107 266.205,135.513 257.103,135.513C248.001,135.513 240.595,128.107 240.595,119.004Z" style="fill:rgb(185,149,102);fill-rule:nonzero;"/>
</svg>
