<?xml version="1.0" encoding="UTF-8" standalone="no"?>
<!DOCTYPE svg PUBLIC "-//W3C//DTD SVG 1.1//EN" "http://www.w3.org/Graphics/SVG/1.1/DTD/svg11.dtd">
<svg width="100%" height="100%" viewBox="0 0 1536 308" version="1.1" xmlns="http://www.w3.org/2000/svg" xmlns:xlink="http://www.w3.org/1999/xlink" xml:space="preserve" xmlns:serif="http://www.serif.com/" style="fill-rule:evenodd;clip-rule:evenodd;stroke-linejoin:round;stroke-miterlimit:2;">
    <g transform="matrix(-217.822,196.878,196.878,217.822,289.925,121.274)">
        <path d="M0.313,-0.444C0.291,-0.435 0.268,-0.423 0.247,-0.41L0.12,-0.45L0.146,-0.319C0.131,-0.299 0.117,-0.278 0.106,-0.256L0.051,-0.525L0.313,-0.444ZM0.478,-0.429C0.569,-0.424 0.658,-0.385 0.724,-0.312C0.768,-0.263 0.796,-0.206 0.809,-0.147C0.816,-0.112 0.818,-0.077 0.815,-0.042L0.972,-0.184L0.827,-0.229C0.817,-0.252 0.805,-0.274 0.791,-0.295L1.075,-0.207L0.791,0.05L0.749,0.023C0.766,-0.029 0.769,-0.083 0.758,-0.136C0.747,-0.187 0.723,-0.236 0.686,-0.277C0.629,-0.339 0.553,-0.373 0.475,-0.377C0.398,-0.381 0.318,-0.355 0.256,-0.299C0.194,-0.242 0.16,-0.166 0.156,-0.088C0.152,-0.011 0.178,0.069 0.234,0.131C0.272,0.172 0.318,0.201 0.367,0.217C0.419,0.233 0.474,0.236 0.526,0.224L0.549,0.269L0.265,0.525L0.206,0.234C0.225,0.25 0.246,0.264 0.267,0.276L0.298,0.426L0.456,0.283C0.42,0.283 0.385,0.277 0.351,0.266C0.293,0.248 0.239,0.214 0.196,0.166C0.13,0.093 0.1,0 0.104,-0.091C0.109,-0.182 0.148,-0.271 0.221,-0.337C0.294,-0.403 0.387,-0.433 0.478,-0.429ZM0.579,0.124C0.519,0.148 0.477,0.163 0.41,0.148C0.366,0.138 0.326,0.115 0.294,0.079C0.262,0.044 0.243,0.001 0.237,-0.043C0.229,-0.111 0.248,-0.152 0.278,-0.209L0.579,0.124ZM0.293,-0.115C0.287,-0.094 0.286,-0.072 0.289,-0.05C0.293,-0.016 0.308,0.017 0.332,0.044C0.357,0.072 0.388,0.089 0.421,0.097C0.443,0.102 0.465,0.103 0.487,0.1L0.293,-0.115ZM0.512,-0.292C0.556,-0.282 0.596,-0.259 0.628,-0.223C0.66,-0.188 0.679,-0.145 0.685,-0.101C0.693,-0.033 0.674,0.008 0.644,0.065L0.343,-0.268C0.403,-0.292 0.445,-0.307 0.512,-0.292ZM0.633,-0.094C0.629,-0.128 0.614,-0.161 0.59,-0.188C0.565,-0.216 0.534,-0.233 0.501,-0.241C0.479,-0.246 0.457,-0.247 0.435,-0.244L0.629,-0.028C0.635,-0.05 0.636,-0.072 0.633,-0.094Z" style="fill:url(#_Linear1);fill-rule:nonzero;"/>
    </g>
    <g transform="matrix(10.3349,0,0,10.3349,1463.8,239.851)">
        <path d="M0,4.111L0,-0.136C0,-0.674 -0.317,-0.911 -0.82,-0.911L-3.055,-0.911C-4.138,-0.911 -4.424,-0.301 -4.424,0.739C-4.424,1.614 -4.2,2.468 -3.279,2.468L-3.217,2.468L-3.217,2.505L-4.532,4.111L-2.978,4.111L-2.042,2.813C-1.887,2.597 -1.771,2.404 -1.771,2.153L-1.771,1.98C-1.771,1.665 -1.895,1.528 -2.274,1.528L-2.436,1.528C-2.931,1.528 -3.032,1.305 -3.032,0.782C-3.032,0.28 -2.939,0.093 -2.382,0.093L-1.709,0.093C-1.439,0.093 -1.346,0.179 -1.346,0.43L-1.346,4.111L0,4.111ZM-5.232,4.111L-5.232,0.108C-5.232,-0.266 -5.302,-0.969 -6.331,-0.969C-6.748,-0.969 -7.266,-0.918 -7.444,-0.359L-8.318,2.404C-8.357,2.526 -8.396,2.605 -8.458,2.605C-8.535,2.605 -8.55,2.49 -8.55,2.368L-8.496,-0.911L-9.826,-0.911L-9.826,3.135C-9.826,3.624 -9.71,4.169 -8.79,4.169C-8.218,4.169 -7.831,4.033 -7.699,3.645L-6.764,0.861C-6.702,0.681 -6.655,0.589 -6.586,0.589C-6.516,0.589 -6.5,0.674 -6.5,0.767L-6.562,4.111L-5.232,4.111ZM-10.743,-0.911L-12.088,-0.911L-12.088,1.005L-13.635,1.005L-13.635,-0.911L-14.981,-0.911L-14.981,4.111L-13.635,4.111L-13.635,2.009L-12.088,2.009L-12.088,4.111L-10.743,4.111L-10.743,-0.911ZM-17.939,0.395C-17.908,0.301 -17.877,0.237 -17.823,0.237C-17.769,0.237 -17.746,0.301 -17.715,0.395L-17.197,2.074L-18.458,2.074L-17.939,0.395ZM-20.445,4.111L-18.991,4.111L-18.659,3.007L-16.996,3.007L-16.663,4.111L-15.202,4.111L-16.725,-0.344C-16.903,-0.868 -17.282,-0.969 -17.823,-0.969C-18.38,-0.969 -18.751,-0.868 -18.929,-0.344L-20.445,4.111ZM-23.751,4.111L-23.751,0.43C-23.751,0.179 -23.658,0.093 -23.388,0.093L-22.568,0.093C-22.297,0.093 -22.204,0.179 -22.204,0.43L-22.204,4.111L-20.859,4.111L-20.859,-0.136C-20.859,-0.674 -21.176,-0.911 -21.678,-0.911L-24.277,-0.911C-24.78,-0.911 -25.097,-0.674 -25.097,-0.136L-25.097,4.111L-23.751,4.111ZM-27.521,0.646C-27.491,0.516 -27.444,0.473 -27.405,0.473C-27.359,0.473 -27.32,0.524 -27.32,0.632L-27.367,4.111L-26.014,4.111L-26.014,-0.194C-26.014,-0.581 -26.191,-0.969 -27.081,-0.969C-27.614,-0.969 -28.14,-0.854 -28.287,-0.23L-28.975,2.67C-29.006,2.792 -29.053,2.87 -29.115,2.87C-29.177,2.87 -29.223,2.792 -29.254,2.67L-29.942,-0.23C-30.089,-0.854 -30.615,-0.969 -31.156,-0.969C-31.566,-0.969 -32.216,-0.868 -32.216,-0.194L-32.216,4.111L-30.862,4.111L-30.901,0.632C-30.901,0.589 -30.901,0.473 -30.824,0.473C-30.777,0.473 -30.739,0.531 -30.708,0.646L-30.027,3.53C-29.927,3.954 -29.733,4.169 -29.115,4.169C-28.504,4.169 -28.31,3.954 -28.209,3.53L-27.521,0.646ZM-36.35,1.6C-36.35,0.488 -36.257,0.036 -35.36,0.036C-34.462,0.036 -34.37,0.488 -34.37,1.6C-34.37,2.713 -34.462,3.165 -35.36,3.165C-36.257,3.165 -36.35,2.713 -36.35,1.6M-35.36,-0.969C-37.247,-0.969 -37.742,-0.451 -37.742,1.6C-37.742,3.659 -37.247,4.169 -35.36,4.169C-33.457,4.169 -32.978,3.659 -32.978,1.6C-32.978,-0.451 -33.457,-0.969 -35.36,-0.969M-42.316,4.111L-40.97,4.111L-40.97,-0.911L-42.316,-0.911L-42.316,4.111ZM-37.784,4.111L-39.223,1.952C-39.331,1.794 -39.416,1.65 -39.416,1.521C-39.416,1.399 -39.354,1.277 -39.285,1.155L-38.063,-0.911L-39.579,-0.911L-40.561,0.976C-40.653,1.155 -40.7,1.356 -40.7,1.536C-40.7,1.722 -40.646,1.966 -40.515,2.181L-39.339,4.111L-37.784,4.111ZM-46.321,4.111L-46.321,-0.136C-46.321,-0.674 -46.638,-0.911 -47.14,-0.911L-49.375,-0.911C-50.458,-0.911 -50.744,-0.301 -50.744,0.739C-50.744,1.614 -50.52,2.468 -49.6,2.468L-49.538,2.468L-49.538,2.505L-50.852,4.111L-49.298,4.111L-48.362,2.813C-48.208,2.597 -48.091,2.404 -48.091,2.153L-48.091,1.98C-48.091,1.665 -48.215,1.528 -48.594,1.528L-48.757,1.528C-49.251,1.528 -49.352,1.305 -49.352,0.782C-49.352,0.28 -49.259,0.093 -48.703,0.093L-48.029,0.093C-47.759,0.093 -47.666,0.179 -47.666,0.43L-47.666,4.111L-46.321,4.111ZM-53.788,0.395C-53.757,0.301 -53.726,0.237 -53.671,0.237C-53.617,0.237 -53.594,0.301 -53.563,0.395L-53.045,2.074L-54.306,2.074L-53.788,0.395ZM-56.293,4.111L-54.839,4.111L-54.507,3.007L-52.844,3.007L-52.511,4.111L-51.05,4.111L-52.573,-0.344C-52.751,-0.868 -53.13,-0.969 -53.671,-0.969C-54.228,-0.969 -54.6,-0.868 -54.777,-0.344L-56.293,4.111ZM-60.984,4.111L-59.638,4.111L-59.638,-0.911L-60.984,-0.911L-60.984,4.111ZM-56.452,4.111L-57.89,1.952C-57.999,1.794 -58.083,1.65 -58.083,1.521C-58.083,1.399 -58.021,1.277 -57.952,1.155L-56.73,-0.911L-58.246,-0.911L-59.228,0.976C-59.321,1.155 -59.367,1.356 -59.367,1.536C-59.367,1.722 -59.313,1.966 -59.182,2.181L-58.006,4.111L-56.452,4.111ZM-61.684,4.111L-61.684,3.107L-62.535,3.107C-63.695,3.107 -63.965,2.82 -63.965,1.6C-63.965,0.381 -63.695,0.093 -62.535,0.093L-61.761,0.093L-61.761,-0.911L-63.146,-0.911C-64.963,-0.911 -65.357,0.021 -65.357,1.6C-65.357,3.178 -64.963,4.111 -63.146,4.111L-61.684,4.111ZM-65.926,3.107L-67.813,3.107C-68.083,3.107 -68.176,3.021 -68.176,2.769L-68.176,2.031L-66.026,2.031L-66.026,1.098L-68.176,1.098L-68.176,0.43C-68.176,0.179 -68.083,0.093 -67.813,0.093L-65.957,0.093L-65.957,-0.911L-68.703,-0.911C-69.205,-0.911 -69.522,-0.674 -69.522,-0.136L-69.522,3.343C-69.522,3.882 -69.205,4.111 -68.703,4.111L-65.926,4.111L-65.926,3.107ZM-70.439,4.111L-70.439,-0.911L-71.784,-0.911L-71.784,1.048L-72.565,1.048C-73.03,1.048 -73.153,0.933 -73.153,0.503L-73.153,-0.911L-74.499,-0.911L-74.499,0.818C-74.499,1.607 -74.066,2.052 -73.215,2.052L-71.784,2.052L-71.784,4.111L-70.439,4.111ZM-75.3,4.111L-75.3,0.108C-75.3,-0.266 -75.369,-0.969 -76.398,-0.969C-76.815,-0.969 -77.333,-0.918 -77.512,-0.359L-78.385,2.404C-78.424,2.526 -78.462,2.605 -78.524,2.605C-78.602,2.605 -78.617,2.49 -78.617,2.368L-78.563,-0.911L-79.894,-0.911L-79.894,3.135C-79.894,3.624 -79.777,4.169 -78.857,4.169C-78.285,4.169 -77.898,4.033 -77.767,3.645L-76.831,0.861C-76.769,0.681 -76.723,0.589 -76.653,0.589C-76.583,0.589 -76.568,0.674 -76.568,0.767L-76.63,4.111L-75.3,4.111ZM-83.292,0.359C-83.27,0.258 -83.2,0.179 -83.099,0.179C-83.006,0.179 -82.937,0.258 -82.914,0.359L-82.187,3.114L-84.02,3.114L-83.292,0.359ZM-85.396,3.114L-85.481,3.114C-85.984,3.114 -86.185,3.343 -86.185,3.882L-86.185,5.08L-84.878,5.08L-84.878,4.449C-84.878,4.212 -84.801,4.111 -84.576,4.111L-81.63,4.111C-81.406,4.111 -81.32,4.212 -81.32,4.449L-81.32,5.08L-80.014,5.08L-80.014,3.882C-80.014,3.343 -80.222,3.114 -80.725,3.114L-80.81,3.114L-81.823,-0.1C-82.04,-0.775 -82.311,-0.969 -83.099,-0.969C-83.888,-0.969 -84.167,-0.789 -84.383,-0.1L-85.396,3.114ZM-86.537,4.111L-86.537,0.108C-86.537,-0.266 -86.606,-0.969 -87.635,-0.969C-88.053,-0.969 -88.571,-0.918 -88.749,-0.359L-89.623,2.404C-89.662,2.526 -89.7,2.605 -89.762,2.605C-89.839,2.605 -89.854,2.49 -89.854,2.368L-89.801,-0.911L-91.131,-0.911L-91.131,3.135C-91.131,3.624 -91.015,4.169 -90.095,4.169C-89.522,4.169 -89.136,4.033 -89.004,3.645L-88.068,0.861C-88.006,0.681 -87.96,0.589 -87.891,0.589C-87.821,0.589 -87.806,0.674 -87.806,0.767L-87.867,4.111L-86.537,4.111ZM-94.708,1.493L-94.708,0.43C-94.708,0.179 -94.615,0.093 -94.344,0.093L-94.128,0.093C-93.401,0.093 -93.208,0.23 -93.208,0.79C-93.208,1.285 -93.37,1.493 -93.965,1.493L-94.708,1.493ZM-96.054,4.111L-94.708,4.111L-94.708,2.497L-93.246,2.497C-92.047,2.497 -91.815,1.794 -91.815,0.79C-91.815,-0.215 -92.047,-0.911 -93.246,-0.911L-95.234,-0.911C-95.736,-0.911 -96.054,-0.674 -96.054,-0.136L-96.054,4.111ZM-100.172,1.6C-100.172,0.452 -100.125,0.036 -99.19,0.036C-98.254,0.036 -98.208,0.452 -98.208,1.6C-98.208,2.748 -98.254,3.172 -99.19,3.172C-100.125,3.172 -100.172,2.748 -100.172,1.6M-99.19,-0.969C-100.953,-0.969 -101.487,-0.567 -101.564,1.077L-102.198,1.077L-102.198,-0.911L-103.544,-0.911L-103.544,4.111L-102.19,4.111L-102.19,2.009L-101.556,2.009C-101.487,3.753 -100.992,4.169 -99.19,4.169C-97.256,4.169 -96.815,3.695 -96.815,1.6C-96.815,-0.488 -97.256,-0.969 -99.19,-0.969" style="fill:rgb(235,199,160);"/>
    </g>
    <path d="M692.707,174.556L692.707,76.195C692.707,59.947 682.3,55.281 667.329,55.281C656.66,55.281 646.253,56.388 641.435,67.074L614.019,126.935C613.258,128.719 612.244,130.275 610.215,130.275C608.177,130.275 608.177,129.159 608.177,126.935L609.445,56.616L572.392,56.616L572.392,156.532C572.392,168.545 579.493,175.892 597.517,175.892C611.99,175.892 620.866,173.44 628.23,156.76L651.334,104.237C652.602,101.565 653.87,100.898 655.138,100.898C656.66,100.898 656.922,102.013 656.922,104.237L655.654,174.556L692.707,174.556ZM1018.85,174.556L1018.85,56.616L979.246,56.616L979.246,100.898L940.156,100.898L940.156,56.616L900.558,56.616L900.558,174.556L940.156,174.556L940.156,126.487L979.246,126.487L979.246,174.556L1018.85,174.556ZM1444.16,83.596L1444.16,171.966C1444.16,173.395 1445.32,174.556 1446.75,174.556L1478.59,174.556C1480.02,174.556 1481.19,173.395 1481.19,171.966L1481.19,83.596L1519.92,83.596C1520.97,83.596 1521.82,82.75 1521.82,81.707L1521.82,58.505C1521.82,57.463 1520.97,56.616 1519.92,56.616L1405.67,56.616C1404.63,56.616 1403.78,57.463 1403.78,58.505L1403.78,81.707C1403.78,82.75 1404.63,83.596 1405.67,83.596L1444.16,83.596ZM717.107,174.556L764.829,36.809C770.417,20.789 785.135,17.002 802.398,17.002C819.914,17.002 834.378,20.789 839.966,36.809L887.688,174.556L839.459,174.556L805.957,59.06C805.187,56.836 804.435,55.052 802.398,55.052C800.622,55.052 799.608,56.836 798.839,59.06L765.345,174.556L717.107,174.556ZM1388.87,82.206L1362.47,82.206C1336.58,82.206 1331.25,95.555 1331.25,115.582C1331.25,135.617 1336.58,148.966 1362.47,148.966L1391.91,148.966L1391.91,174.556L1347.24,174.556C1301.55,174.556 1290.64,151.189 1290.64,115.582C1290.64,79.974 1301.55,56.616 1347.24,56.616L1388.87,56.616L1388.87,82.206ZM1206.5,56.616L1166.9,56.616L1166.9,174.556L1206.5,174.556L1206.5,56.616ZM1292.81,174.556L1257.02,124.036C1253.97,119.589 1252.2,116.47 1252.2,113.139C1252.2,109.799 1253.71,106.46 1256.51,102.013L1286.97,56.616L1242.8,56.616L1218.69,97.11C1214.88,103.789 1213.1,108.903 1213.1,114.026C1213.1,119.369 1215.13,125.152 1218.18,129.827L1247.62,174.556L1292.81,174.556ZM1147.76,174.556L1147.76,149.406L1101.31,149.406C1081,149.406 1074.4,141.4 1074.4,126.935L1131.26,126.935C1147.76,126.935 1152.32,116.03 1152.32,102.681C1152.32,61.503 1134.56,55.281 1093.94,55.281C1044.44,55.281 1034.29,66.186 1034.29,115.142C1034.29,158.527 1044.95,174.556 1085.56,174.556L1147.76,174.556ZM433.682,18.786L433.682,32.134L413.376,32.134C386.247,32.134 371.022,39.895 363.126,54.816C357.724,65.036 355.754,78.605 355.754,95.335C355.754,136.505 367.683,158.975 413.376,158.975L433.682,158.975L433.682,174.556L477.853,174.556L477.853,158.975L498.159,158.975C543.852,158.975 555.78,136.505 555.78,95.335C555.78,54.165 543.852,32.134 498.159,32.134L477.853,32.134L477.853,18.786L433.682,18.786ZM477.092,128.491L477.092,62.847L481.666,62.847C507.044,62.847 511.618,73.304 511.618,95.555C511.618,117.814 507.044,128.491 481.666,128.491L477.092,128.491ZM434.451,128.491L429.878,128.491C404.491,128.491 399.926,117.814 399.926,95.555C399.926,73.304 404.491,62.847 429.878,62.847L434.451,62.847L434.451,128.491ZM1074.4,102.901C1074.4,85.545 1078.72,80.422 1093.94,80.422C1105.37,80.422 1111.96,83.99 1111.96,96.003C1111.96,98.894 1111.71,102.901 1104.6,102.901L1074.4,102.901Z" style="fill:white;"/>
    <defs>
        <linearGradient id="_Linear1" x1="0" y1="0" x2="1" y2="0" gradientUnits="userSpaceOnUse" gradientTransform="matrix(1.02338,0,0,1.02338,0.0514039,-3.68539e-06)"><stop offset="0" style="stop-color:white;stop-opacity:1"/><stop offset="1" style="stop-color:rgb(223,166,103);stop-opacity:1"/></linearGradient>
    </defs>
</svg>
