<?xml version="1.0" encoding="UTF-8" standalone="no"?>
<!DOCTYPE svg PUBLIC "-//W3C//DTD SVG 1.1//EN" "http://www.w3.org/Graphics/SVG/1.1/DTD/svg11.dtd">
<svg width="100%" height="100%" viewBox="0 0 1536 308" version="1.1" xmlns="http://www.w3.org/2000/svg" xmlns:xlink="http://www.w3.org/1999/xlink" xml:space="preserve" xmlns:serif="http://www.serif.com/" style="fill-rule:evenodd;clip-rule:evenodd;stroke-linejoin:round;stroke-miterlimit:2;">
    <g transform="matrix(1.29247,0,0,1.29247,-445.351,29.3455)">
        <path d="M692.707,174.556L692.707,76.195C692.707,59.947 682.3,55.281 667.329,55.281C656.66,55.281 646.253,56.388 641.435,67.074L614.019,126.935C613.258,128.719 612.244,130.275 610.215,130.275C608.177,130.275 608.177,129.159 608.177,126.935L609.445,56.616L572.392,56.616L572.392,156.532C572.392,168.545 579.493,175.892 597.517,175.892C611.99,175.892 620.866,173.44 628.23,156.76L651.334,104.237C652.602,101.565 653.87,100.898 655.138,100.898C656.66,100.898 656.922,102.013 656.922,104.237L655.654,174.556L692.707,174.556ZM1018.85,174.556L1018.85,56.616L979.246,56.616L979.246,100.898L940.156,100.898L940.156,56.616L900.558,56.616L900.558,174.556L940.156,174.556L940.156,126.487L979.246,126.487L979.246,174.556L1018.85,174.556ZM1444.16,83.596L1444.16,171.966C1444.16,173.395 1445.32,174.556 1446.75,174.556L1478.59,174.556C1480.02,174.556 1481.19,173.395 1481.19,171.966L1481.19,83.596L1519.92,83.596C1520.97,83.596 1521.82,82.75 1521.82,81.707L1521.82,58.505C1521.82,57.463 1520.97,56.616 1519.92,56.616L1405.67,56.616C1404.63,56.616 1403.78,57.463 1403.78,58.505L1403.78,81.707C1403.78,82.75 1404.63,83.596 1405.67,83.596L1444.16,83.596ZM717.107,174.556L764.829,36.809C770.417,20.789 785.135,17.002 802.398,17.002C819.914,17.002 834.378,20.789 839.966,36.809L887.688,174.556L839.459,174.556L805.957,59.06C805.187,56.836 804.435,55.052 802.398,55.052C800.622,55.052 799.608,56.836 798.839,59.06L765.345,174.556L717.107,174.556ZM1388.87,82.206L1362.47,82.206C1336.58,82.206 1331.25,95.555 1331.25,115.582C1331.25,135.617 1336.58,148.966 1362.47,148.966L1391.91,148.966L1391.91,174.556L1347.24,174.556C1301.55,174.556 1290.64,151.189 1290.64,115.582C1290.64,79.974 1301.55,56.616 1347.24,56.616L1388.87,56.616L1388.87,82.206ZM1206.5,56.616L1166.9,56.616L1166.9,174.556L1206.5,174.556L1206.5,56.616ZM1292.81,174.556L1257.02,124.036C1253.97,119.589 1252.2,116.47 1252.2,113.139C1252.2,109.799 1253.71,106.46 1256.51,102.013L1286.97,56.616L1242.8,56.616L1218.69,97.11C1214.88,103.789 1213.1,108.903 1213.1,114.026C1213.1,119.369 1215.13,125.152 1218.18,129.827L1247.62,174.556L1292.81,174.556ZM1147.76,174.556L1147.76,149.406L1101.31,149.406C1081,149.406 1074.4,141.4 1074.4,126.935L1131.26,126.935C1147.76,126.935 1152.32,116.03 1152.32,102.681C1152.32,61.503 1134.56,55.281 1093.94,55.281C1044.44,55.281 1034.29,66.186 1034.29,115.142C1034.29,158.527 1044.95,174.556 1085.56,174.556L1147.76,174.556ZM433.682,18.786L433.682,32.134L413.376,32.134C386.247,32.134 371.022,39.895 363.126,54.816C357.724,65.036 355.754,78.605 355.754,95.335C355.754,136.505 367.683,158.975 413.376,158.975L433.682,158.975L433.682,174.556L477.853,174.556L477.853,158.975L498.159,158.975C543.852,158.975 555.78,136.505 555.78,95.335C555.78,54.165 543.852,32.134 498.159,32.134L477.853,32.134L477.853,18.786L433.682,18.786ZM477.092,128.491L477.092,62.847L481.666,62.847C507.044,62.847 511.618,73.304 511.618,95.555C511.618,117.814 507.044,128.491 481.666,128.491L477.092,128.491ZM434.451,128.491L429.878,128.491C404.491,128.491 399.926,117.814 399.926,95.555C399.926,73.304 404.491,62.847 429.878,62.847L434.451,62.847L434.451,128.491ZM1074.4,102.901C1074.4,85.545 1078.72,80.422 1093.94,80.422C1105.37,80.422 1111.96,83.99 1111.96,96.003C1111.96,98.894 1111.71,102.901 1104.6,102.901L1074.4,102.901Z" style="fill:white;"/>
    </g>
</svg>
