<?xml version="1.0" encoding="UTF-8" standalone="no"?>
<!DOCTYPE svg PUBLIC "-//W3C//DTD SVG 1.1//EN" "http://www.w3.org/Graphics/SVG/1.1/DTD/svg11.dtd">
<svg width="100%" height="100%" viewBox="0 0 512 512" version="1.1" xmlns="http://www.w3.org/2000/svg" xmlns:xlink="http://www.w3.org/1999/xlink" xml:space="preserve" xmlns:serif="http://www.serif.com/" style="fill-rule:evenodd;clip-rule:evenodd;stroke-linejoin:round;stroke-miterlimit:2;">
    <path d="M417.371,376.8L366.323,376.8C363.69,376.8 361.351,378.532 360.583,381.05L356.364,394.89C353.288,393.703 350.451,391.974 347.986,389.784L339.423,382.161C339.3,382.052 339.173,381.947 339.042,381.849C320.166,367.572 294.772,365.093 273.491,375.449L269.944,377.164C265.206,379.448 260.015,380.638 254.755,380.645L229.515,380.645L210.64,370.382C200.366,364.489 187.495,365.338 178.085,372.531L175.721,371.257C175.676,371.233 175.632,371.21 175.587,371.188C167.087,366.88 156.107,369.455 149.2,376.661L149.16,376.64C136.679,369.884 120.881,374.204 113.575,386.371C111.947,389.075 112.717,392.625 115.319,394.412L204.743,455.812C204.977,455.973 205.222,456.116 205.477,456.242C218.699,462.752 233.663,464.863 248.169,462.264L299.859,452.746C299.986,452.724 300.111,452.696 300.236,452.665C303.456,451.85 306.868,452.283 309.782,453.877L333.759,469.035L326.072,494.25C325.899,494.817 325.811,495.407 325.811,496C325.811,499.291 328.52,502 331.811,502L403.566,502C406.584,502 409.156,499.723 409.522,496.727L423.327,383.527C423.356,383.286 423.371,383.044 423.371,382.801C423.371,379.509 420.663,376.801 417.371,376.801L417.371,376.8ZM398.253,490L339.913,490L370.766,388.8L410.594,388.8L398.253,490ZM316.044,443.64C315.954,443.582 315.861,443.526 315.767,443.474C310.22,440.359 303.691,439.465 297.51,440.974L246.01,450.455C234.184,452.572 221.987,450.896 211.171,445.667L127.671,388.335C132.255,384.92 138.432,384.474 143.459,387.196L186.006,410.149L188.806,411.624C188.806,411.824 188.792,412.015 188.792,412.213C188.792,415.505 191.5,418.213 194.792,418.213C194.882,418.213 194.973,418.213 195.064,418.207L224.401,416.88C232.863,416.498 241.342,416.889 249.733,418.05C250.006,418.088 250.281,418.107 250.556,418.107C253.848,418.107 256.556,415.398 256.556,412.107C256.556,409.124 254.333,406.572 251.379,406.163C242.263,404.903 233.052,404.478 223.859,404.892L201.841,405.892C204.549,397.996 212.016,392.656 220.364,392.646L254.758,392.646C261.827,392.636 268.804,391.038 275.171,387.968L278.718,386.253C295.884,377.901 316.357,379.852 331.636,391.296L340.01,398.75C343.771,402.088 348.133,404.679 352.864,406.384L337.391,457.133L316.044,443.64ZM170.105,381.854L194.064,394.764C193.072,396.255 192.21,397.827 191.485,399.464L160.576,382.8C163.632,380.977 167.3,380.474 170.105,381.862L170.105,381.854ZM204.697,380.8L204.839,380.88L208.594,382.921C206.608,383.721 204.708,384.721 202.924,385.906L190.646,379.3C195.331,377.796 200.441,378.344 204.7,380.808L204.697,380.8ZM152.015,195.627L152.015,184.948L157.873,184.948C161.564,184.951 165.249,185.229 168.898,185.781L151.61,209.355C126.947,242.819 128.561,289.237 155.488,320.908C175.671,344.803 205.416,358.598 236.694,358.571C267.972,358.597 297.716,344.802 317.9,320.908C344.827,289.237 346.44,242.819 321.778,209.355L304.325,185.555C304.325,185.408 304.347,185.266 304.347,185.119C304.35,181.146 303.178,177.259 300.979,173.95C307.155,170.303 310.956,163.643 310.956,156.471C310.956,151.025 308.765,145.802 304.879,141.986C312.837,134.027 312.938,120.967 305.104,112.886C308.842,109.237 310.953,104.228 310.953,99.004C310.953,90.412 305.246,82.796 297,80.384C306.669,75.128 312.578,64.016 312.578,49.529L312.578,48.979C312.578,45.687 309.87,42.979 306.578,42.979L287.45,42.979C290.032,36.637 293.035,30.475 296.438,24.534C297.227,23.156 297.642,21.596 297.642,20.009C297.642,15.046 293.587,10.95 288.625,10.9L209.006,10.062C206.425,9.995 203.933,11.023 202.151,12.891C199.427,15.831 199.015,20.268 201.151,23.659L204.907,29.62C207.602,33.919 210.028,38.382 212.17,42.982L207,42.982C185.849,42.982 180.627,58.661 177.821,67.082C177.381,68.525 176.854,69.939 176.243,71.318C170.006,75.134 164.319,76.99 158.873,76.99L152.015,76.99L152.015,64.142C152.015,60.85 149.307,58.142 146.015,58.142L94.629,58.142C91.337,58.142 88.629,60.85 88.629,64.142L88.629,195.627C88.629,198.919 91.337,201.627 94.629,201.627L146.015,201.627C149.307,201.627 152.015,198.919 152.015,195.627ZM312.1,216.452C333.478,245.461 332.079,285.698 308.738,313.152C290.816,334.332 264.437,346.567 236.692,346.567C208.947,346.567 182.568,334.332 164.646,313.152C141.305,285.698 139.906,245.461 161.285,216.452L181.533,188.841C186.636,190.564 191.536,192.839 196.145,195.625C181.378,208.095 182.238,227.443 185.25,236.981C186.046,239.455 188.363,241.144 190.962,241.144C194.254,241.144 196.962,238.436 196.962,235.144C196.962,234.542 196.871,233.943 196.693,233.368C195.613,229.306 195.27,225.083 195.68,220.9C196.308,212.601 201.284,205.226 208.745,201.538C219.383,205.022 230.677,205.414 242.226,205.414L256.207,205.414L257.635,207.991C262.994,217.648 265.453,228.649 264.717,239.668L264.596,241.505C264.587,241.637 264.583,241.769 264.583,241.901C264.583,245.043 267.052,247.681 270.187,247.888C270.321,247.897 270.455,247.901 270.587,247.901C273.726,247.898 276.359,245.433 276.568,242.301L276.69,240.464C277.478,228.631 275.218,216.792 270.127,206.082C273.592,207.402 284.094,213.12 286.083,234.244C286.371,237.308 288.972,239.679 292.05,239.682C292.238,239.682 292.429,239.673 292.62,239.655C295.897,239.346 298.34,236.396 298.031,233.119C296.771,219.744 292.614,210.891 287.931,205.036C292.235,204.187 296.15,201.966 299.087,198.708L312.1,216.452ZM239.667,266.646C243.825,266.65 247.245,270.069 247.249,274.227C247.249,277.519 249.957,280.227 253.249,280.227C256.541,280.227 259.249,277.519 259.249,274.227C259.235,265.754 253.73,258.204 245.667,255.6L245.667,253.188C245.667,249.896 242.959,247.188 239.667,247.188C236.375,247.188 233.667,249.896 233.667,253.188L233.667,255.6C225.594,258.196 220.083,265.757 220.083,274.237C220.083,284.977 228.921,293.814 239.66,293.814L239.717,293.814C243.875,293.814 247.296,297.235 247.296,301.393C247.296,305.532 243.906,308.945 239.767,308.972L239.567,308.972C235.448,308.916 232.088,305.515 232.082,301.395C232.082,298.103 229.374,295.395 226.082,295.395C222.79,295.395 220.082,298.103 220.082,301.395C220.094,309.87 225.599,317.422 233.663,320.028L233.663,323.057C233.663,326.349 236.371,329.057 239.663,329.057C242.955,329.057 245.663,326.349 245.663,323.057L245.663,320.028C253.736,317.432 259.247,309.871 259.247,301.391C259.247,290.651 250.409,281.814 239.67,281.814C239.667,281.814 239.665,281.814 239.663,281.814C235.537,281.767 232.168,278.359 232.168,274.232C232.168,270.106 235.537,266.698 239.663,266.651L239.667,266.646ZM152.015,88.989L158.873,88.989C166.773,88.989 174.7,86.438 183.093,81.189C186.474,79.076 187.74,75.274 189.207,70.872C192.307,61.566 195.397,54.978 207,54.978L217.14,54.978C219.287,60.878 221.088,66.921 222.645,73.04L222.645,75.705C222.645,75.922 222.657,76.14 222.681,76.356C223.655,85.284 231.273,92.548 239.662,92.548L239.773,92.548L291.573,91.586C295.64,91.599 298.979,94.949 298.979,99.016C298.979,103.092 295.625,106.446 291.549,106.446C291.541,106.446 291.533,106.446 291.525,106.446L270.38,106.511C267.088,106.511 264.38,109.219 264.38,112.511C264.38,115.803 267.088,118.511 270.38,118.511L290.152,118.511C294.981,118.511 298.955,122.485 298.955,127.314C298.955,132.142 294.981,136.116 290.152,136.116L270.385,136.116C267.093,136.116 264.385,138.824 264.385,142.116C264.385,145.408 267.093,148.116 270.385,148.116L290.6,148.116C295.149,148.166 298.865,151.922 298.865,156.472C298.865,161.021 295.149,164.777 290.6,164.827L261.45,164.827C258.158,164.827 255.45,167.535 255.45,170.827C255.45,174.119 258.158,176.827 261.45,176.827L284.05,176.827C288.566,176.877 292.254,180.605 292.254,185.122C292.254,189.638 288.566,193.366 284.05,193.416L242.226,193.416C227.536,193.416 214.461,192.848 203.212,185.869C189.6,177.421 173.893,172.944 157.873,172.948L152.015,172.948L152.015,88.989ZM140.015,189.627L100.629,189.627L100.629,70.142L140.015,70.142L140.015,189.627ZM219.215,22.167C219.434,22.294 219.661,22.407 219.894,22.506C229.36,26.43 236.969,38.694 235.594,47.78C235.538,48.11 235.51,48.445 235.51,48.78C235.51,52.072 238.219,54.78 241.51,54.78C241.513,54.78 241.515,54.78 241.518,54.78C244.458,54.776 246.983,52.612 247.438,49.708C248.872,40.56 245.31,30.285 238.838,22.371L257.803,22.571C255.782,28.446 254.01,36.664 255.544,45.18C256.056,48.024 258.554,50.115 261.444,50.117C262.041,50.116 262.635,50.028 263.207,49.854C266.122,48.89 267.892,45.886 267.324,42.869C265.946,34.854 268.818,26.781 270.638,22.706L283.655,22.843C274.818,39.362 268.857,57.266 266.028,75.786L265.369,80.069L239.619,80.547C238.341,80.435 237.161,79.809 236.353,78.813C232.742,58.673 225.274,39.42 214.359,22.113L219.215,22.167ZM300.167,54.979C299.106,61.971 295.446,71.726 283.29,71.726L278.922,71.726C280.014,66.069 281.424,60.477 283.143,54.978L300.167,54.978L300.167,54.979Z" style="fill:rgb(185,149,102);fill-rule:nonzero;"/>
</svg>
